<?xml version="1.0" encoding="utf-8"?>
<!-- Generator: Adobe Illustrator 14.0.0, SVG Export Plug-In . SVG Version: 6.00 Build 43363)  -->
<!DOCTYPE svg PUBLIC "-//W3C//DTD SVG 1.1//EN" "http://www.w3.org/Graphics/SVG/1.1/DTD/svg11.dtd">
<svg version="1.1" id="Capa_1" xmlns="http://www.w3.org/2000/svg" xmlns:xlink="http://www.w3.org/1999/xlink" x="0px" y="0px"
	 width="1024px" height="768px" viewBox="0 0 1024 768" enable-background="new 0 0 1024 768" xml:space="preserve">
<g id="XMLID_1_">
	<g>
		<path fill="#666666" d="M763.82,79.09v609.82c0,3.21-1.301,6.12-3.41,8.229c-2.11,2.11-5.03,3.42-8.24,3.42H292.83
			c-6.42,0-11.65-5.229-11.65-11.649V79.09c0-6.42,5.22-11.65,11.65-11.65h459.34C758.59,67.44,763.82,72.67,763.82,79.09z
			 M746.28,654.64V114.95c0-16.52-13.45-29.96-29.971-29.96H328.69c-16.52,0-29.97,13.44-29.97,29.96V468.3c0,0.01,0,0.021,0,0.021
			V654.64c0,16.521,13.44,29.96,29.97,29.96h387.62C732.83,684.6,746.28,671.16,746.28,654.64z"/>
		<path fill="#666666" d="M788.03,79.09v609.82c0,19.77-16.08,35.859-35.86,35.859H292.83c-19.78,0-35.86-16.09-35.86-35.859V79.09
			c0-19.77,16.08-35.86,35.86-35.86h138.53h34.24H580.06h34.24H660h92.17C771.95,43.23,788.04,59.32,788.03,79.09z M763.82,688.91
			V79.09c0-6.42-5.23-11.65-11.65-11.65H292.83c-6.43,0-11.65,5.23-11.65,11.65v609.82c0,6.42,5.23,11.649,11.65,11.649h459.34
			c3.21,0,6.13-1.31,8.24-3.42C762.52,695.03,763.82,692.12,763.82,688.91z"/>
		<path fill="#666666" d="M746.28,114.95V654.64c0,16.521-13.45,29.96-29.971,29.96H328.69c-16.53,0-29.97-13.439-29.97-29.96
			V468.32c0,0,0-0.011,0-0.021V114.95c0-16.52,13.45-29.96,29.97-29.96h387.62C732.83,84.99,746.28,98.43,746.28,114.95z
			 M722.07,654.64V218.77L425.23,515.61c-2.37,2.359-5.47,3.54-8.56,3.54c-3.1,0-6.2-1.181-8.56-3.54c-4.73-4.73-4.73-12.4,0-17.12
			l313.96-313.96v-69.58c0-3.12-2.641-5.75-5.761-5.75h-29.25L322.93,473.33v110.33l13.61-13.61c4.73-4.72,12.39-4.72,17.12,0
			c4.73,4.73,4.73,12.4,0,17.12l-30.73,30.73v36.739c0,3.11,2.64,5.75,5.76,5.75h387.62C719.43,660.39,722.06,657.75,722.07,654.64z
			 M322.93,439.08L652.82,109.2H328.69c-3.12,0-5.76,2.63-5.76,5.75V439.08z"/>
	</g>
	<g>
	</g>
</g>
</svg>
