<?xml version="1.0" encoding="utf-8"?>
<!-- Generator: Adobe Illustrator 14.0.0, SVG Export Plug-In . SVG Version: 6.00 Build 43363)  -->
<!DOCTYPE svg PUBLIC "-//W3C//DTD SVG 1.1//EN" "http://www.w3.org/Graphics/SVG/1.1/DTD/svg11.dtd">
<svg version="1.1" id="图层_1" xmlns="http://www.w3.org/2000/svg" xmlns:xlink="http://www.w3.org/1999/xlink" x="0px" y="0px"
	 width="200px" height="200px" viewBox="0 0 200 200" enable-background="new 0 0 200 200" xml:space="preserve">
<path fill="#333333" d="M134.153,73.49c-5.253,0-10.885,0.736-15.064,1.97c-1.481,0.438-3.16,1.344-4.783,2.22
	c-2.671,1.441-5.452,2.927-7.877,2.72c-4.852-0.424-10.199-6.807-10.8-12.888l-0.089-0.896l0.77-0.192
	c0.948-0.242,2.243,0.14,3.791,0.627c1.625,0.511,3.646,1.147,5.863,1.147c0.62,0,1.237-0.05,1.832-0.149
	c4.992-0.836,8.36-5.062,9.978-8.995c-2.011-1.526-3.861-3.37-5.656-5.158c-3.672-3.658-7.468-7.44-12.972-8.979
	c-1.748-0.489-3.366-0.727-4.947-0.727c-5.563,0-9.57,3.082-13.813,6.346c-1.551,1.193-3.155,2.428-4.883,3.552
	c-1.773,1.154-3.582,2.016-5.331,2.85c-5.425,2.584-9.71,4.625-8.99,13.646l0.075,0.945l-0.82,0.136
	c-3.865,0.635-6.39,2.313-7.72,5.128c-3.423,7.246,2.021,20.635,5.274,28.635c0.448,1.102,0.861,2.116,1.215,3.023l0.496,1.271
	l-1.209,0.133c-2.37,0.267-5.279-0.385-8.355-1.078c-2.049-0.459-4.169-0.937-6.078-1.103l-0.535-0.047l-0.585-1.635
	c-0.838-2.359-1.63-4.588-2.831-6.333l-0.431-0.626l0.437-0.621c3.322-4.721,3.984-15.119,1.363-21.396
	c-0.94-2.253-2.733-4.931-5.885-4.798c-2.625,0.125-3.829,2.518-5.577,6.41c-0.689,1.534-1.401,3.121-2.313,4.619
	c-1.119,1.838-2.423,3.304-3.687,4.722c-2.081,2.338-3.878,4.356-4.26,7.395c-0.67,5.336,1.533,10.341,3.866,15.64
	c2.033,4.616,4.13,9.382,4.237,14.495c6.833,1.643,12.835,4.23,18.645,6.734c8.314,3.586,16.167,6.973,26.251,7.813
	c1.57,0.132,3.2,0.197,4.844,0.197c9.828,0,19.688-2.354,29.222-4.631c9.463-2.259,19.248-4.597,28.928-4.597
	c4.381,0,8.419,0.463,12.347,1.41c7.822,1.891,16.22,7.652,23.629,12.736c1.577,1.082,3.09,2.12,4.515,3.063h0.541
	c0.136-0.17,0.3-0.273,0.449-0.343c0.733-3.636-8.153-8.468-12.024-10.571c-1.005-0.549-1.875-1.021-2.47-1.39
	c-6.57-4.071-12.619-7.489-20.114-8.065c-1.57-0.121-3.201-0.182-4.851-0.182c-9.871,0-19.843,2.182-29.486,4.289
	c-9.641,2.108-19.608,4.288-29.47,4.288c-1.781,0-3.542-0.071-5.234-0.213c-10.3-0.858-18.914-4.332-27.245-7.69
	c-5.399-2.177-10.499-4.231-15.711-5.418l-0.562-0.129l-0.122-0.642c-0.875-4.636-2.149-8.938-3.382-13.103
	c-1.179-3.978-2.397-8.091-3.281-12.523L23.18,96.05l0.28-0.381c1.391-1.896,2.646-4.235,3.975-6.713
	c2.606-4.857,5.3-9.88,9.24-11.581l0.414-0.179l0.371,0.276c5.027,3.757,2.896,9.076,1.015,13.769
	c-1.121,2.798-2.28,5.691-2.052,8.241c0.298,3.321,2.063,5.565,3.93,7.939c0.817,1.039,1.659,2.109,2.405,3.304
	c3.24,1.07,6.983,1.684,10.606,2.275c2.531,0.414,5.148,0.842,7.6,1.425l0.092,0.028c1.413,0.525,1.742,2.117,2.007,3.396
	c0.244,1.182,0.41,1.715,0.765,1.914c0.57-0.58,1.282-0.925,1.924-1.233c0.281-0.136,0.553-0.269,0.798-0.409
	c-0.281-3.014-2.564-7.854-4.972-12.958c-4.128-8.751-8.807-18.67-6.299-25.074c1.063-2.714,3.329-4.558,6.736-5.48l0.684-0.185
	l0.304,0.725c1.969,4.689,3.72,9.721,5.413,14.586c2.697,7.749,5.481,15.75,9.193,22.472c0.428-0.295,0.904-0.471,1.326-0.627
	c0.282-0.104,0.57-0.21,0.801-0.337c-2.207-6.619-4.841-13.698-7.836-21.054c-0.479-1.176-1.062-2.5-1.679-3.901
	c-3.234-7.348-7.259-16.491-4.611-22.068c1.168-2.464,3.52-3.931,6.987-4.359l0.715-0.089l0.212,0.789
	c3.759,13.981,8.423,27.643,12.798,37.48c0.123,0.277,0.254,0.583,0.393,0.907c0.883,2.063,2.362,5.515,3.979,5.515
	c0.32,0,0.663-0.133,1.026-0.396c-1.027-5.551-3.217-10.804-5.741-16.853c-0.56-1.341-1.13-2.711-1.703-4.118
	c-0.582-1.428-1.445-3.139-2.36-4.95c-2.925-5.79-6.564-12.996-5.317-19.155c0.919-4.537,9.512-10.301,15.019-11.129
	c0.844-0.127,1.678-0.191,2.479-0.191c6.372,0,10.216,3.966,13.606,7.465c1.65,1.702,3.21,3.312,4.893,4.28l0.842,0.484
	l-0.486,0.925c-1.283,2.448-3.686,3.742-6.944,3.742c-3.805,0-7.801-1.745-9.996-3.544c-1.812,1.561-3.425,2.71-5.084,3.624
	c0.744,2.267,1.539,4.513,2.312,6.692c0.843,2.379,1.713,4.835,2.52,7.328c1.736,0.909,3.582,1.748,5.37,2.561
	c2.108,0.959,4.286,1.948,6.328,3.07c5.701-2.907,16.558-7.546,27.761-7.546c4.524,0,8.73,0.757,12.503,2.249
	c5.369,2.124,9.746,6.561,13.979,10.85c5.402,5.476,10.983,11.131,18.667,11.937v-3.542c-7.793-1.667-13.368-7.033-18.767-12.229
	c-4.188-4.03-8.143-7.838-13.054-10.049C144.946,74.347,139.968,73.49,134.153,73.49z"/>
</svg>
