<?xml version="1.0" encoding="utf-8"?>
<!-- Generator: Adobe Illustrator 14.0.0, SVG Export Plug-In . SVG Version: 6.00 Build 43363)  -->
<!DOCTYPE svg PUBLIC "-//W3C//DTD SVG 1.1//EN" "http://www.w3.org/Graphics/SVG/1.1/DTD/svg11.dtd">
<svg version="1.1" id="图层_1" xmlns="http://www.w3.org/2000/svg" xmlns:xlink="http://www.w3.org/1999/xlink" x="0px" y="0px"
	 width="200px" height="200px" viewBox="0 0 200 200" enable-background="new 0 0 200 200" xml:space="preserve">
<path fill="none" stroke="#333333" stroke-width="5" d="M107.25,54.051c5.85,0.936,6.189-5.69,7.732-9.403
	c1.425-3.446,2.766-6.126,3.968-8.35c-1.212-2.372-2.979-2.872-3.554-5.223c-1.531-6.265,4.987-12.125,11.285-9.615
	c4.286,1.712,7.732,10.52,6.894,17.337c-0.989,8.084-8.073,12.849-7.308,21.731c3.402,1.34,7.23,0.096,8.351-2.298
	c1.2-2.584,0.521-6.978,1.255-10.232c0.648-2.904,1.861-5.914,4.809-6.478c7.394-1.436,10.231,8.573,9.394,15.667
	c-0.343,3.011-2.214,5.936-3.757,8.775c-3.199,5.914-5.521,9.839-8.986,16.083c-1.555,2.818-3.555,5.595-3.957,8.36
	c-0.402,2.637,0.148,5.35,0,7.732c-0.531,7.753-5.443,16.859-11.296,19.433c-1.042,0.457-3.188,0.744-4.169,0.617
	c-0.971,11.562-0.684,24.441,0.414,35.729c0.352,3.723,1.201,7.232,1.054,10.456c-4.36,1.616-6.647-3.054-8.571-5.647
	c-2.197-2.957-4.271-6.754-7.734-7.521c-7.694-1.713-9.593,7.446-17.336,6.478c-0.133-2.627,0.967-5.584,1.462-8.773
	c1.394-9.012,1.425-21.125,0.208-30.922c-2.064-0.01-6.303,1.098-8.775,0c-1.755-0.775-3.202-4.266-5.015-6.478
	c-1.41-1.724-3.973-4.436-5.643-5.639c-2.936-2.138-6.775-3.404-10.025-5.647c-1.446-0.988-2.792-2.394-4.18-3.553
	c-4.032-3.351-6.691-6.381-9.817-11.274c-1.75-2.734-3.962-5.66-4.389-8.775c-0.765-5.553,2.941-11.977,6.686-12.327
	c6.478-0.607,9.966,9.137,12.743,13.572c1.962,3.147,4.398,6.478,10.238,4.604c7.764-2.51,1.979-15.562,0-21.103
	c-1.612-4.531-3.575-10.116-3.968-15.881c-0.67-9.807-0.729-23.666,2.925-29.878c1.217-2.075,3.467-4.946,6.472-5.021
	c4.659-0.095,7.776,6.18,7.941,10.658c0.208,5.499-1.84,13.051-1.67,19.848c0.148,6.084,1.478,11.711,8.147,11.285
	c1.947-1.978,1.824-5.733,2.09-9.605c0.234-3.446,0.419-7.36,0.419-11.285c0-11.211-2.18-26.518,6.893-26.953
	c3.686-0.181,7.526,2.989,8.355,6.052c0.787,2.904-0.267,7.169-0.621,11.083c-0.347,3.733-0.585,7.744-0.841,11.275
	C104.813,40.628,103.305,49.478,107.25,54.051z"/>
<path fill="none" stroke="#333333" stroke-width="5" d="M192.277,194.995c-60.311,0-120.618,0-180.928,0
	c2.276-6.743,9.419-8.808,14.833-12.955c3.42-2.617,7.754-10.894,12.955-11.701c4.607-0.712,10.877,3.097,15.668,2.3
	c5.638-0.938,9.753-8.457,15.253-8.979c6.35-0.605,11.238,5.859,18.598,4.798c4.494-0.647,7.217-4.979,11.7-6.479
	c3.729-1.232,6.568,4.34,8.563,7.105c2.19,3.041,5.041,6.541,8.147,6.689c3.435,0.158,6.498-2.937,8.773-5.438
	c1.701-1.859,4.639-6.37,7.317-6.68c2.67-0.318,6.595,2.287,8.978,3.542c2.682,1.415,5.639,3.212,8.786,3.766
	c4.329,0.767,9.456-1.788,13.785-0.628c5.987,1.605,9.169,10.403,13.37,13.785C183.323,188.348,190.29,188.814,192.277,194.995z"/>
</svg>
