<?xml version="1.0" encoding="utf-8"?>
<!-- Generator: Adobe Illustrator 14.0.0, SVG Export Plug-In . SVG Version: 6.00 Build 43363)  -->
<!DOCTYPE svg PUBLIC "-//W3C//DTD SVG 1.1//EN" "http://www.w3.org/Graphics/SVG/1.1/DTD/svg11.dtd">
<svg version="1.1" id="图层_4" xmlns="http://www.w3.org/2000/svg" xmlns:xlink="http://www.w3.org/1999/xlink" x="0px" y="0px"
	 width="124.833px" height="120.234px" viewBox="0 0 124.833 120.234" enable-background="new 0 0 124.833 120.234"
	 xml:space="preserve">
<path fill="#666666" d="M24.62,60.117c0-4.011,0.639-7.874,1.811-11.5c4.867-15.068,19.022-26,35.689-26
	c3.136,0,6.186,0.388,9.1,1.117l-7.651,5.773l24.846,10.525l7.071,2.996l13.188,5.587l-3.123-25.289l-0.121-0.985L102.67,0
	L91.943,8.094L89.775,9.73C81.563,5.205,72.141,2.617,62.12,2.617c-27.769,0-51.001,19.786-56.344,46H0v11.5v11.5h5.776h9.791h9.053
	V60.117z"/>
<path fill="#666666" d="M118.463,48.617h-9.791H99.62v11.5c0,4.011-0.64,7.874-1.812,11.5c-4.866,15.068-19.021,26-35.688,26
	c-3.138,0-6.186-0.388-9.1-1.117l7.651-5.773L35.827,80.2l-7.072-2.996l-13.188-5.587l3.122,25.289l0.122,0.986l2.759,22.342
	l10.727-8.095l2.167-1.637c8.212,4.526,17.635,7.113,27.656,7.113c27.768,0,51-19.786,56.343-46h6.371v-11.5v-11.5L118.463,48.617
	L118.463,48.617z"/>
<path fill="#FFFFFF" d="M95.485,43.03l-7.072-2.996L63.568,29.509l7.651-5.773c-2.914-0.729-5.963-1.117-9.1-1.117
	c-16.667,0-30.822,10.932-35.689,26c-1.172,3.626-1.811,7.489-1.811,11.5v11.5h-9.053l13.188,5.587l7.072,2.996l24.845,10.525
	l-7.65,5.773c2.914,0.729,5.962,1.117,9.1,1.117c16.667,0,30.822-10.932,35.688-26c1.172-3.626,1.813-7.489,1.813-11.5v-11.5h9.053
	L95.485,43.03z"/>
</svg>
