<?xml version="1.0" encoding="utf-8"?>
<!-- Generator: Adobe Illustrator 14.0.0, SVG Export Plug-In . SVG Version: 6.00 Build 43363)  -->
<!DOCTYPE svg PUBLIC "-//W3C//DTD SVG 1.1//EN" "http://www.w3.org/Graphics/SVG/1.1/DTD/svg11.dtd">
<svg version="1.1" id="图层_1" xmlns="http://www.w3.org/2000/svg" xmlns:xlink="http://www.w3.org/1999/xlink" x="0px" y="0px"
	 width="185px" height="203px" viewBox="0 0 185 203" enable-background="new 0 0 185 203" xml:space="preserve">
<path fill-rule="evenodd" clip-rule="evenodd" fill="#84B8CE" d="M148.427,54.416c-10.981,20.878-31.736,32.255-54.98,41.908
	c-23.082,9.587-45.619,20.155-61.516,35.372c-12.467-22.608-1.021-50.884,11.918-63.823c12.77-12.769,33.004-18.679,53.442-23.068
	c25.476-5.472,49.769-11.224,63.055-29.221c8.604,16.989,15.317,34.862,13.841,61.517c-1.712,30.91-17.316,56.46-38.063,70.743
	c-19.997,13.769-58.479,22.568-84.969,6.152c-10.384,8.327-16.541,20.882-22.685,33.449c-6.778-1.937-11.983-5.445-14.61-11.534
	c14.745-27.664,36.896-46.171,64.978-61.132c27.484-14.644,55.764-28.06,68.437-57.672
	C147.692,56.129,147.322,55.227,148.427,54.416z"/>
</svg>
