<?xml version="1.0" encoding="utf-8"?>
<!-- Generator: Adobe Illustrator 14.0.0, SVG Export Plug-In . SVG Version: 6.00 Build 43363)  -->
<!DOCTYPE svg PUBLIC "-//W3C//DTD SVG 1.1//EN" "http://www.w3.org/Graphics/SVG/1.1/DTD/svg11.dtd">
<svg version="1.1" id="图层_1" xmlns="http://www.w3.org/2000/svg" xmlns:xlink="http://www.w3.org/1999/xlink" x="0px" y="0px"
	 width="198.07px" height="204px" viewBox="0 0 198.07 204" enable-background="new 0 0 198.07 204" xml:space="preserve">
<path fill-rule="evenodd" clip-rule="evenodd" fill="#84B8CE" d="M125.844,45.44c-0.673,5.006,0.927,7.74,1,11.999
	c-13.047-8.688-42.208-9.634-54.993,0c-2.883-2.95,1.404-7.212,0-11.999C86.248,38.823,111.389,39.028,125.844,45.44z"/>
<path fill-rule="evenodd" clip-rule="evenodd" fill="#84B8CE" d="M74.851,105.433c-18.998,0-37.996,0-56.993,0
	c-4.106-16.501,2.979-30.303,14.998-33.996c6.632,4.03,20.365,4.03,26.997,0C72.309,74.693,79.1,88.788,74.851,105.433z"/>
<path fill-rule="evenodd" clip-rule="evenodd" fill="#84B8CE" d="M165.839,71.438c10.898,4.482,18.221,17.709,13.998,33.996
	c-18.997,0-37.995,0-56.992,0C118.476,89,125.516,75.49,136.843,71.438C144.762,75.323,157.92,75.323,165.839,71.438z"/>
<path fill-rule="evenodd" clip-rule="evenodd" fill="#84B8CE" d="M29.856,111.433c3.333,0,6.666,0,9.999,0
	c2.73,23.267,13.466,38.527,29.997,47.994c-1.474,2.525-3.533,4.466-4,7.999C44.591,158.023,32.937,139.014,29.856,111.433z"/>
<path fill-rule="evenodd" clip-rule="evenodd" fill="#84B8CE" d="M92.848,112.433c30.293-8.429,33.925,41.994,5.999,41.994
	C75.198,154.427,73.881,117.709,92.848,112.433z"/>
<path fill-rule="evenodd" clip-rule="evenodd" fill="#84B8CE" d="M40.461,28.475c30.293-8.429,33.925,41.994,5.999,41.994
	C22.812,70.469,21.494,33.751,40.461,28.475z"/>
<path fill-rule="evenodd" clip-rule="evenodd" fill="#84B8CE" d="M145.352,28.475c30.293-8.429,33.925,41.994,5.998,41.994
	C127.701,70.469,126.384,33.751,145.352,28.475z"/>
<path fill-rule="evenodd" clip-rule="evenodd" fill="#84B8CE" d="M167.839,112.433c-3.593,26.736-14.813,45.846-35.996,54.993
	c-0.765-2.901-1.581-5.751-3.999-6.999c15.352-10.979,27.674-24.986,29.996-48.994C161.234,111.704,165.946,110.658,167.839,112.433
	z"/>
<path fill-rule="evenodd" clip-rule="evenodd" fill="#84B8CE" d="M127.844,189.423c-17.038,1.66-40.955,1.66-57.993,0
	c-2.396-16.302,1.474-31.173,13.998-32.996c4.682-0.682,10.64,3.126,15.999,3c3.932-0.093,8.861-3.418,12.998-3
	C126.437,157.802,130.925,176.271,127.844,189.423z"/>
</svg>
