<?xml version="1.0" encoding="utf-8"?>
<!-- Generator: Adobe Illustrator 14.0.0, SVG Export Plug-In . SVG Version: 6.00 Build 43363)  -->
<!DOCTYPE svg PUBLIC "-//W3C//DTD SVG 1.1//EN" "http://www.w3.org/Graphics/SVG/1.1/DTD/svg11.dtd">
<svg version="1.1" id="图层_2" xmlns="http://www.w3.org/2000/svg" xmlns:xlink="http://www.w3.org/1999/xlink" x="0px" y="0px"
	 width="200px" height="200px" viewBox="45 54.5 200 200" enable-background="new 45 54.5 200 200" xml:space="preserve">
<g>
	<path fill="none" stroke="#84B8CE" stroke-width="5" stroke-linecap="round" stroke-linejoin="round" d="M199.262,220.166
		c0,3.45-1.967,6.272-4.371,6.272H93.5c-2.403,0-4.371-2.822-4.371-6.272V88.834c0-3.45,1.968-6.272,4.371-6.272h101.392
		c2.404,0,4.371,2.823,4.371,6.272v131.332H199.262z"/>
</g>
<g>
	
		<line fill="none" stroke="#84B8CE" stroke-width="5" stroke-linecap="round" stroke-linejoin="round" x1="104.186" y1="130.327" x2="184.205" y2="130.327"/>
	
		<line fill="none" stroke="#84B8CE" stroke-width="5" stroke-linecap="round" stroke-linejoin="round" x1="104.186" y1="106.331" x2="184.205" y2="106.331"/>
	
		<line fill="none" stroke="#84B8CE" stroke-width="5" stroke-linecap="round" stroke-linejoin="round" x1="104.186" y1="154.361" x2="184.205" y2="154.361"/>
	
		<line fill="none" stroke="#84B8CE" stroke-width="5" stroke-linecap="round" stroke-linejoin="round" x1="104.186" y1="202.67" x2="140.803" y2="202.67"/>
	
		<line fill="none" stroke="#84B8CE" stroke-width="5" stroke-linecap="round" stroke-linejoin="round" x1="104.186" y1="178.673" x2="140.803" y2="178.673"/>
</g>
<path fill="#F2F2F2" stroke="#84B8CE" stroke-width="5" stroke-linecap="round" stroke-linejoin="round" d="M177.523,203.486
	l-3.287-18.807l24.479-63.957c0,0,3.586-7.46,11.799-4.117l0.588,0.226c8.342,3.007,6.018,10.951,6.018,10.951l-24.574,63.92
	L177.523,203.486z"/>
</svg>
