<?xml version="1.0" encoding="utf-8"?>
<!-- Generator: Adobe Illustrator 14.0.0, SVG Export Plug-In . SVG Version: 6.00 Build 43363)  -->
<!DOCTYPE svg PUBLIC "-//W3C//DTD SVG 1.1//EN" "http://www.w3.org/Graphics/SVG/1.1/DTD/svg11.dtd">
<svg version="1.1" id="Capa_1" xmlns="http://www.w3.org/2000/svg" xmlns:xlink="http://www.w3.org/1999/xlink" x="0px" y="0px"
	 width="200px" height="200px" viewBox="412 284 200 200" enable-background="new 412 284 200 200" xml:space="preserve">
<g>
	<g>
		<path fill="none" stroke="#84B8CE" stroke-width="5" stroke-linecap="round" stroke-linejoin="round" d="M574.985,438
			c0,2.75-2.25,5-5,5H454.015c-2.75,0-5-2.25-5-5V333.309c0-2.75,2.25-5,5-5h115.971c2.75,0,5,2.25,5,5V438z"/>
	</g>
	
		<line fill="none" stroke="#84B8CE" stroke-width="5" stroke-linecap="round" stroke-linejoin="round" x1="513.022" y1="341.209" x2="513.022" y2="315.907"/>
	
		<line fill="none" stroke="#84B8CE" stroke-width="5" stroke-linecap="round" stroke-linejoin="round" x1="479.044" y1="341.209" x2="479.044" y2="315.907"/>
	
		<line fill="none" stroke="#84B8CE" stroke-width="5" stroke-linecap="round" stroke-linejoin="round" x1="547.052" y1="341.209" x2="547.052" y2="315.907"/>
	
		<rect x="475.729" y="363.634" fill="none" stroke="#84B8CE" stroke-width="5" stroke-linecap="round" stroke-linejoin="round" width="15.21" height="10.335"/>
	
		<rect x="475.729" y="384.694" fill="none" stroke="#84B8CE" stroke-width="5" stroke-linecap="round" stroke-linejoin="round" width="15.21" height="10.335"/>
	
		<rect x="475.729" y="405.755" fill="none" stroke="#84B8CE" stroke-width="5" stroke-linecap="round" stroke-linejoin="round" width="15.21" height="10.335"/>
	
		<rect x="505.418" y="363.634" fill="none" stroke="#84B8CE" stroke-width="5" stroke-linecap="round" stroke-linejoin="round" width="15.21" height="10.335"/>
	
		<rect x="505.418" y="384.694" fill="none" stroke="#84B8CE" stroke-width="5" stroke-linecap="round" stroke-linejoin="round" width="15.21" height="10.335"/>
	
		<rect x="505.418" y="405.755" fill="none" stroke="#84B8CE" stroke-width="5" stroke-linecap="round" stroke-linejoin="round" width="15.21" height="10.335"/>
	
		<rect x="535.105" y="363.634" fill="none" stroke="#84B8CE" stroke-width="5" stroke-linecap="round" stroke-linejoin="round" width="15.21" height="10.335"/>
	
		<rect x="535.105" y="384.694" fill="none" stroke="#84B8CE" stroke-width="5" stroke-linecap="round" stroke-linejoin="round" width="15.21" height="10.335"/>
	
		<rect x="535.105" y="405.755" fill="none" stroke="#84B8CE" stroke-width="5" stroke-linecap="round" stroke-linejoin="round" width="15.21" height="10.335"/>
</g>
</svg>
