<?xml version="1.0" encoding="utf-8"?>
<!-- Generator: Adobe Illustrator 14.0.0, SVG Export Plug-In . SVG Version: 6.00 Build 43363)  -->
<!DOCTYPE svg PUBLIC "-//W3C//DTD SVG 1.1//EN" "http://www.w3.org/Graphics/SVG/1.1/DTD/svg11.dtd">
<svg version="1.1" id="Capa_1" xmlns="http://www.w3.org/2000/svg" xmlns:xlink="http://www.w3.org/1999/xlink" x="0px" y="0px"
	 width="200px" height="200px" viewBox="412 284 200 200" enable-background="new 412 284 200 200" xml:space="preserve">
<path fill="none" stroke="#84B8CE" stroke-width="5" stroke-linecap="round" stroke-linejoin="round" d="M462.798,415.5l-9.5,26.625
	l25.625-10l33.912-33.75l23.338,22.5c-3.167,14.834,2.083,28.124,26.083,23.292c-9.834-3.5-19.023-14.197-10.231-22.5
	c7.148-6.75,14.731-0.834,22.231,12c9.292-35.209-23-28.334-23-28.334l-22.333-23.003l47.167-48.164l-15.834-15.517l-48.166,46.684
	c0,0-10.5-9.167-23.667-22.5c3.167-14.833-2.833-28-26.833-23.167c9.834,3.5,19.023,14.197,10.231,22.5
	c-7.148,6.75-14.731,0.833-22.231-12c-9.292,35.208,23,28.333,23,28.333l23.5,23.83l-16.334,15.837"/>
</svg>
