<?xml version="1.0" encoding="utf-8"?>
<!-- Generator: Adobe Illustrator 14.0.0, SVG Export Plug-In . SVG Version: 6.00 Build 43363)  -->
<!DOCTYPE svg PUBLIC "-//W3C//DTD SVG 1.1//EN" "http://www.w3.org/Graphics/SVG/1.1/DTD/svg11.dtd">
<svg version="1.1" id="图层_1" xmlns="http://www.w3.org/2000/svg" xmlns:xlink="http://www.w3.org/1999/xlink" x="0px" y="0px"
	 width="311.333px" height="126px" viewBox="0 0 311.333 126" enable-background="new 0 0 311.333 126" xml:space="preserve">
<path fill-rule="evenodd" clip-rule="evenodd" fill="#FFFFFF" d="M14.566,36.352c5.903,2.737,14.227,3.053,19.44,6.479
	c-7.18-0.46-12.195,1.245-19.44,0.721c-0.399,4.719,0.479,8.161,2.16,10.8c22.2-0.36,44.097-1.022,66.24-1.44
	c0-12.96,0-25.92,0-38.88c-8.16,0-16.32,0-24.48,0c0,10.56,0,21.12,0,31.68c-5.104,0.416-9.295,1.745-14.4,2.16
	c-5.841-6.399-1.583-22.896-2.88-33.84c-8.88,0-17.76,0-26.64,0C14.566,21.472,14.566,28.912,14.566,36.352z M138.406,29.152
	c-3.269-4.186-8.874-13.663-13.68-15.12c-4.746-1.438-9.4,1.041-15.12,0c-0.682,7.239-1.891,13.949-2.88,20.88
	c14.819,3.181,24.577,11.423,41.76,12.24C148.298,40.944,143.083,35.14,138.406,29.152z M144.886,27.712
	c-0.621-4.899-1.471-9.569-2.88-13.68c-2.188,0.452-6.202-0.922-7.2,0.72C138.728,18.511,141.212,23.706,144.886,27.712z
	 M171.526,36.352c3.245-7.796,8.121-13.96,10.801-22.32c-3.84,0-7.681,0-11.521,0C171.283,21.235,169.851,30.347,171.526,36.352z
	 M189.526,14.032c-5.498,13.701-17.382,21.018-17.279,40.32c8.188-0.451,16.436-0.845,24.479-1.44c0-12.96,0-25.92,0-38.88
	C194.327,14.032,191.926,14.032,189.526,14.032z M201.046,15.472c7.046,3.514,19.442,1.678,27.36,4.32
	c-9.058,1.263-18.575,2.065-27.36,3.6c0,4.56,0,9.12,0,13.68c5.28,0,10.56,0,15.84,0c0.487,1.673,2.393,1.927,2.88,3.6
	c0.479,23.041-0.959,48,0.721,69.841c3.844-11.32,4.802-23.809,6.479-36c2.627-19.088,5.824-38.188,5.04-60.48
	C222.143,14.968,208.518,12.143,201.046,15.472z M239.207,14.032c-4.109,32.852-9.116,64.804-13.681,97.2
	c6.915,0.123,14.112,3.542,19.44,2.88c0.476-24.725-0.954-51.354,0.72-74.88c1.037-0.403,1.757-1.123,2.16-2.16
	c5.28,0,10.561,0,15.84,0c0-7.68,0-15.36,0-23.04C255.526,14.032,247.367,14.032,239.207,14.032z M268.006,36.352
	c3.244-7.796,8.12-13.96,10.8-22.32c-3.84,0-7.68,0-11.52,0C267.763,21.235,266.331,30.347,268.006,36.352z M284.566,16.192
	c-6.094,9.807-16.048,24.153-15.84,38.16c8.189-0.451,16.436-0.845,24.48-1.44c0-12.96,0-25.92,0-38.88
	C288.768,13.984,286.295,13.409,284.566,16.192z M103.846,42.112c-2.66,10.78-3.732,23.147-5.76,34.56
	c3.375,2.987,4.599,9.207,10.08,10.801c4.747,1.38,12.11-0.43,18.72-0.721c11.116-0.488,23.048,0.415,30.96-1.439
	c-2.509-10.691-4.371-22.029-8.64-30.96C133.95,51.224,118.797,40.797,103.846,42.112z M16.727,57.952c0,5.76,0,11.521,0,17.28
	c13.801-0.359,27.461-0.858,38.88-3.601c3.174,3.547,9.221,4.22,16.56,3.601c2.672-5.487,7.962-8.358,7.2-17.28
	C58.486,57.952,37.606,57.952,16.727,57.952z M172.247,57.952c-1.042,4.959-1.431,10.569-1.44,16.561
	c3.956,0.123,8.381-0.221,10.08,2.159c-2.109,2.451-6.773,2.347-10.08,3.601c0,7.2,0,14.399,0,21.6
	c5.252,2.908,12.334,3.986,16.561,7.92c-4.806,1.275-10.918-1.266-16.561-1.439c0,1.68,0,3.359,0,5.04
	c9.045-0.075,17.027-1.214,25.92-1.44c-0.545-18.175-1.439-36-2.16-54C187.126,57.952,179.686,57.952,172.247,57.952z
	 M268.726,57.952c-1.041,4.959-1.431,10.569-1.439,16.561c3.807,0.272,8.318-0.159,10.08,2.159
	c-2.109,2.451-6.774,2.347-10.08,3.601c0,7.2,0,14.399,0,21.6c5.19,2.97,12.418,3.902,16.56,7.92
	c-4.805,1.275-10.918-1.266-16.56-1.439c0,1.68,0,3.359,0,5.04c8.799-0.321,17.263-0.978,25.92-1.44c-0.545-18.175-1.44-36-2.16-54
	C283.606,57.952,276.167,57.952,268.726,57.952z M82.247,74.512c1.188-0.32,1.188-5.44,0-5.761
	C81.248,69.252,79.145,74.495,82.247,74.512z M14.566,83.872c7.966,2.594,15.161,5.959,26.64,5.04c0.54-4.38-1.186-6.494-1.44-10.08
	C31.253,80.398,15.497,74.722,14.566,83.872z M62.086,94.671c3.116-4.563,4.92-10.439,7.2-15.84c-2.88,0-5.76,0-8.64,0
	C61.529,83.709,58.832,92.167,62.086,94.671z M69.287,98.272c5.006,0.033,8.381,1.698,13.68,1.439
	c0.206-7.886-0.769-14.591-2.16-20.88C73.889,82.235,70.006,88.671,69.287,98.272z M16.727,113.392
	c10.096,0.736,17.64-1.08,24.48-3.601c0-4.56,0-9.12,0-13.68c-8.684-1.877-16.4-4.721-24.48-7.2
	C16.727,97.072,16.727,105.232,16.727,113.392z M92.326,94.671c-1.069,6.131-2.503,11.896-2.88,18.721c7.68,0,15.36,0,23.04,0
	c-0.501-3.622,1.222-5.019,0.72-8.641C107.023,99.265,102.479,86.088,92.326,94.671z M115.366,98.272
	c7.254-0.295,13.107,0.813,19.44,1.439c1.461,4.779,3.51,8.971,5.04,13.681c7.68,0,15.36,0,23.04,0
	c0.708-9.828-3.438-14.803-5.04-22.32c-15.12,0-30.24,0-45.36,0C112.415,94.503,115.265,95.013,115.366,98.272z M62.086,112.671
	c8.956,0.172,14.673-3.968,20.88,0.721c0.219-3.339-0.007-6.233-1.44-7.92C73.396,103.101,59.817,97.791,62.086,112.671z"/>
<path fill-rule="evenodd" clip-rule="evenodd" d="M14.566,14.032c8.88,0,17.76,0,26.64,0c1.296,10.944-2.961,27.44,2.88,33.84
	c5.104-0.415,9.295-1.744,14.4-2.16c0-10.56,0-21.12,0-31.68c8.16,0,16.32,0,24.48,0c0,12.96,0,25.92,0,38.88
	c-22.143,0.418-44.04,1.08-66.24,1.44c-1.682-2.639-2.559-6.081-2.16-10.8c7.245,0.524,12.26-1.181,19.44-0.721
	c-5.213-3.427-13.537-3.743-19.44-6.479C14.566,28.912,14.566,21.472,14.566,14.032z"/>
<path fill-rule="evenodd" clip-rule="evenodd" d="M148.486,47.152c-17.183-0.817-26.941-9.059-41.76-12.24
	c0.989-6.931,2.198-13.641,2.88-20.88c5.72,1.041,10.375-1.438,15.12,0c4.806,1.457,10.411,10.935,13.68,15.12
	C143.083,35.14,148.298,40.944,148.486,47.152z"/>
<path fill-rule="evenodd" clip-rule="evenodd" d="M134.806,14.752c0.999-1.642,5.012-0.269,7.2-0.72
	c1.409,4.111,2.259,8.781,2.88,13.68C141.212,23.706,138.728,18.511,134.806,14.752z"/>
<path fill-rule="evenodd" clip-rule="evenodd" d="M170.806,14.032c3.84,0,7.681,0,11.521,0c-2.68,8.36-7.556,14.524-10.801,22.32
	C169.851,30.347,171.283,21.235,170.806,14.032z"/>
<path fill-rule="evenodd" clip-rule="evenodd" d="M196.726,14.032c0,12.96,0,25.92,0,38.88c-8.044,0.596-16.291,0.989-24.479,1.44
	c-0.103-19.303,11.781-26.619,17.279-40.32C191.926,14.032,194.327,14.032,196.726,14.032z"/>
<path fill-rule="evenodd" clip-rule="evenodd" d="M232.006,14.032c0.784,22.292-2.413,41.393-5.04,60.48
	c-1.678,12.191-2.636,24.68-6.479,36c-1.68-21.841-0.241-46.8-0.721-69.841c-0.487-1.672-2.393-1.927-2.88-3.6
	c-5.28,0-10.56,0-15.84,0c0-4.56,0-9.12,0-13.68c8.785-1.535,18.303-2.337,27.36-3.6c-7.918-2.643-20.314-0.806-27.36-4.32
	C208.518,12.143,222.143,14.968,232.006,14.032z"/>
<path fill-rule="evenodd" clip-rule="evenodd" d="M263.686,14.032c0,7.68,0,15.36,0,23.04c-5.279,0-10.56,0-15.84,0
	c-0.403,1.037-1.123,1.757-2.16,2.16c-1.674,23.525-0.244,50.155-0.72,74.88c-5.328,0.662-12.525-2.757-19.44-2.88
	c4.564-32.396,9.571-64.349,13.681-97.2C247.367,14.032,255.526,14.032,263.686,14.032z"/>
<path fill-rule="evenodd" clip-rule="evenodd" d="M267.287,14.032c3.84,0,7.68,0,11.52,0c-2.68,8.36-7.556,14.524-10.8,22.32
	C266.331,30.347,267.763,21.235,267.287,14.032z"/>
<path fill-rule="evenodd" clip-rule="evenodd" d="M293.207,14.032c0,12.96,0,25.92,0,38.88c-8.045,0.596-16.291,0.989-24.48,1.44
	c-0.208-14.007,9.746-28.354,15.84-38.16C286.295,13.409,288.768,13.984,293.207,14.032z"/>
<path fill-rule="evenodd" clip-rule="evenodd" d="M149.207,54.352c4.269,8.931,6.131,20.269,8.64,30.96
	c-7.912,1.854-19.844,0.951-30.96,1.439c-6.61,0.291-13.973,2.101-18.72,0.721c-5.481-1.594-6.706-7.813-10.08-10.801
	c2.027-11.412,3.1-23.779,5.76-34.56C118.797,40.797,133.95,51.224,149.207,54.352z M125.446,73.072
	c2.579,0.419,2.189-2.131,2.16-4.32c-0.96,0-1.92,0-2.88,0C124.206,70.952,125.462,71.375,125.446,73.072z"/>
<path fill-rule="evenodd" clip-rule="evenodd" d="M79.366,57.952c0.762,8.922-4.527,11.793-7.2,17.28
	c-7.339,0.619-13.386-0.054-16.56-3.601c-11.419,2.742-25.079,3.241-38.88,3.601c0-5.76,0-11.521,0-17.28
	C37.606,57.952,58.486,57.952,79.366,57.952z"/>
<path fill-rule="evenodd" clip-rule="evenodd" d="M194.566,57.952c0.721,18,1.615,35.825,2.16,54
	c-8.893,0.227-16.875,1.365-25.92,1.44c0-1.681,0-3.36,0-5.04c5.643,0.174,11.755,2.715,16.561,1.439
	c-4.227-3.934-11.309-5.012-16.561-7.92c0-7.2,0-14.399,0-21.6c3.307-1.254,7.971-1.149,10.08-3.601
	c-1.699-2.38-6.124-2.036-10.08-2.159c0.01-5.991,0.398-11.602,1.44-16.561C179.686,57.952,187.126,57.952,194.566,57.952z"/>
<path fill-rule="evenodd" clip-rule="evenodd" d="M291.046,57.952c0.72,18,1.615,35.825,2.16,54
	c-8.657,0.463-17.121,1.119-25.92,1.44c0-1.681,0-3.36,0-5.04c5.642,0.174,11.755,2.715,16.56,1.439
	c-4.142-4.018-11.369-4.95-16.56-7.92c0-7.2,0-14.399,0-21.6c3.306-1.254,7.971-1.149,10.08-3.601
	c-1.762-2.318-6.273-1.887-10.08-2.159c0.009-5.991,0.398-11.602,1.439-16.561C276.167,57.952,283.606,57.952,291.046,57.952z"/>
<path fill-rule="evenodd" clip-rule="evenodd" d="M82.247,68.751c1.188,0.32,1.188,5.44,0,5.761
	C79.145,74.495,81.248,69.252,82.247,68.751z"/>
<path fill-rule="evenodd" clip-rule="evenodd" fill="#FFFFFF" d="M124.727,68.751c0.96,0,1.92,0,2.88,0
	c0.029,2.189,0.418,4.739-2.16,4.32C125.462,71.375,124.206,70.952,124.727,68.751z"/>
<path fill-rule="evenodd" clip-rule="evenodd" d="M39.767,78.832c0.254,3.586,1.98,5.7,1.44,10.08
	c-11.479,0.919-18.674-2.446-26.64-5.04C15.497,74.722,31.253,80.398,39.767,78.832z"/>
<path fill-rule="evenodd" clip-rule="evenodd" d="M60.646,78.832c2.88,0,5.76,0,8.64,0c-2.28,5.4-4.084,11.276-7.2,15.84
	C58.832,92.167,61.529,83.709,60.646,78.832z"/>
<path fill-rule="evenodd" clip-rule="evenodd" d="M80.806,78.832c1.392,6.289,2.366,12.994,2.16,20.88
	c-5.299,0.259-8.673-1.406-13.68-1.439C70.006,88.671,73.889,82.235,80.806,78.832z"/>
<path fill-rule="evenodd" clip-rule="evenodd" d="M16.727,88.912c8.08,2.479,15.796,5.323,24.48,7.2c0,4.56,0,9.12,0,13.68
	c-6.84,2.521-14.384,4.337-24.48,3.601C16.727,105.232,16.727,97.072,16.727,88.912z"/>
<path fill-rule="evenodd" clip-rule="evenodd" d="M113.207,104.751c0.501,3.622-1.222,5.019-0.72,8.641c-7.68,0-15.36,0-23.04,0
	c0.376-6.824,1.811-12.59,2.88-18.721C102.479,86.088,107.023,99.265,113.207,104.751z"/>
<path fill-rule="evenodd" clip-rule="evenodd" d="M112.486,91.072c15.12,0,30.24,0,45.36,0c1.603,7.518,5.748,12.492,5.04,22.32
	c-7.68,0-15.36,0-23.04,0c-1.53-4.71-3.579-8.901-5.04-13.681c-6.333-0.626-12.186-1.734-19.44-1.439
	C115.265,95.013,112.415,94.503,112.486,91.072z"/>
<path fill-rule="evenodd" clip-rule="evenodd" d="M81.526,105.472c1.433,1.687,1.659,4.581,1.44,7.92
	c-6.207-4.688-11.924-0.549-20.88-0.721C59.817,97.791,73.396,103.101,81.526,105.472z"/>
</svg>
