<?xml version="1.0" encoding="utf-8"?>
<!-- Generator: Adobe Illustrator 14.0.0, SVG Export Plug-In . SVG Version: 6.00 Build 43363)  -->
<!DOCTYPE svg PUBLIC "-//W3C//DTD SVG 1.1//EN" "http://www.w3.org/Graphics/SVG/1.1/DTD/svg11.dtd">
<svg version="1.1" id="Capa_1" xmlns="http://www.w3.org/2000/svg" xmlns:xlink="http://www.w3.org/1999/xlink" x="0px" y="0px"
	 width="334px" height="186px" viewBox="0 0 334 186" enable-background="new 0 0 334 186" xml:space="preserve">
<path stroke="#FFFFFF" stroke-width="3" d="M313.714,57.884h-38.065V38.702c0-5.043-4.104-9.147-9.148-9.147h-66.1
	c-2.445,0-4.427,1.981-4.427,4.426v0.295h-19.478V33.98c0-2.444-1.98-4.426-4.427-4.426h-52.23v-5.017
	c0-2.444-1.981-4.426-4.426-4.426h-33.05c-7.647,0-13.869,6.221-13.869,13.868v23.902H30.427c-2.443,0-4.426,1.981-4.426,4.426
	v56.657c0,2.445,1.982,4.427,4.426,4.427h5.018v38.066c0,2.443,1.981,4.428,4.426,4.428c2.445,0,4.427-1.983,4.427-4.428v-38.065
	h57.248v38.066c0,2.443,1.981,4.428,4.427,4.428c2.444,0,4.426-1.983,4.426-4.428v-0.295h57.248v0.295
	c0,2.443,1.98,4.428,4.426,4.428s4.427-1.983,4.427-4.428v-0.295h57.248v0.295c0,2.443,1.98,4.428,4.426,4.428
	s4.427-1.983,4.427-4.428v-38.066h57.248v38.066c0,2.443,1.981,4.428,4.427,4.428c2.444,0,4.426-1.983,4.426-4.428v-38.066h5.018
	c2.444,0,4.426-1.981,4.426-4.427V62.31C318.138,59.866,316.158,57.884,313.714,57.884z M280.368,95.655V85.622h10.033v10.033
	H280.368z M261.482,95.655V85.622h10.031v10.033H261.482z M242.595,95.655V85.622h10.034v10.033H242.595z M223.711,95.655V85.622
	h10.033v10.033H223.711z M204.825,95.655V85.622h10.032v10.033H204.825z M185.938,95.655V85.622h10.034v10.033H185.938z
	 M167.053,95.655V85.622h10.032v10.033H167.053z M148.168,95.655V85.622H158.2v10.033H148.168z M129.281,95.655V85.622h10.033
	v10.033H129.281z M110.396,95.655V85.622h10.033v10.033H110.396z M91.51,95.655V85.622h10.034v10.033H91.51z M72.624,95.655V85.622
	h10.033v10.033H72.624z M53.739,95.655V85.622h10.033v10.033H53.739z M34.852,95.655V85.622h10.034v10.033H34.852z M299.254,85.622
	h10.033v10.033h-10.033V85.622z M204.825,38.407h61.674c0.163,0,0.295,0.133,0.295,0.295v19.182h-61.969V38.407L204.825,38.407z
	 M195.972,43.128v14.755h-19.478V43.128H195.972z M167.643,38.407v19.477h-47.806V38.407H167.643z M77.345,33.98
	c0-2.766,2.251-5.017,5.017-5.017h28.624v28.919H77.345V33.98z M309.287,66.737V76.77H34.852V66.737H309.287z M110.396,123.394
	h38.361v28.918h-38.361V123.394z M157.611,152.312v-28.918h10.033v28.918H157.611z M176.496,123.394h10.034v28.918h-10.034V123.394z
	 M233.744,152.312h-38.362v-28.918h38.362V152.312z M34.852,114.541v-10.033h274.435v10.033H34.852z"/>
</svg>
