<?xml version="1.0" encoding="utf-8"?>
<!-- Generator: Adobe Illustrator 14.0.0, SVG Export Plug-In . SVG Version: 6.00 Build 43363)  -->
<!DOCTYPE svg PUBLIC "-//W3C//DTD SVG 1.1//EN" "http://www.w3.org/Graphics/SVG/1.1/DTD/svg11.dtd">
<svg version="1.1" id="图层_1" xmlns="http://www.w3.org/2000/svg" xmlns:xlink="http://www.w3.org/1999/xlink" x="0px" y="0px"
	 width="536.75px" height="584px" viewBox="0 0 536.75 584" enable-background="new 0 0 536.75 584" xml:space="preserve">
<path fill="#333333" d="M141.708,190.026c0.001,0,0.001,0,0.002,0c0.228,0,0.459-0.008,0.692-0.023l1.626-0.105l-0.03,1.629
	c-0.396,21.993,10.321,33.906,33.728,37.49l0.976,0.149l0.249,0.956c6.258,24.038,14.773,40.481,27.609,53.317
	c17.656,17.655,41.848,27.379,68.12,27.378c45.385,0,95.32-30.472,100.326-81.464l0.125-1.273l1.277-0.078
	c17.367-1.058,28.958-9.537,32.638-23.876c4.485-17.479,2.591-50.465,0.962-65.465c-2.115-19.479-16.2-31.371-36.456-30.663
	l-1.104,0.039l-0.364-1.043c-9.352-26.791-34.2-71.736-95.552-71.736c-4.493,0-9.162,0.247-13.878,0.734
	c-36.907,3.811-64.415,27.72-81.761,71.065l-0.373,0.933l-1.004,0.01c-21.979,0.226-33.598,10.9-35.521,32.632l-0.132,1.492
	l-1.493-0.13c-5.167-0.446-9.155,1.799-11.951,6.641c-5.127,8.881-4.761,24.518,0.799,34.145
	C133.127,186.085,136.497,190.026,141.708,190.026z M354.938,229.925c-5.362,18.16-11.756,30.014-21.378,39.636
	c-14.025,14.026-33.864,21.751-55.856,21.751c-0.003,0-0.002,0-0.005,0c-18.187-0.001-35.899-5.384-49.875-15.159
	c-15.092-10.555-24.646-25.274-27.669-42.608c-1.029-0.764-1.073-2.264-1.097-3.078c-0.008-0.264-0.012-0.528-0.044-0.768
	L198.786,228h156.721L354.938,229.925z M203.097,105.969c12.206-32.231,39.755-51.474,73.694-51.474
	c3.221,0,6.539,0.173,9.862,0.513c28.467,2.917,51.878,21.473,64.229,50.912l0.873,2.081H202.328L203.097,105.969z M164.167,141.638
	c1.574-8.05,3.809-12.483,6.833-13.552c0.67-0.237,1.554-0.178,2.242-0.083c0.234,0.033,0.467,0.07,0.69,0.07
	c0.103,0,0.142-0.011,0.143-0.011c4.521-1.333,11.149-1.953,20.86-1.953c6.125,0,12.611,0.243,18.884,0.477
	c5.694,0.213,11.073,0.414,15.68,0.414h133c9.391,0,21.186,0.596,24.055,3.434c4.743,4.693,4.983,32.031,4.983,37.464
	c0,5.467-0.241,32.977-4.983,37.669c-3.243,3.209-10.399,4.703-22.522,4.703c-6.267,0-13.01-0.39-18.96-0.734
	C340.313,209.26,335.819,209,332.5,209h-112c-3.497,0-7.855,0.171-12.47,0.353c-5.313,0.208-11.333,0.445-16.921,0.445
	c-13.072,0-20.352-1.288-23.605-4.176C161.544,200.332,160.304,161.396,164.167,141.638z"/>
<path fill="#333333" d="M202.672,200.01c8.395,0.965,19.096-11.379,26.114-19.422c1.82-2.086,3.392-3.887,4.653-5.148
	c1.194-1.194,3.056-2.784,5.211-4.625c7.849-6.702,20.986-17.919,20.354-26.201c-0.404-5.282-5.346-8.046-10.02-8.046
	c-1.046,0-2.096,0.13-3.12,0.387c-6.667,1.67-13.46,9.258-20.653,17.291c-2.794,3.121-5.683,6.347-8.651,9.314
	c-1.059,1.059-2.426,2.31-4.01,3.757c-7.474,6.834-19.984,18.272-17.606,26.778C195.731,196.911,200.25,199.73,202.672,200.01z"/>
<path fill="#333333" d="M182.109,172.005L182.46,172c3.952-0.106,10.798-4.512,16.278-10.477c4.754-5.174,7.47-10.385,7.264-13.937
	c-0.435-7.513-6.067-8.635-9.385-8.635c-0.367,0-0.699,0.017-0.981,0.042c-8.502,0.774-24.188,16.961-23.64,24.396
	C172.304,167.566,175.954,172.005,182.109,172.005z"/>
<path fill="#333333" d="M504.002,456.569c-3.078-66.158-26.45-104.952-78.15-129.717c-1.879-0.899-3.817-1.851-5.808-2.828
	c-14.639-7.183-31.229-15.323-48.051-15.323c-1.805,0-3.597,0.098-5.327,0.29c-13.1,1.455-24.688,8.91-35.895,16.119
	c-9.132,5.875-18.575,11.949-28.866,14.834c-7.788,2.183-15.227,3.244-22.74,3.244c-8.568,0-17.175-1.351-27.086-4.249
	c-11.582-3.387-21.164-9.616-30.43-15.641c-11.351-7.38-22.072-14.351-35.257-15.303c-0.83-0.06-1.704-0.09-2.599-0.09
	c-23.499,0-60.403,19.912-67.563,23.904c-37.748,21.045-56.072,49.988-63.246,99.903c-0.339,2.357-0.737,4.937-1.16,7.677
	c-2.786,18.053-6.602,42.777-1.895,57.657c3.916,12.381,25.032,18.781,39.005,23.017c45.417,13.768,98.958,21.055,168.49,22.933
	c1.359-0.158,2.329,0.217,2.965,1.003h35.071c64.365-3.283,117.669-8.61,168.605-23.937c14.345-4.316,36.023-10.839,40.02-22.066
	c2.276-6.396,1.417-18.729,0.586-30.655C504.422,463.742,504.162,460.02,504.002,456.569z M484.058,491.893
	c-52.287,20.921-127.933,32.919-207.542,32.919c-0.01,0-0.018,0-0.027,0c-80.592-0.003-156.249-12.369-207.569-33.929l-0.905-0.38
	L68,489.521c-0.985-68.847,14.474-111.826,48.652-135.259c18.577-12.737,41.987-20.395,62.438-26.206
	c0.278-0.078,0.617-0.221,0.976-0.371c0.843-0.354,1.799-0.754,2.862-0.754c0.322,0,0.637,0.038,0.937,0.113
	c11.515,2.882,20.473,8.959,29.135,14.836c5.724,3.884,11.13,7.552,17.117,10.252c12.924,5.829,28.375,8.909,44.681,8.909
	c20.047-0.001,39.939-4.573,56.014-12.875c3.212-1.658,7.036-4.185,11.084-6.858c8.903-5.881,18.995-12.547,27.472-13.303
	c0.641-0.057,1.318-0.086,2.017-0.086c10.063,0,24.506,6.072,35.053,10.506l1.644,0.691c26.035,10.917,44.762,24.557,55.659,40.538
	c20.45,29.991,20.862,71.087,21.261,110.83l0.01,1.026L484.058,491.893z"/>
</svg>
