<?xml version="1.0" encoding="utf-8"?>
<!-- Generator: Adobe Illustrator 14.0.0, SVG Export Plug-In . SVG Version: 6.00 Build 43363)  -->
<!DOCTYPE svg PUBLIC "-//W3C//DTD SVG 1.1//EN" "http://www.w3.org/Graphics/SVG/1.1/DTD/svg11.dtd">
<svg version="1.1" id="Layer_1" xmlns="http://www.w3.org/2000/svg" xmlns:xlink="http://www.w3.org/1999/xlink" x="0px" y="0px"
	 width="291.23px" height="211.489px" viewBox="0 0 291.23 211.489" enable-background="new 0 0 291.23 211.489"
	 xml:space="preserve">
<path fill="none" stroke="#000000" stroke-width="6" stroke-miterlimit="10" d="M149.565,160.012H53.64
	c-7.655,0-13.919-6.264-13.919-13.92V38.219c0-7.655,6.264-13.918,13.919-13.918h176.888c7.654,0,13.918,6.263,13.918,13.918
	v107.873c0,2.785-0.812,5.336-2.203,7.539"/>
<polyline fill="none" stroke="#000000" stroke-width="6" stroke-miterlimit="10" points="134.254,142.729 57.7,142.729 57.7,41.584 
	227.048,41.584 227.048,106.075 "/>
<path fill="none" stroke="#000000" stroke-width="6" stroke-linecap="round" stroke-linejoin="round" stroke-miterlimit="10" d="
	M187.147,197.715l-1.508-6.154c0,0-15.891-15.542-16.123-16.818c-0.348-1.275-8.352-15.544-8.352-15.544
	s-13.57-13.571-14.846-15.543c-1.277-1.972-7.076-5.219-7.076-6.495c0-1.275,0.348-8.119,7.076-8.352
	c6.844-0.348,14.498,5.8,18.791,10.671c4.174,4.872,8.35,9.396,8.698,3.597c0.349-5.801,0-57.533,0-57.533s-0.928-8.352,8.353-8.352
	c6.496,0,7.422,5.221,7.422,10.671c0,5.451,0,34.632,0,34.632v-10.506c0,0,2.205-5.451,7.888-5.451c5.685,0,8.933,3.248,8.933,9.164
	c0,5.914,0,8.043,0,8.043v-6.305c0,0-0.697-6.496,7.539-6.496c8.235,0,7.539,6.959,7.539,6.959v10.342v-5.471
	c0,0,2.784-4.406,7.309-4.406c4.64,0,6.264,2.783,6.264,5.104s0,50.572,0,50.572s-1.275,3.596-2.9,7.771
	c-1.623,4.176-2.104,15.897-2.104,15.897"/>
<path fill="none" stroke="#000000" stroke-width="6" stroke-linecap="round" stroke-linejoin="round" stroke-miterlimit="10" d="
	M164.645,95.52c-2.436-3.364-3.943-7.655-3.828-12.18c0.116-11.25,9.396-20.297,20.646-20.182
	c11.251,0.115,20.298,9.395,20.183,20.645c0,4.641-1.624,8.933-4.292,12.296"/>
</svg>
