<?xml version="1.0" encoding="utf-8"?>
<!-- Generator: Adobe Illustrator 14.0.0, SVG Export Plug-In . SVG Version: 6.00 Build 43363)  -->
<!DOCTYPE svg PUBLIC "-//W3C//DTD SVG 1.1//EN" "http://www.w3.org/Graphics/SVG/1.1/DTD/svg11.dtd">
<svg version="1.1" id="图层_1" xmlns="http://www.w3.org/2000/svg" xmlns:xlink="http://www.w3.org/1999/xlink" x="0px" y="0px"
	 width="160px" height="145px" viewBox="0 0 160 145" enable-background="new 0 0 160 145" xml:space="preserve">
<path fill-rule="evenodd" clip-rule="evenodd" d="M79.934,109.985c-8.928,5.632-18.554,10.565-27.84,15.84
	c-9.82-5.141-19.303-10.617-28.8-16.08c-0.06-12.139-0.046-21.739,0-34.08c9.135-5.265,19.022-11.058,28.319-15.36
	c9.722,4.759,19.026,9.934,28.08,15.36C80.272,87.612,79.834,97.814,79.934,109.985z M51.613,63.905
	c-7.292,3.667-15.843,8.156-23.04,12.72c7.98,3.939,15.258,8.582,23.28,12.48c7.563-4.277,15.393-8.288,22.8-12.72
	C66.954,72.245,59.505,67.854,51.613,63.905z M26.414,107.825c5.8,3.399,12.435,6.857,18.24,10.08c2.02,1.121,3.981,3.006,5.76,2.88
	c0-9.439,0-18.88,0-28.32c-8.063-4.257-15.733-8.908-24-12.96C26.414,88.945,26.414,98.386,26.414,107.825z M53.773,92.465
	c-0.376,9.224-0.207,18.993-0.239,28.56c8.12-3.879,15.376-8.623,23.279-12.72c-0.159-9.44,0.32-19.521-0.239-28.561
	C69.114,84.126,61.247,88.098,53.773,92.465z"/>
<path fill-rule="evenodd" clip-rule="evenodd" d="M106.68,62.985c-8.928,5.632-18.554,10.565-27.84,15.84
	c-9.82-5.141-19.303-10.617-28.8-16.08c-0.06-12.139-0.046-21.739,0-34.08c9.136-5.265,19.022-11.058,28.319-15.36
	c9.722,4.759,19.026,9.934,28.08,15.36C107.019,40.612,106.58,50.814,106.68,62.985z M78.359,16.905
	c-7.293,3.667-15.844,8.156-23.039,12.72c7.98,3.939,15.258,8.582,23.279,12.48c7.563-4.277,15.393-8.288,22.8-12.72
	C93.7,25.245,86.251,20.854,78.359,16.905z M53.16,60.825c5.799,3.399,12.434,6.857,18.24,10.08c2.02,1.121,3.98,3.006,5.76,2.88
	c0-9.439,0-18.88,0-28.32c-8.063-4.257-15.732-8.908-24-12.96C53.16,41.945,53.16,51.386,53.16,60.825z M80.52,45.465
	c-0.376,9.224-0.207,18.993-0.239,28.56c8.12-3.879,15.376-8.623,23.279-12.72c-0.159-9.44,0.32-19.521-0.239-28.561
	C95.86,37.126,87.993,41.098,80.52,45.465z"/>
<path fill-rule="evenodd" clip-rule="evenodd" d="M133.631,110.986c-8.928,5.631-18.554,10.564-27.84,15.84
	c-9.82-5.141-19.303-10.617-28.8-16.08c-0.06-12.139-0.046-21.739,0-34.08c9.136-5.265,19.022-11.058,28.319-15.36
	c9.722,4.759,19.026,9.934,28.08,15.36C133.97,88.613,133.531,98.815,133.631,110.986z M105.311,64.906
	c-7.293,3.667-15.844,8.156-23.039,12.72c7.98,3.939,15.258,8.582,23.279,12.48c7.563-4.277,15.393-8.288,22.8-12.72
	C120.651,73.246,113.202,68.854,105.311,64.906z M80.111,108.826c5.799,3.398,12.434,6.857,18.24,10.08
	c2.02,1.121,3.98,3.006,5.76,2.879c0-9.439,0-18.879,0-28.319c-8.063-4.257-15.732-8.908-24-12.96
	C80.111,89.946,80.111,99.386,80.111,108.826z M107.471,93.466c-0.376,9.224-0.207,18.993-0.239,28.56
	c8.12-3.879,15.376-8.623,23.279-12.719c-0.159-9.441,0.32-19.521-0.239-28.561C122.812,85.126,114.944,89.099,107.471,93.466z"/>
</svg>
