<?xml version="1.0" encoding="utf-8"?>
<!-- Generator: Adobe Illustrator 14.0.0, SVG Export Plug-In . SVG Version: 6.00 Build 43363)  -->
<!DOCTYPE svg PUBLIC "-//W3C//DTD SVG 1.1//EN" "http://www.w3.org/Graphics/SVG/1.1/DTD/svg11.dtd">
<svg version="1.1" id="图层_1" xmlns="http://www.w3.org/2000/svg" xmlns:xlink="http://www.w3.org/1999/xlink" x="0px" y="0px"
	 width="160px" height="145px" viewBox="0 0 160 145" enable-background="new 0 0 160 145" xml:space="preserve">
<path fill="#333333" d="M79.693,75.665c-9.054-5.426-18.358-10.601-28.08-15.36c-9.297,4.302-19.184,10.095-28.319,15.36
	c-0.046,12.341-0.06,21.94,0,34.08c9.497,5.463,18.98,10.938,28.8,16.08c9.203-5.229,18.738-10.122,27.599-15.692V75.665z
	 M50.414,92.583c0,9.4,0,18.802,0,28.202v0.569l-24-13.063v-0.467c0-9.439,0-18.88,0-28.32v-0.171l4.46,2.462
	c6.605,3.464,12.95,7.189,19.54,10.669C50.414,92.504,50.414,92.544,50.414,92.583z M51.853,89.105
	c-8.022-3.898-15.3-8.541-23.28-12.48c7.197-4.564,15.748-9.053,23.04-12.72c7.892,3.949,15.341,8.34,23.04,12.48
	C67.246,80.816,59.416,84.828,51.853,89.105z M53.534,121.354v-0.329c0.017-5.19-0.018-10.435,0-15.625V92.583l23.403-13.249v28.958
	L53.534,121.354z"/>
<path fill="#333333" d="M106.053,28.291C97,22.864,87.695,17.689,77.974,12.931c-9.296,4.302-19.183,10.095-28.318,15.36
	c-0.046,12.341-0.06,21.94,0,34.08c9.497,5.463,18.98,10.939,28.8,16.08c9.203-5.229,18.738-10.121,27.598-15.691V28.291z
	 M76.775,45.208c0,9.4,0,18.802,0,28.203v0.568l-24-13.062v-0.467c0-9.439,0-18.88,0-28.32v-0.171l4.46,2.462
	c6.605,3.464,12.95,7.189,19.54,10.669C76.775,45.129,76.775,45.169,76.775,45.208z M78.214,41.731
	c-8.021-3.898-15.299-8.541-23.279-12.48c7.197-4.564,15.748-9.053,23.039-12.72c7.892,3.949,15.341,8.34,23.04,12.48
	C93.607,33.442,85.777,37.454,78.214,41.731z M79.896,73.979v-0.328c0.018-5.191-0.018-10.436,0-15.625V45.208l23.403-13.249v28.958
	L79.896,73.979z"/>
<path fill="#333333" d="M133.193,75.665c-9.054-5.426-18.357-10.601-28.08-15.36C95.816,64.607,85.93,70.4,76.794,75.665
	c-0.046,12.341-0.06,21.94,0,34.08c9.497,5.463,18.98,10.938,28.799,16.08c9.203-5.229,18.738-10.122,27.6-15.692V75.665z
	 M103.914,92.583c0,9.4,0,18.802,0,28.202v0.569l-24-13.063v-0.467c0-9.439,0-18.88,0-28.32v-0.171l4.46,2.462
	c6.605,3.464,12.949,7.189,19.539,10.669C103.914,92.504,103.914,92.544,103.914,92.583z M105.354,89.105
	c-8.021-3.898-15.3-8.541-23.279-12.48c7.196-4.564,15.747-9.053,23.039-12.72c7.893,3.949,15.342,8.34,23.04,12.48
	C120.746,80.816,112.916,84.828,105.354,89.105z M107.035,121.354v-0.329c0.017-5.19-0.019-10.435,0-15.625V92.583l23.402-13.249
	v28.958L107.035,121.354z"/>
</svg>
