<?xml version="1.0" encoding="utf-8"?>
<!-- Generator: Adobe Illustrator 14.0.0, SVG Export Plug-In . SVG Version: 6.00 Build 43363)  -->
<!DOCTYPE svg PUBLIC "-//W3C//DTD SVG 1.1//EN" "http://www.w3.org/Graphics/SVG/1.1/DTD/svg11.dtd">
<svg version="1.1" id="图层_1" xmlns="http://www.w3.org/2000/svg" xmlns:xlink="http://www.w3.org/1999/xlink" x="0px" y="0px"
	 width="200px" height="200px" viewBox="0 0 200 200" enable-background="new 0 0 200 200" xml:space="preserve">
<g>
	<path fill="none" stroke="#000000" stroke-width="5" d="M141.392,171.058c0,3.094-2.619,5.602-5.851,5.602H64.458
		c-3.231,0-5.851-2.508-5.851-5.602V30.443c0-3.094,2.619-5.603,5.851-5.603h71.083c3.231,0,5.851,2.508,5.851,5.603V171.058z"/>
	<path d="M122.223,27.437c0,2.262-1.547,4.095-3.456,4.095H81.233c-1.909,0-3.457-1.833-3.457-4.095l0,0
		c0-2.262,1.548-4.096,3.457-4.096h37.533C120.676,23.341,122.223,25.174,122.223,27.437L122.223,27.437z"/>
	<line fill="none" stroke="#000000" stroke-width="3" stroke-linecap="round" x1="78.792" y1="168.761" x2="121.207" y2="168.761"/>
</g>
</svg>
