<?xml version="1.0" encoding="utf-8"?>
<!-- Generator: Adobe Illustrator 14.0.0, SVG Export Plug-In . SVG Version: 6.00 Build 43363)  -->
<!DOCTYPE svg PUBLIC "-//W3C//DTD SVG 1.1//EN" "http://www.w3.org/Graphics/SVG/1.1/DTD/svg11.dtd">
<svg version="1.1" id="Layer_1" xmlns="http://www.w3.org/2000/svg" xmlns:xlink="http://www.w3.org/1999/xlink" x="0px" y="0px"
	 width="144.525px" height="190.491px" viewBox="306.229 428.035 144.525 190.491"
	 enable-background="new 306.229 428.035 144.525 190.491" xml:space="preserve">
<path fill="#666666" d="M412.552,503.695c2.369,0,4.207,2.068,3.928,4.42l-2.466,20.789c-0.236,1.991-1.923,3.49-3.927,3.49h-22.275
	l-0.109,64.496h-28.131l0.112-64.496h-16.759c-2.177,0-3.944-1.762-3.953-3.939l-0.079-20.79c-0.009-2.19,1.765-3.97,3.954-3.97
	h16.725v-20.09c0-23.311,14.238-36.004,35.035-36.004h17.063c2.185,0,3.953,1.77,3.953,3.953v17.53c0,2.183-1.767,3.951-3.95,3.954
	l-10.473,0.006c-11.31,0-13.498,5.373-13.498,13.259v17.392H412.552z"/>
</svg>
