<?xml version="1.0" encoding="utf-8"?>
<!-- Generator: Adobe Illustrator 14.0.0, SVG Export Plug-In . SVG Version: 6.00 Build 43363)  -->
<!DOCTYPE svg PUBLIC "-//W3C//DTD SVG 1.1//EN" "http://www.w3.org/Graphics/SVG/1.1/DTD/svg11.dtd">
<svg version="1.1" id="Layer_1" xmlns="http://www.w3.org/2000/svg" xmlns:xlink="http://www.w3.org/1999/xlink" x="0px" y="0px"
	 width="170px" height="167px" viewBox="74.139 235.445 170 167" enable-background="new 74.139 235.445 170 167"
	 xml:space="preserve">
<path fill="#666666" d="M104.001,241.718c11.479,0,20.78,9.304,20.78,20.78c0,11.474-9.302,20.78-20.78,20.78
	c-11.477,0-20.778-9.307-20.778-20.78C83.222,251.021,92.524,241.718,104.001,241.718z"/>
<path fill="#666666" d="M120.08,297.062v91.69c0,2.84-2.302,5.139-5.142,5.139H93.066c-2.84,0-5.139-2.299-5.139-5.139v-91.69
	c0-2.84,2.299-5.14,5.139-5.14h21.872C117.778,291.921,120.08,294.222,120.08,297.062z"/>
<path fill="#666666" d="M234.39,344.789v44.379c0,2.608-2.116,4.723-4.726,4.723h-23.473c-2.609,0-4.724-2.114-4.724-4.723v-43.013
	c0-6.413,1.881-28.115-16.768-28.115c-14.467,0-17.402,14.854-17.989,21.521v49.606c0,2.608-2.114,4.723-4.726,4.723h-22.701
	c-2.609,0-4.726-2.114-4.726-4.723v-92.524c0-2.607,2.116-4.723,4.726-4.723h22.701c2.611,0,4.726,2.116,4.726,4.723v8.001
	c5.365-8.051,13.337-14.264,30.309-14.264C234.603,290.382,234.39,325.497,234.39,344.789z"/>
</svg>
