<?xml version="1.0" encoding="utf-8"?>
<!-- Generator: Adobe Illustrator 14.0.0, SVG Export Plug-In . SVG Version: 6.00 Build 43363)  -->
<!DOCTYPE svg PUBLIC "-//W3C//DTD SVG 1.1//EN" "http://www.w3.org/Graphics/SVG/1.1/DTD/svg11.dtd">
<svg version="1.1" xmlns="http://www.w3.org/2000/svg" xmlns:xlink="http://www.w3.org/1999/xlink" x="0px" y="0px" width="230px"
	 height="186px" viewBox="0 0 230 186" enable-background="new 0 0 230 186" xml:space="preserve">
<g id="图层_2">
</g>
<g id="图层_3">
	<path fill="#FFFFFF" d="M186.188,94c11.193-26.787,20.377-49.91,27.551-69.365c1.178-3.184,2.113-5.176,2.807-5.969
		c0.702-0.797,1.889-1.196,3.552-1.196c1.387,0,2.582,0.347,3.587,1.04c1.014,0.693,1.517,1.525,1.517,2.495
		c0,0.901-2.703,7.485-8.101,19.753l-6.03,13.516l-51.626,117.062l-25.688-48.285l-20.169-35.929l-15.906,29.076l-24.215,45.379
		l-4.99,9.76L48.393,121.85L30.712,78.913C21.961,57.358,13.54,37.986,5.423,20.797l-0.624-1.352h65.038l8.958,22.859
		c9.148,22.859,16.408,40.004,21.745,51.435l19.26-35.33l7.078-13.303l4.791-8.936l8.014-14.962
		c1.247-2.421,2.426-4.604,3.543-6.545l15.396,30.011C167.501,61.638,176.693,78.077,186.188,94z"/>
</g>
</svg>
