<?xml version="1.0" encoding="utf-8"?>
<!-- Generator: Adobe Illustrator 14.0.0, SVG Export Plug-In . SVG Version: 6.00 Build 43363)  -->
<!DOCTYPE svg PUBLIC "-//W3C//DTD SVG 1.1//EN" "http://www.w3.org/Graphics/SVG/1.1/DTD/svg11.dtd">
<svg version="1.1" id="图层_1" xmlns="http://www.w3.org/2000/svg" xmlns:xlink="http://www.w3.org/1999/xlink" x="0px" y="0px"
	 width="282px" height="224px" viewBox="0 0 282 224" enable-background="new 0 0 282 224" xml:space="preserve">
<g id="图层_1_1_" display="none">
	
		<image display="inline" overflow="visible" enable-background="new    " width="300" height="250" xlink:href="Beepo Website Icons - Business Services-09.png"  transform="matrix(1.474 0 0 1.474 -89.5005 -101.5)">
	</image>
</g>
<circle cx="197.5" cy="106" r="41.5"/>
<path fill="none" stroke="#000000" stroke-width="6" d="M111.25,187.518c-47.635,0-86.25-38.615-86.25-86.25
	s38.615-86.25,86.25-86.25c28.333,0,53.475,13.661,69.197,34.756"/>
<path fill-rule="evenodd" clip-rule="evenodd" d="M253.583,224c-0.096-14.923-1.313-28.474-6.35-38.691
	c-8.484-17.209-24.674-30.888-50.225-30.75c-24.314,0.131-41.036,13.298-49.884,31.434c-5.055,10.361-5.822,23.481-5.702,38.008
	H253.583z"/>
</svg>
