<?xml version="1.0" encoding="utf-8"?>
<!-- Generator: Adobe Illustrator 14.0.0, SVG Export Plug-In . SVG Version: 6.00 Build 43363)  -->
<!DOCTYPE svg PUBLIC "-//W3C//DTD SVG 1.1//EN" "http://www.w3.org/Graphics/SVG/1.1/DTD/svg11.dtd">
<svg version="1.1" id="图层_2" xmlns="http://www.w3.org/2000/svg" xmlns:xlink="http://www.w3.org/1999/xlink" x="0px" y="0px"
	 width="210.14px" height="213.445px" viewBox="0 0 210.14 213.445" enable-background="new 0 0 210.14 213.445"
	 xml:space="preserve">
<path fill="#84B8CE" d="M203.14,24.941c0,4.697-3.809,8.504-8.504,8.504H16.644c-4.697,0-8.504-3.807-8.504-8.504v-2.992
	c0-4.697,3.807-8.504,8.504-8.504h177.992c4.695,0,8.504,3.807,8.504,8.504V24.941z"/>
<path fill="#84B8CE" d="M15.14,40.445v86.195c0,7.07,4.369,12.805,9.758,12.805h67.226L45.48,186.088
	c-2.773,2.772-2.773,7.27,0,10.041l1.767,1.769c2.773,2.772,7.269,2.772,10.042,0l40.184-40.186v34.351
	c0,4.05,3.283,7.333,7.333,7.333c4.05,0,7.333-3.283,7.333-7.333v-34.31l40.144,40.145c2.773,2.771,7.271,2.772,10.043,0
	l1.766-1.769c2.773-2.771,2.773-7.269,0-10.042l-46.644-46.643h66.935c5.39,0,9.758-5.733,9.758-12.805V40.445H15.14z"/>
</svg>
