<?xml version="1.0" encoding="utf-8"?>
<!-- Generator: Adobe Illustrator 14.0.0, SVG Export Plug-In . SVG Version: 6.00 Build 43363)  -->
<!DOCTYPE svg PUBLIC "-//W3C//DTD SVG 1.1//EN" "http://www.w3.org/Graphics/SVG/1.1/DTD/svg11.dtd">
<svg version="1.1" xmlns="http://www.w3.org/2000/svg" xmlns:xlink="http://www.w3.org/1999/xlink" x="0px" y="0px" width="500px"
	 height="500px" viewBox="0 0 500 500" enable-background="new 0 0 500 500" xml:space="preserve">
<g id="Layer_1">
	
		<line fill="#666666" stroke="#666666" stroke-width="10" stroke-linecap="round" stroke-linejoin="round" stroke-miterlimit="2.6131" x1="133.661" y1="126.169" x2="233.206" y2="126.169"/>
	
		<path fill="#666666" stroke="#666666" stroke-width="10" stroke-linecap="round" stroke-linejoin="round" stroke-miterlimit="2.6131" d="
		M233.206,126.169c7.22,0,13.136,5.94,13.136,13.112"/>
	
		<line fill="#666666" stroke="#666666" stroke-width="10" stroke-linecap="round" stroke-linejoin="round" stroke-miterlimit="2.6131" x1="246.342" y1="139.281" x2="246.342" y2="321.88"/>
	
		<path fill="#666666" stroke="#666666" stroke-width="10" stroke-linecap="round" stroke-linejoin="round" stroke-miterlimit="2.6131" d="
		M246.342,321.88c0,7.185-5.939,13.111-13.136,13.111"/>
	
		<line fill="#666666" stroke="#666666" stroke-width="10" stroke-linecap="round" stroke-linejoin="round" stroke-miterlimit="2.6131" x1="233.206" y1="334.991" x2="89.991" y2="334.991"/>
	
		<path fill="#666666" stroke="#666666" stroke-width="10" stroke-linecap="round" stroke-linejoin="round" stroke-miterlimit="2.6131" d="
		M89.991,334.991c-7.16,0-13.112-5.916-13.112-13.111"/>
	
		<polyline fill="none" stroke="#666666" stroke-width="10" stroke-linecap="round" stroke-linejoin="round" stroke-miterlimit="2.6131" points="
		76.879,321.88 76.879,178.7 133.661,126.169 	"/>
	
		<line fill="#666666" stroke="#666666" stroke-width="10" stroke-linecap="round" stroke-linejoin="round" stroke-miterlimit="2.6131" x1="136.341" y1="126.169" x2="136.341" y2="173.437"/>
	
		<path fill="#666666" stroke="#666666" stroke-width="10" stroke-linecap="round" stroke-linejoin="round" stroke-miterlimit="2.6131" d="
		M136.341,173.437c0,3.852-3.199,7.039-7.039,7.039"/>
	
		<line fill="#666666" stroke="#666666" stroke-width="10" stroke-linecap="round" stroke-linejoin="round" stroke-miterlimit="2.6131" x1="129.302" y1="180.476" x2="76.879" y2="180.476"/>
	
		<line fill="#666666" stroke="#666666" stroke-width="10" stroke-linecap="round" stroke-linejoin="round" stroke-miterlimit="2.6131" x1="279.772" y1="245.262" x2="455.706" y2="245.262"/>
	
		<path fill="#666666" stroke="#666666" stroke-width="10" stroke-linecap="round" stroke-linejoin="round" stroke-miterlimit="2.6131" d="
		M455.706,245.262c10.674,0,19.294,8.646,19.294,19.293"/>
	
		<line fill="#666666" stroke="#666666" stroke-width="10" stroke-linecap="round" stroke-linejoin="round" stroke-miterlimit="2.6131" x1="475" y1="264.555" x2="475" y2="354.563"/>
	
		<path fill="#666666" stroke="#666666" stroke-width="10" stroke-linecap="round" stroke-linejoin="round" stroke-miterlimit="2.6131" d="
		M475,354.563c0,10.648-8.62,19.27-19.294,19.27"/>
	
		<line fill="#666666" stroke="#666666" stroke-width="10" stroke-linecap="round" stroke-linejoin="round" stroke-miterlimit="2.6131" x1="455.706" y1="373.831" x2="44.293" y2="373.831"/>
	
		<path fill="#666666" stroke="#666666" stroke-width="10" stroke-linecap="round" stroke-linejoin="round" stroke-miterlimit="2.6131" d="
		M44.293,373.831c-10.647,0-19.293-8.62-19.293-19.269"/>
	
		<line fill="#666666" stroke="#666666" stroke-width="10" stroke-linecap="round" stroke-linejoin="round" stroke-miterlimit="2.6131" x1="25" y1="354.563" x2="25" y2="264.555"/>
	
		<path fill="#666666" stroke="#666666" stroke-width="10" stroke-linecap="round" stroke-linejoin="round" stroke-miterlimit="2.6131" d="
		M25,264.555c0-10.647,8.646-19.293,19.293-19.293"/>
	
		<line fill="#666666" stroke="#666666" stroke-width="10" stroke-linecap="round" stroke-linejoin="round" stroke-miterlimit="2.6131" x1="163.349" y1="186.874" x2="163.349" y2="303.673"/>
	
		<line fill="#666666" stroke="#666666" stroke-width="10" stroke-linecap="round" stroke-linejoin="round" stroke-miterlimit="2.6131" x1="163.349" y1="303.673" x2="200.317" y2="266.691"/>
	
		<line fill="#666666" stroke="#666666" stroke-width="10" stroke-linecap="round" stroke-linejoin="round" stroke-miterlimit="2.6131" x1="163.349" y1="303.673" x2="122.903" y2="263.203"/>
</g>
<g id="图层_2">
	<g>
		<path fill="#666666" d="M319.217,285.176c4.117,3.43,6.183,8.741,6.183,15.865c0,7.159-2.125,12.411-6.314,15.743
			c-4.202,3.309-10.637,4.999-19.316,4.999h-10.492v17.324h-9.973v-59.1h20.296C308.568,280.009,315.099,281.747,319.217,285.176
			L319.217,285.176z M312.166,309.589L312.166,309.589c1.992-2.137,2.98-5.239,2.98-9.333c0-4.093-1.255-6.99-3.79-8.681
			c-2.561-1.69-6.507-2.535-11.952-2.535h-10.13v23.688h11.591C306.383,312.729,310.149,311.665,312.166,309.589z"/>
		<path fill="#666666" d="M381.865,287.76c5.699,5.119,8.536,12.315,8.536,21.516c0,9.164-2.766,16.443-8.271,21.805
			c-5.529,5.361-13.979,8.029-25.378,8.029h-19.619v-59.101h20.295C368.029,280.009,376.178,282.568,381.865,287.76L381.865,287.76z
			 M380.344,309.518L380.344,309.518c0-13.522-7.764-20.309-23.254-20.309h-9.973v40.52h11.071c7.146,0,12.641-1.703,16.455-5.097
			C378.449,321.203,380.344,316.182,380.344,309.518z"/>
		<polygon fill="#666666" points="413.219,289.307 413.219,305.544 439.443,305.544 439.443,314.756 413.219,314.756 
			413.219,339.107 403.247,339.107 403.247,280.009 442.655,280.009 442.57,289.307 		"/>
	</g>
</g>
</svg>
