<?xml version="1.0" encoding="utf-8"?>
<!-- Generator: Adobe Illustrator 14.0.0, SVG Export Plug-In . SVG Version: 6.00 Build 43363)  -->
<!DOCTYPE svg PUBLIC "-//W3C//DTD SVG 1.1//EN" "http://www.w3.org/Graphics/SVG/1.1/DTD/svg11.dtd">
<svg version="1.1" id="图层_1" xmlns="http://www.w3.org/2000/svg" xmlns:xlink="http://www.w3.org/1999/xlink" x="0px" y="0px"
	 width="22px" height="22px" viewBox="0 0 22 22" enable-background="new 0 0 22 22" xml:space="preserve">
<path fill="none" stroke="#EA6A6A" stroke-width="0.75" d="M7.196,5.863C7.103,5.828,6.938,5.726,6.883,5.646
	c-0.054-0.079-0.065-0.173-0.08-0.259c0.002-0.028,0-0.057-0.005-0.086C6.81,4.915,7.045,4.54,7.328,4.167
	C7.34,4.154,7.353,4.142,7.365,4.13c0.398-0.483,0.908-0.934,1.37-1.313c0.026-0.031,0.053-0.039,0.079-0.069
	c0.013,0.005,0.024-0.022,0.037-0.03c0.015,0.004,0.027-0.024,0.041-0.033c0.521-0.398,1.042-0.766,1.565-1.103
	c0.689,1.076,1.396,2.152,2.256,3.237c-0.006,0.016,0.04,0.033,0.034,0.049c0.157,0.196,0.376,0.431,0.58,0.595
	c0.001-0.001,0.002-0.003,0.003-0.005c0.318,0.272,0.632,0.43,0.938,0.462c0.002,0.003,0.006,0.006,0.008,0.009
	c0.062,0.007,0.121,0.009,0.183,0.009c0.003-0.002,0.005-0.005,0.007-0.007c0.278-0.001,0.553-0.106,0.817-0.32
	c0.016,0.008,0.028-0.037,0.046-0.028c0.173-0.132,0.341-0.321,0.471-0.488c0.012-0.029,0.053-0.057,0.063-0.087
	c0.26-0.32,0.47-0.643,0.717-0.963c0.013-0.013,0.025-0.024,0.038-0.037c0.065-0.071,0.118-0.144,0.188-0.214
	c0.162-0.133,0.322-0.232,0.498-0.31c0.146-0.063,0.362-0.147,0.514-0.105c0.181,0.05,0.35,0.159,0.529,0.271
	c0.178,0.109,0.362,0.234,0.541,0.378c0.014,0.014,0.028,0.027,0.041,0.041c0.135,0.117,0.277,0.257,0.4,0.394
	c0.015,0.014,0.027,0.027,0.042,0.041c0.239,0.303,0.383,0.6,0.416,0.892c-0.001,0.055,0.002,0.11,0.009,0.165
	c-0.01,0.249-0.063,0.495-0.238,0.734c-0.013,0.012-0.024,0.024-0.037,0.037c-0.08,0.08-0.158,0.16-0.237,0.23
	c-0.013,0.012-0.024,0.024-0.037,0.036c-0.521,0.393-1.05,0.591-1.567,0.989c-0.017-0.009-0.027,0.037-0.046,0.029
	c-0.091,0.067-0.188,0.159-0.26,0.252c0.008,0.016-0.037,0.029-0.029,0.046c-0.153,0.197-0.22,0.4-0.21,0.607
	c-0.008,0.027-0.007,0.057,0.006,0.086c0.021,0.279,0.166,0.564,0.408,0.855c-0.006,0.016,0.041,0.033,0.034,0.049
	c0.144,0.176,0.349,0.377,0.521,0.521c0.016-0.003,2.998,2.502,3.004,2.508c-2.502,2.502-5,5.002-7.502,7.502
	c-1.076,1.076-2.939,0.978-4.14-0.224c-2.844-2.844-5.688-5.688-8.531-8.53c0.001-0.001,0.003-0.003,0.003-0.004
	c0.602-0.695,1.182-1.39,1.776-2.089c0.197-0.232,0.389-0.474,0.633-0.667c0.271-0.223,0.547-0.37,0.828-0.391
	c0.039,0.006,0.08,0.008,0.118,0.007C4.644,8.8,4.445,8.453,4.787,9.111C5.262,9.66,6.636,9.948,7.514,9.14
	C8.392,8.331,8.9,7.408,8.645,6.75C8.383,6.096,7.821,6.103,7.196,5.863z"/>
</svg>
