<?xml version="1.0" encoding="utf-8"?>
<!-- Generator: Adobe Illustrator 14.0.0, SVG Export Plug-In . SVG Version: 6.00 Build 43363)  -->
<!DOCTYPE svg PUBLIC "-//W3C//DTD SVG 1.1//EN" "http://www.w3.org/Graphics/SVG/1.1/DTD/svg11.dtd">
<svg version="1.1" id="图层_1" xmlns="http://www.w3.org/2000/svg" xmlns:xlink="http://www.w3.org/1999/xlink" x="0px" y="0px"
	 width="22px" height="22px" viewBox="0 0 22 22" enable-background="new 0 0 22 22" xml:space="preserve">
<g opacity="0.3">
	<path fill="#F1595B" d="M13.575,20.046c2.5-2.5,5-5,7.5-7.502c-0.007-0.006-0.014-0.014-0.021-0.02
		c-0.001,0-0.002,0.002-0.004,0.004c-0.016,0.002-0.033-0.031-0.049-0.043c-0.015-0.01-0.031-0.039-0.046-0.037
		s-0.033-0.031-0.049-0.041c-0.015-0.012-0.031-0.041-0.045-0.037c-0.011,0-0.021-0.014-0.032-0.025
		c-0.279-0.087-0.62-0.132-1.033-0.132c-5.68,0-4.849,3.085-9.421,3.085s-4.341-3.085-8.553-3.085
		c2.537,2.536,5.074,5.073,7.611,7.61C10.634,21.022,12.497,21.122,13.575,20.046z"/>
</g>
<path opacity="0.3" fill="#F1595B" d="M13.548,20.046c1.628-1.631,3.259-3.26,4.887-4.889c-2.755-0.602-3.091-2.944-6.794-2.944
	c-3.777,0-2.773,2.183-7.177,2.667c1.647,1.646,3.296,3.295,4.943,4.943C10.607,21.022,12.47,21.122,13.548,20.046z"/>
<path fill="none" stroke="#F1595B" d="M7.196,5.863C7.103,5.828,6.938,5.726,6.883,5.646c-0.054-0.079-0.065-0.173-0.08-0.259
	c0.002-0.028,0-0.057-0.005-0.086C6.81,4.915,7.045,4.54,7.328,4.167C7.34,4.154,7.353,4.142,7.365,4.13
	c0.398-0.483,0.908-0.934,1.37-1.313c0.026-0.031,0.053-0.039,0.079-0.069c0.013,0.005,0.024-0.022,0.037-0.03
	c0.015,0.004,0.027-0.024,0.041-0.033c0.521-0.398,1.042-0.766,1.565-1.103c0.689,1.076,1.396,2.152,2.256,3.237
	c-0.006,0.016,0.04,0.033,0.034,0.049c0.157,0.196,0.376,0.431,0.58,0.595c0.001-0.001,0.002-0.003,0.003-0.005
	c0.319,0.272,0.632,0.43,0.938,0.462c0.002,0.003,0.006,0.006,0.008,0.009c0.06,0.007,0.12,0.009,0.181,0.009
	c0.003-0.002,0.005-0.005,0.007-0.007c0.278-0.001,0.551-0.106,0.817-0.32c0.016,0.008,0.029-0.037,0.046-0.028
	c0.173-0.132,0.341-0.321,0.471-0.488c0.011-0.029,0.051-0.057,0.062-0.087c0.259-0.32,0.469-0.643,0.716-0.963
	c0.013-0.013,0.025-0.024,0.038-0.037c0.066-0.071,0.118-0.144,0.188-0.214c0.163-0.133,0.323-0.232,0.499-0.31
	c0.146-0.063,0.362-0.147,0.513-0.105c0.18,0.05,0.349,0.159,0.53,0.271c0.178,0.109,0.362,0.234,0.541,0.378
	c0.014,0.014,0.028,0.027,0.041,0.041c0.135,0.117,0.277,0.257,0.4,0.394c0.015,0.014,0.027,0.027,0.042,0.041
	c0.239,0.303,0.383,0.6,0.416,0.892c-0.001,0.055,0.002,0.11,0.009,0.165c-0.01,0.249-0.063,0.495-0.239,0.734
	c-0.012,0.012-0.024,0.024-0.036,0.037c-0.08,0.08-0.159,0.16-0.239,0.23c-0.012,0.012-0.024,0.024-0.037,0.036
	c-0.52,0.393-1.048,0.591-1.567,0.989c-0.017-0.009-0.028,0.037-0.046,0.029c-0.091,0.067-0.19,0.159-0.26,0.252
	c0.008,0.016-0.037,0.029-0.029,0.046c-0.155,0.197-0.22,0.4-0.21,0.607c-0.008,0.027-0.007,0.057,0.005,0.086
	c0.021,0.279,0.167,0.564,0.409,0.855c-0.006,0.016,0.041,0.033,0.034,0.049c0.142,0.176,0.348,0.377,0.521,0.521
	c0.015-0.003,0.029,0.027,0.045,0.037c0.017,0.011,0.033,0.043,0.05,0.042c0.014-0.003,0.029,0.028,0.045,0.037
	c0.016,0.012,0.033,0.044,0.048,0.042c0.015-0.003,0.031,0.027,0.047,0.037c0.016,0.013,0.033,0.044,0.048,0.042
	c0.015-0.003,0.031,0.028,0.046,0.038c0.016,0.012,0.033,0.044,0.049,0.042c0.03,0.018,0.06,0.045,0.09,0.075
	c0.017,0.012,0.034,0.043,0.05,0.042c0.014-0.003,0.03,0.026,0.045,0.038c0.016,0.011,0.033,0.042,0.049,0.041
	c0.015-0.003,0.03,0.027,0.045,0.038c0.017,0.011,0.034,0.042,0.05,0.042c0.015-0.004,0.03,0.026,0.045,0.037
	c0.017,0.012,0.034,0.043,0.05,0.042c0.015-0.003,0.029,0.027,0.045,0.037c0.016,0.012,0.033,0.044,0.049,0.042
	c0.014-0.003,0.03,0.027,0.045,0.038c0.017,0.011,0.034,0.043,0.049,0.042c0.015-0.003,0.03,0.027,0.046,0.037
	c0.016,0.011,0.033,0.044,0.049,0.042c0.014-0.003,0.03,0.027,0.045,0.037c0.017,0.012,0.033,0.044,0.049,0.042
	c0.015-0.003,0.031,0.027,0.046,0.037c0.016,0.013,0.033,0.044,0.049,0.042c0.015-0.003,0.03,0.028,0.045,0.037
	c0.017,0.013,0.034,0.044,0.05,0.043c0.029,0.018,0.06,0.045,0.09,0.075c0.017,0.012,0.033,0.043,0.05,0.042
	c0.014-0.003,0.029,0.026,0.045,0.038c0.016,0.011,0.033,0.042,0.049,0.041c0.015-0.002,0.03,0.027,0.045,0.038
	c0.017,0.011,0.034,0.042,0.05,0.042c0.014-0.003,0.03,0.027,0.045,0.037c0.016,0.011,0.033,0.043,0.049,0.042
	c0.015-0.003,0.03,0.027,0.045,0.037c0.017,0.012,0.033,0.044,0.049,0.042c0.015-0.003,0.031,0.028,0.045,0.037
	c0.018,0.012,0.034,0.044,0.05,0.042c0.015-0.003,0.03,0.028,0.045,0.037c0.018,0.013,0.034,0.044,0.05,0.043
	c0.015-0.004,0.029,0.027,0.045,0.037c0.017,0.013,0.034,0.043,0.049,0.042c0.015-0.003,0.03,0.027,0.045,0.037
	c0.017,0.013,0.034,0.044,0.05,0.043c0.014-0.003,0.03,0.026,0.045,0.037c0.016,0.012,0.034,0.043,0.049,0.042
	c0.03,0.018,0.061,0.045,0.091,0.076c0.016,0.01,0.033,0.041,0.049,0.041c0.014-0.004,0.03,0.027,0.046,0.037
	c0.016,0.012,0.033,0.043,0.048,0.043c0.015-0.004,0.031,0.027,0.046,0.037c0.016,0.012,0.033,0.043,0.049,0.041
	c0.015-0.002,0.031,0.027,0.045,0.039c0.017,0.011,0.033,0.042,0.05,0.042c0.015-0.004,0.029,0.025,0.045,0.037
	c0.017,0.01,0.033,0.043,0.05,0.041c0.014-0.002,0.029,0.027,0.044,0.037c0.018,0.012,0.034,0.045,0.05,0.043
	c0.001-0.002,0.002-0.004,0.003-0.004c0.008,0.006,0.015,0.014,0.021,0.02c-2.501,2.502-5,5.002-7.501,7.502
	c-1.077,1.076-2.94,0.977-4.14-0.223c-2.844-2.844-5.688-5.688-8.531-8.531c0.001-0.001,0.003-0.003,0.003-0.004
	c0.602-0.695,1.182-1.39,1.776-2.089c0.197-0.232,0.389-0.474,0.633-0.667c0.271-0.223,0.547-0.37,0.828-0.391
	c0.039,0.006,0.08,0.008,0.118,0.007c0.363,0.655,0.164,0.308,0.506,0.966c0.475,0.549,1.849,0.837,2.727,0.029
	c0.878-0.809,1.386-1.732,1.131-2.39C8.383,6.096,7.821,6.103,7.196,5.863z"/>
</svg>
