<?xml version="1.0" encoding="utf-8"?>
<!-- Generator: Adobe Illustrator 14.0.0, SVG Export Plug-In . SVG Version: 6.00 Build 43363)  -->
<!DOCTYPE svg PUBLIC "-//W3C//DTD SVG 1.1//EN" "http://www.w3.org/Graphics/SVG/1.1/DTD/svg11.dtd">
<svg version="1.1" id="Capa_1" xmlns="http://www.w3.org/2000/svg" xmlns:xlink="http://www.w3.org/1999/xlink" x="0px" y="0px"
	 width="200px" height="200px" viewBox="0 0 200 200" enable-background="new 0 0 200 200" xml:space="preserve">
<path fill="none" stroke="#EA6A6A" stroke-width="5" stroke-linecap="round" stroke-linejoin="round" d="M82.845,118.625
	c0-23.402,22.442-42.375,50.125-42.375c1.271,0,2.527,0.054,3.775,0.132C133.526,51.293,108.01,31.75,77,31.75
	c-33.19,0-60.096,22.386-60.096,50c0,16.543,9.663,31.203,24.542,40.305l-6.878,18.101l19.692-12.12
	c7.016,2.389,14.69,3.715,22.739,3.715c2.756,0,5.464-0.168,8.122-0.467C83.644,127.285,82.845,123.034,82.845,118.625z"/>
<path fill="none" stroke="#EA6A6A" stroke-width="5" stroke-linecap="round" stroke-linejoin="round" d="M183.096,118.625
	c0-23.402-22.442-42.375-50.125-42.375c-27.684,0-50.125,18.973-50.125,42.375c0,23.403,22.442,42.375,50.125,42.375
	c6.875,0,13.427-1.173,19.393-3.291l15.732,10.541l-5.412-15.502C175.062,145.032,183.096,132.624,183.096,118.625z"/>
<circle fill="#EA6A6A" stroke="#EA6A6A" cx="56.47" cy="63.658" r="7.625"/>
<circle fill="#EA6A6A" stroke="#EA6A6A" cx="97.72" cy="63.658" r="7.625"/>
<circle fill="#EA6A6A" stroke="#EA6A6A" cx="117.97" cy="104.975" r="5.975"/>
<circle fill="#EA6A6A" stroke="#EA6A6A" cx="150.595" cy="104.975" r="5.975"/>
</svg>
