<?xml version="1.0" encoding="utf-8"?>
<!-- Generator: Adobe Illustrator 14.0.0, SVG Export Plug-In . SVG Version: 6.00 Build 43363)  -->
<!DOCTYPE svg PUBLIC "-//W3C//DTD SVG 1.1//EN" "http://www.w3.org/Graphics/SVG/1.1/DTD/svg11.dtd">
<svg version="1.1" id="图层_1" xmlns="http://www.w3.org/2000/svg" xmlns:xlink="http://www.w3.org/1999/xlink" x="0px" y="0px"
	 width="22px" height="22px" viewBox="0 0 22 22" enable-background="new 0 0 22 22" xml:space="preserve">
<path fill-rule="evenodd" clip-rule="evenodd" fill="none" stroke="#EA6A6A" d="M10.509,0.852c2.579-0.179,4.5,0.905,5.79,2.095
	c1.253,1.157,2.344,3.099,2.344,5.515c0,1.634-0.484,2.918-1.13,3.97c-1.595,2.6-3.29,5.1-5.019,7.692
	c-0.429,0.643-0.705,1.38-1.626,1.295c-0.577-0.052-0.876-0.545-1.186-1.02c-1.48-2.271-2.904-4.431-4.356-6.672
	c-0.604-0.935-1.185-1.677-1.571-2.813c-0.401-1.183-0.505-2.611-0.275-3.86c0.539-2.92,2.491-5.012,5.127-5.873
	C9.177,0.997,9.857,0.897,10.509,0.852z M9.82,4.16C8.262,4.595,6.927,5.983,6.787,7.8c-0.13,1.689,0.523,2.725,1.351,3.501
	c0.697,0.653,1.679,1.135,2.868,1.13c2.249-0.009,4.058-1.674,4.19-3.999c0.069-1.232-0.476-2.345-1.075-3.004
	c-0.758-0.833-1.908-1.53-3.557-1.379C10.332,4.071,10.026,4.104,9.82,4.16z"/>
</svg>
