<?xml version="1.0" encoding="UTF-8"?>
<svg width="24px" height="20px" viewBox="0 0 24 20" version="1.1" xmlns="http://www.w3.org/2000/svg" xmlns:xlink="http://www.w3.org/1999/xlink">
    <!-- Generator: Sketch 47.1 (45422) - http://www.bohemiancoding.com/sketch -->
    <title>Path 11 Copy</title>
    <desc>Created with Sketch.</desc>
    <defs></defs>
    <g id="Page-1" stroke="none" stroke-width="1" fill="none" fill-rule="evenodd">
        <g id="coffee-1" transform="translate(-170.000000, -512.000000)" stroke="#907A47" fill="#907A47">
            <g id="Path-11-Copy" transform="translate(171.000000, 512.000000)">
                <path d="M17.8170674,3.77979619 C15.4798443,3.61978286 11.8170674,3.77979619 7.81706739,8.77979619 C3.81706739,13.7797962 2.81706739,20.7797962 3.81706739,20.7797962 C4.81706739,20.7797962 20.8170674,6.77979619 20.8170674,5.77979619 C20.8170674,4.77979619 20.1542905,3.93980951 17.8170674,3.77979619 Z" transform="translate(12.136727, 12.261671) scale(-1, 1) rotate(-102.000000) translate(-12.136727, -12.261671) "></path>
                <path d="M14.7945879,0.478869733 C12.4573648,0.318856408 8.79458788,0.478869733 4.79458788,5.47886973 C0.794587879,10.4788697 -0.205412121,17.4788697 0.794587879,17.4788697 C1.79458788,17.4788697 17.7945879,3.47886973 17.7945879,2.47886973 C17.7945879,1.47886973 17.1318109,0.638883058 14.7945879,0.478869733 Z" transform="translate(9.114248, 8.960745) rotate(3.000000) translate(-9.114248, -8.960745) "></path>
            </g>
        </g>
    </g>
</svg>