<?xml version="1.0" encoding="utf-8"?>
<!-- Generator: Adobe Illustrator 16.0.0, SVG Export Plug-In . SVG Version: 6.00 Build 0)  -->
<!DOCTYPE svg PUBLIC "-//W3C//DTD SVG 1.1//EN" "http://www.w3.org/Graphics/SVG/1.1/DTD/svg11.dtd">
<svg version="1.1" id="Layer_1" xmlns="http://www.w3.org/2000/svg" xmlns:xlink="http://www.w3.org/1999/xlink" x="0px" y="0px"
	 width="20px" height="26.163px" viewBox="0 0 20 26.163" enable-background="new 0 0 20 26.163" xml:space="preserve">
<title>good</title>
<desc>Created with Sketch.</desc>
<g id="Page-1">
	<g id="coffee-detail" transform="translate(-413.000000, -439.000000)">
		<g id="Group-3" transform="translate(375.000000, 233.000000)">
			<g>
				<path fill="#FFFFFF" d="M43.817,223.286c0,2.54-0.002,5.079,0.001,7.618c0.001,0.974,0.276,1.243,1.25,1.243
					c3.799,0.002,7.598-0.021,11.397,0.016c1.044,0.01,1.411-0.348,1.401-1.415c-0.021-2.6-0.007-5.199-0.007-7.799
					c0-2.399,0.005-4.799-0.003-7.198c-0.003-0.988-0.312-1.286-1.283-1.287c-1.199,0-2.399,0-3.599,0
					c-1.204,0-1.49-0.37-1.216-1.551c0.293-1.26,0.68-2.505,0.438-3.832c-0.226-1.239-0.646-2.346-1.881-2.908
					c-0.205-0.093-0.636-0.093-0.725,0.033c-0.405,0.572-0.837,1.167-1.058,1.822c-0.634,1.882-1.177,3.795-1.744,5.7
					c-0.172,0.579-0.55,0.792-1.127,0.739c-0.198-0.019-0.4-0.003-0.6-0.003c-0.914,0.002-1.246,0.334-1.246,1.264
					C43.815,218.248,43.817,220.767,43.817,223.286z M42.136,223.327c0-1.239,0-2.479,0-3.719c0-1.379,0.01-2.759-0.008-4.138
					c-0.011-0.809-0.255-1.035-1.038-1.041c-0.58-0.004-1.16,0.014-1.739-0.004c-0.551-0.017-0.784,0.31-0.89,0.776
					c-0.039,0.172-0.023,0.358-0.023,0.538c-0.001,5.018-0.001,10.037,0,15.055c0,0.159-0.009,0.321,0.014,0.479
					c0.076,0.533,0.329,0.885,0.927,0.876c0.5-0.007,1.001-0.027,1.499,0.006c0.899,0.06,1.27-0.242,1.263-1.27
					C42.125,228.365,42.136,225.847,42.136,223.327z"/>
				<path fill-rule="evenodd" clip-rule="evenodd" fill="#01A862" d="M43.817,223.286c0-2.52-0.001-5.039,0.001-7.558
					c0-0.929,0.333-1.262,1.246-1.264c0.2,0,0.401-0.016,0.6,0.003c0.577,0.053,0.955-0.161,1.127-0.739
					c0.567-1.905,1.109-3.818,1.744-5.7c0.221-0.655,0.652-1.25,1.058-1.822c0.089-0.125,0.52-0.126,0.725-0.033
					c1.235,0.562,1.655,1.669,1.881,2.908c0.241,1.327-0.146,2.572-0.438,3.832c-0.274,1.181,0.012,1.551,1.216,1.551
					c1.199,0,2.399,0,3.599,0c0.972,0,1.28,0.298,1.283,1.287c0.008,2.399,0.003,4.799,0.003,7.198c0,2.6-0.015,5.199,0.007,7.799
					c0.01,1.067-0.357,1.425-1.401,1.415c-3.799-0.037-7.598-0.014-11.397-0.016c-0.974,0-1.248-0.27-1.25-1.243
					C43.814,228.365,43.817,225.826,43.817,223.286z"/>
				<path fill-rule="evenodd" clip-rule="evenodd" fill="#01A862" d="M42.136,223.327c0,2.52-0.011,5.038,0.005,7.558
					c0.007,1.027-0.364,1.329-1.263,1.27c-0.498-0.033-0.999-0.013-1.499-0.006c-0.598,0.009-0.851-0.343-0.927-0.876
					c-0.023-0.157-0.014-0.319-0.014-0.479c0-5.019,0-10.037,0-15.055c0-0.18-0.016-0.365,0.023-0.538
					c0.105-0.466,0.339-0.792,0.89-0.776c0.579,0.018,1.16,0,1.739,0.004c0.783,0.006,1.027,0.232,1.038,1.041
					c0.018,1.379,0.007,2.759,0.008,4.138C42.137,220.849,42.136,222.088,42.136,223.327z"/>
			</g>
		</g>
	</g>
</g>
</svg>
