<?xml version="1.0" encoding="utf-8"?>
<!-- Generator: Adobe Illustrator 14.0.0, SVG Export Plug-In . SVG Version: 6.00 Build 43363)  -->
<!DOCTYPE svg PUBLIC "-//W3C//DTD SVG 1.1//EN" "http://www.w3.org/Graphics/SVG/1.1/DTD/svg11.dtd">
<svg version="1.1" id="图层_1" xmlns="http://www.w3.org/2000/svg" xmlns:xlink="http://www.w3.org/1999/xlink" x="0px" y="0px"
	 width="226px" height="193px" viewBox="0 0 226 193" enable-background="new 0 0 226 193" xml:space="preserve">
<g>
	<path fill="#999999" stroke="#999999" stroke-width="4" d="M31.286,174.445h163.605c10.16,0,18.426-8.266,18.426-18.426V40.872
		c0-10.16-8.266-18.426-18.426-18.426H31.286c-10.16,0-18.426,8.266-18.426,18.426V156.02
		C12.86,166.18,21.125,174.445,31.286,174.445L31.286,174.445z M24.86,40.872c0-3.547,2.879-6.426,6.426-6.426h163.605
		c3.547,0,6.426,2.879,6.426,6.426V156.02c0,3.547-2.883,6.426-6.426,6.426H31.286c-3.547,0-6.426-2.879-6.426-6.426V40.872z
		 M48.648,153.957h-12V43.441l74.941,48.652c0.879,0.571,2.114,0.571,2.997-0.003l74.941-48.649v110.516h-12V65.54l-56.406,36.617
		c-2.395,1.556-5.172,2.375-8.035,2.375c-2.86,0-5.637-0.819-8.032-2.375L48.648,65.54V153.957z M48.648,153.957"/>
</g>
</svg>
