<?xml version="1.0" encoding="utf-8"?>
<!-- Generator: Adobe Illustrator 14.0.0, SVG Export Plug-In . SVG Version: 6.00 Build 43363)  -->
<!DOCTYPE svg PUBLIC "-//W3C//DTD SVG 1.1//EN" "http://www.w3.org/Graphics/SVG/1.1/DTD/svg11.dtd">
<svg version="1.1" id="图层_1" xmlns="http://www.w3.org/2000/svg" xmlns:xlink="http://www.w3.org/1999/xlink" x="0px" y="0px"
	 width="198.425px" height="198.425px" viewBox="-21.572 -31.268 198.425 198.425"
	 enable-background="new -21.572 -31.268 198.425 198.425" xml:space="preserve">
<path fill="#93841E" d="M125.488,81.249c1.014-1.004,0.708-5.201,0.708-8.261c0-16.012,0-30.219,0-45.554
	c0-3.454,1.111-15.821-0.472-17.938c-1.069-1.431-6.892-0.944-10.857-0.944c-24.813,0-46.44,0-70.81,0
	c-3.797,0-8.878-0.787-11.801,0c-3.355,0.904-2.125,12.406-2.125,17.703c0,12.972,0,25.158,0,37.057
	c0,6.276-0.536,13.111,0.708,17.938c2.164,1.376,6.652,0.429,9.913,0.708c-0.225-1.43-2.521-2.827-2.597-5.192
	c-0.872-0.151-2.351,0.306-2.833-0.236c0.158-20.85-0.314-42.329,0.236-62.785c28.48,0.157,57.592-0.314,85.679,0.236
	c0,20.928,0,41.856,0,62.784c-0.944,0-1.888,0-2.832,0c-0.101,2.203-2.809,4.242-2.597,5.192C119.156,81.4,123.72,83,125.488,81.249
	z M97.872,18.701c-18.23,0-38.962-0.192-56.412,0.236c-1.981,2.881-1.18,7.221-1.18,11.094c0,12.355,0,25.378,0,37.292
	c1.005-0.884,3.73-2.089,5.192-3.304c0-13.454,0-26.907,0-40.361c21.793,0.157,44.217-0.314,65.616,0.236
	c0,13.454,0,26.907,0,40.361c0.811,0.521,1.832,1.032,2.832,1.652c0.894,0.553,1.949,1.605,2.361,1.18c0-7.743,0-16.055,0-24.075
	c0-8.173,0.564-16.449-0.708-23.603C109.994,18.13,103.977,18.701,97.872,18.701z M58.219,71.808c13.454,0,26.908,0,40.361,0
	c0.483-1.743,2.774-4.117,2.596-4.957c-15.342,0.157-31.313-0.315-46.261,0.236C56.554,68.123,56.736,70.615,58.219,71.808z
	 M113.686,74.168c-0.104-6.143-11.03-6.861-10.15,0.943c0.236,2.085,2.009,2.028,2.36,4.013c0.384,2.168-1.659,6.265-3.068,8.497
	c-11.389,18.038-49.338,15.399-52.163-8.733c1.066-1.552,2.35-2.293,2.36-4.484c0.033-6.545-11.316-6.928-10.149,0.944
	c0.272,1.834,2.083,2.064,2.36,4.012c0.235,1.658-1.294,4.792-2.124,6.373c-4.518,8.606-14.264,13.747-25.492,13.925
	c0,1.652,0,3.305,0,4.957c13.405-0.127,21.445-5.619,27.852-12.745c-0.157,8.418,0.315,17.466-0.236,25.491
	c-1.652,0-3.305,0-4.957,0c0,1.652,0,3.304,0,4.957c5.035,0,10.07,0,15.105,0c0-1.652,0-3.305,0-4.957c-1.652,0-3.304,0-4.957,0
	c0-8.497,0-16.994,0-25.491c5.556,6.59,13.96,12.02,24.783,12.745c13.546,0.909,24.502-5.071,30.92-12.51
	c-0.157,8.34,0.314,17.309-0.236,25.255c-1.652,0-3.304,0-4.957,0c0,1.653,0,3.305,0,4.958c5.114,0,10.228,0,15.342,0
	c0-1.653,0-3.305,0-4.958c-1.731,0-3.462,0-5.193,0c0-8.497,0-16.994,0-25.491c6.344,7.188,14.441,12.624,27.852,12.746
	c0-1.652,0-3.305,0-4.957c-15.157-0.972-25.055-7.202-27.616-20.771C112.349,77.638,113.724,76.454,113.686,74.168z M57.983,76.765
	c-0.296,0.096-0.483,0.304-0.472,0.708c-0.143,1.852-2.757,3.657-2.36,4.485c15.5,0,30.999,0,46.498,0
	c-0.843-1.048-2.248-3.573-3.304-5.192C84.891,76.765,71.436,76.765,57.983,76.765z"/>
<path fill="#93841E" d="M115.81,81.957c-0.212-0.951,2.496-2.99,2.597-5.192c0.944,0,1.888,0,2.832,0c0-20.929,0-41.857,0-62.784
	c-28.087-0.551-57.198-0.079-85.679-0.236C35.01,34.2,35.482,55.679,35.324,76.529c0.481,0.542,1.96,0.085,2.833,0.236
	c0.076,2.365,2.372,3.762,2.597,5.192c-3.262-0.279-7.75,0.668-9.913-0.708c-1.245-4.827-0.708-11.663-0.708-17.938
	c0-11.898,0-24.084,0-37.057c0-5.296-1.23-16.798,2.125-17.703c2.923-0.787,8.003,0,11.801,0c24.369,0,45.997,0,70.81,0
	c3.965,0,9.788-0.486,10.857,0.944c1.583,2.118,0.472,14.485,0.472,17.938c0,15.335,0,29.542,0,45.554
	c0,3.061,0.306,7.257-0.708,8.261C123.72,83,119.156,81.4,115.81,81.957z"/>
<path fill="#93841E" d="M115.574,19.409c1.272,7.154,0.708,15.43,0.708,23.603c0,8.021,0,16.333,0,24.076
	c-0.412,0.425-1.466-0.627-2.36-1.18c-1-0.62-2.022-1.132-2.832-1.653c0-13.454,0-26.908,0-40.361
	c-21.4-0.551-43.823-0.079-65.616-0.236c0,13.454,0,26.907,0,40.361c-1.462,1.215-4.187,2.42-5.193,3.304
	c0-11.915,0-24.938,0-37.293c0-3.872-0.801-8.212,1.18-11.093c17.449-0.429,38.182-0.236,56.412-0.236
	C103.977,18.701,109.994,18.13,115.574,19.409z"/>
<path fill="#93841E" d="M54.915,67.087c14.949-0.551,30.919-0.079,46.262-0.236c0.178,0.839-2.113,3.213-2.597,4.957
	c-13.454,0-26.907,0-40.361,0C56.736,70.615,56.554,68.123,54.915,67.087z"/>
<path fill="#93841E" d="M111.326,78.889c2.56,13.569,12.459,19.799,27.615,20.771c0,1.652,0,3.304,0,4.957
	c-13.411-0.121-21.507-5.558-27.852-12.746c0,8.497,0,16.994,0,25.491c1.731,0,3.462,0,5.193,0c0,1.652,0,3.305,0,4.958
	c-5.114,0-10.228,0-15.342,0c0-1.652,0-3.304,0-4.958c1.652,0,3.304,0,4.956,0c0.551-7.946,0.079-16.915,0.236-25.255
	c-6.417,7.439-17.374,13.417-30.92,12.509c-10.822-0.725-19.227-6.155-24.783-12.745c0,8.497,0,16.994,0,25.491
	c1.652,0,3.305,0,4.957,0c0,1.652,0,3.304,0,4.957c-5.035,0-10.071,0-15.106,0c0-1.652,0-3.304,0-4.957c1.652,0,3.305,0,4.957,0
	c0.551-8.025,0.079-17.073,0.236-25.491c-6.407,7.125-14.447,12.618-27.852,12.745c0-1.652,0-3.303,0-4.957
	c11.228-0.178,20.973-5.32,25.492-13.926c0.83-1.581,2.359-4.715,2.124-6.373c-0.277-1.948-2.088-2.177-2.36-4.012
	c-1.167-7.873,10.183-7.489,10.149-0.944c-0.011,2.191-1.293,2.932-2.36,4.484c2.825,24.132,40.773,26.771,52.163,8.733
	c1.409-2.232,3.452-6.329,3.069-8.497c-0.352-1.984-2.125-1.928-2.361-4.013c-0.88-7.805,10.045-7.087,10.15-0.943
	C113.724,76.454,112.349,77.638,111.326,78.889z"/>
<path fill="#93841E" d="M98.344,76.765c1.057,1.62,2.461,4.145,3.304,5.192c-15.499,0-30.999,0-46.498,0
	c-0.397-0.828,2.217-2.633,2.36-4.485c-0.01-0.403,0.176-0.612,0.472-0.708C71.436,76.765,84.891,76.765,98.344,76.765z"/>
</svg>
