<?xml version="1.0" encoding="utf-8"?>
<!-- Generator: Adobe Illustrator 14.0.0, SVG Export Plug-In . SVG Version: 6.00 Build 43363)  -->
<!DOCTYPE svg PUBLIC "-//W3C//DTD SVG 1.1//EN" "http://www.w3.org/Graphics/SVG/1.1/DTD/svg11.dtd">
<svg version="1.1" id="图层_1" xmlns="http://www.w3.org/2000/svg" xmlns:xlink="http://www.w3.org/1999/xlink" x="0px" y="0px"
	 width="198.425px" height="198.425px" viewBox="0 0 198.425 198.425" enable-background="new 0 0 198.425 198.425"
	 xml:space="preserve">
<path fill="#93841E" stroke="#F5F0CF" stroke-width="5" d="M123.519,12.013c2.38,0,4.761,0,7.142,0
	c21.185,3.161,35.703,16.518,35.703,39.274c0,21.545-12.584,35.234-24.695,45.224c12.245,5.754,20.996,15.261,23.802,31.538
	c0.688,3.986,1.872,13.254-0.595,16.066c-2.566,2.928-9.058,1.913-10.414-1.785c-1.538-4.193-0.396-8.998-1.189-13.09
	c-2.145-11.031-8.408-19.924-20.231-22.316c-3.213,1.713-7.516,4.07-13.984,2.976C107.241,107.9,97.105,99.98,88.708,91.75
	C80.02,83.235,72.4,73.377,69.369,62.89c0.287,1.958-2.075,3.82-2.381,5.951c-0.746,5.206,3.804,11.519,6.249,15.174
	c6.055,9.053,11.861,14.93,21.125,21.125c4.325,2.891,9.713,6.795,14.878,6.247c2.167-0.229,3.932-2.116,5.949-2.082
	c3.245,0.054,6.405,3.079,5.951,7.14c-0.591,5.281-7.79,7.605-13.983,7.143c-11.895-0.893-21.676-8.819-30.051-16.365
	c-10.047-9.051-17.42-18.875-21.422-31.836c0.291,3.224-2.074,4.857-2.38,7.141c-0.636,4.741,3.387,10.884,5.951,14.876
	c5.454,8.494,11.712,14.937,20.231,20.827c4.02,2.777,9.458,6.331,13.688,6.844c3.052,0.369,5.885-2.125,8.331-2.082
	c3.703,0.061,6.226,3.264,5.95,6.842c-0.369,4.793-5.575,6.322-9.224,7.439c-10.359,15.592-24.886,33.025-50.878,33.025
	c-22.817,0-36.536-14.688-39.273-36.598c0-1.785,0-3.57,0-5.354c2.704-24.371,16.224-37.926,33.024-48.199
	c-0.275-7.941,11.041-13.341,14.282-5.058c-3.17-9.184,3.117-22.127,11.306-17.257c0.741,0.44,1.106,2.118,1.785,1.488
	c-0.963-7.968,1.096-15.323,8.628-15.769C86.971,27.434,100.435,14.913,123.519,12.013z M154.165,50.989
	c-0.092-16.938-11.973-28.279-30.349-26.778C104.05,25.826,93.328,40.616,84.84,53.964c-2.738,4.307-4.969,7.013-1.488,11.604
	c12-11.879,16.779-33.402,40.167-33.026c13.712,0.221,22.465,9.532,22.315,22.91c-0.251,22.356-21.361,28.229-33.026,39.274
	c1.96,0.816,3.466,2.088,5.951,2.38C134.272,86.621,154.302,76.343,154.165,50.989z M128.875,67.056
	c2.082-2.461,4.058-6.073,4.463-9.521c1.679-14.269-13.565-14.95-21.125-8.926C103.94,55.202,97.63,69.5,90.791,75.982
	c3.192,4.344,6.962,8.113,11.306,11.306C108.609,80.902,122.218,74.927,128.875,67.056z M42.591,93.536
	c-10.331,8.206-23.601,20.092-22.315,39.274c0.971,14.455,11.404,25.29,27.076,25.29c18.942,0,28.933-11.427,37.488-23.208
	c-2.45-0.523-3.943-2.006-6.248-2.678c-5.679,9.252-13.491,17.875-27.968,17.555c-12.462-0.277-21.281-9.725-22.019-20.827
	c-0.874-13.19,8.152-24.151,17.257-29.753c-1.036-1.839-1.52-4.233-2.975-5.653C42.79,93.536,42.69,93.536,42.591,93.536z
	 M52.707,109.305c-2.24,1.995-5.688,3.84-8.034,6.844c-6.586,8.435-4.095,22.958,9.224,21.125c7.285-1.002,11.642-6.802,14.876-12.2
	C62.518,120.718,57.515,115.108,52.707,109.305z"/>
</svg>
