<?xml version="1.0" encoding="utf-8"?>
<!-- Generator: Adobe Illustrator 14.0.0, SVG Export Plug-In . SVG Version: 6.00 Build 43363)  -->
<!DOCTYPE svg PUBLIC "-//W3C//DTD SVG 1.1//EN" "http://www.w3.org/Graphics/SVG/1.1/DTD/svg11.dtd">
<svg version="1.1" id="图层_1" xmlns="http://www.w3.org/2000/svg" xmlns:xlink="http://www.w3.org/1999/xlink" x="0px" y="0px"
	 width="198.425px" height="198.425px" viewBox="-16.572 -12.268 198.425 198.425"
	 enable-background="new -16.572 -12.268 198.425 198.425" xml:space="preserve">
<path fill="#93841E" d="M40.357,13.11c13.195,0,26.391,0,39.587,0c7.255,9.994,12.44,22.058,19.511,32.235
	c11.974,0.186,24.691-0.373,36.194,0.283c6.044,8.119,10.203,16.865,15.552,26.015c1.393,2.38,4.875,6.448,4.808,9.049
	c-0.063,2.364-3.525,6.833-4.808,9.048c-3.725,6.434-6.371,10.953-10.18,17.531c-1.562,2.7-3.634,7.439-5.655,8.201
	c-4.43,1.67-14.51,0.282-19.794,0.282c-2.576,0-6.403,0-9.897,0c-2.605,0-7.775,0.724-9.896-0.282
	c-1.843-0.874-3.46-5.567-4.808-7.917c-4.95-8.638-9.675-16.769-14.704-24.318c-11.974-0.185-24.691,0.374-36.194-0.283
	c-5.336-8.021-10.525-16.997-15.552-25.731c-1.283-2.229-4.604-7.05-4.524-9.332c0.082-2.324,3.324-6.178,4.807-8.766
	C29.605,30.748,34.756,20.364,40.357,13.11z M26.501,47.891c5.687,9.866,11.032,20.072,17.249,29.408c10.934,0,21.867,0,32.801,0
	c5.896-9.561,11.551-19.365,16.966-29.408c-4.032-7.192-8.433-14.295-12.725-21.773c-1.302-2.269-2.817-6.468-4.524-7.069
	c-1.809-0.637-5.812,0-8.201,0c-8.456,0-16.538,0-24.601,0C37.567,28.418,32.371,38.492,26.501,47.891z M82.206,80.692
	c6.038,9.327,10.909,19.819,17.249,28.842c11.028,0,22.056,0,33.083,0c5.805-9.559,11.219-19.509,16.966-29.125
	c-6.073-9.29-10.956-19.771-17.248-28.842c-11.028,0-22.056,0-33.084,0C93.291,61.049,87.868,70.99,82.206,80.692z"/>
<path fill="#93841E" d="M36.681,47.891c1.338,2.095,5.97,9.693,0.282,9.897c-2.588,0.093-6.752-6.921-6.786-9.614
	c-0.025-1.966,1.812-4.528,3.11-6.787c2.104-3.661,4.778-8.24,7.069-12.159c1.191-2.039,2.562-4.646,3.958-5.938
	c9.533-1.668,1.378,9.301-1.131,13.573C40.58,41.297,38.499,44.893,36.681,47.891z"/>
<path fill="#93841E" d="M41.488,60.615c0.313-0.057,1.559-0.136,2.262,0.283c1.432,0.853,5.603,8.081,5.373,10.18
	c-0.218,1.986-2.307,3.124-4.242,2.545c-1.327-0.397-2.256-2.854-3.393-4.807C40.498,67.115,36.645,61.489,41.488,60.615z"/>
<path fill="#93841E" d="M72.309,157.888c-13.196,0-26.392,0-39.587,0c-5.706-7.805-10.41-17.247-15.552-26.015
	c-1.326-2.26-4.823-6.719-4.807-9.048c0.016-2.267,3.529-6.854,4.807-9.049c1.796-3.085,3.606-6.203,5.089-8.766
	c3.674-6.345,6.439-12.322,10.746-17.248c9.63,0,19.861,0,29.69,0c3.04,0,7.845-0.658,9.896,0.282
	c1.857,0.851,4.67,6.974,5.373,8.201c4.052,7.07,5.954,10.993,9.897,17.813c1.396,2.417,4.908,6.283,4.807,9.049
	c-0.082,2.254-3.359,6.244-4.807,8.766C82.625,140.997,78.007,150.265,72.309,157.888z M19.149,123.106
	c5.696,9.574,10.878,19.662,16.966,28.843c11.028,0,22.056,0,33.084,0c5.817-9.547,11.249-19.478,16.966-29.125
	c-5.785-9.579-11.223-19.505-16.966-29.125c-11.028,0-22.056,0-33.084,0C30.161,103.203,24.505,113.005,19.149,123.106z"/>
</svg>
