<?xml version="1.0" encoding="utf-8"?>
<!-- Generator: Adobe Illustrator 14.0.0, SVG Export Plug-In . SVG Version: 6.00 Build 43363)  -->
<!DOCTYPE svg PUBLIC "-//W3C//DTD SVG 1.1//EN" "http://www.w3.org/Graphics/SVG/1.1/DTD/svg11.dtd">
<svg version="1.1" id="图层_1" xmlns="http://www.w3.org/2000/svg" xmlns:xlink="http://www.w3.org/1999/xlink" x="0px" y="0px"
	 width="384px" height="323px" viewBox="0 0 384 323" enable-background="new 0 0 384 323" xml:space="preserve">
<path fill="#C6B191" d="M322.204,107.887c-1.014-0.017-1.917-0.646-2.286-1.59c-19.686-50.396-60.985-83.34-113.309-90.385
	c-5.816-0.783-12.399-1.197-19.036-1.197c-4.206,0-8.427,0.163-12.547,0.483c-53.964,4.199-94.515,34.895-120.526,91.236
	c-0.391,0.846-1.22,1.405-2.151,1.449c-29.821,1.422-43.044,24.663-42.711,45.654c0.333,20.97,14.044,43.753,43.36,44.218
	c1.02,0.017,1.928,0.65,2.294,1.603c16.223,42.168,47.125,70.889,91.848,85.362c0.715,0.232,1.289,0.773,1.561,1.476
	c5.212,13.444,21.686,22.834,40.061,22.834c9.766,0,18.792-2.792,25.417-7.861c2.454-1.877,4.252-4.57,6.155-7.421
	c2.349-3.517,4.776-7.152,8.661-9.515c2.971-1.804,6.456-2.6,9.826-3.37c2.39-0.546,4.647-1.062,6.519-1.889
	c34.21-15.117,59.555-41.926,75.329-79.682c0.375-0.898,1.238-1.497,2.211-1.534c29.806-1.143,43.141-24.376,42.916-45.479
	C365.574,131.253,351.837,108.393,322.204,107.887z M209.995,286.756c-5.797,6.066-13.912,9.546-22.262,9.546
	c-0.001,0-0.001,0-0.002,0c-0.979,0-1.965-0.05-2.931-0.146c-17.955-1.801-26.35-15.762-26.706-28.8
	c-0.353-12.939,7.355-28.126,25.111-30.891c1.547-0.24,3.122-0.362,4.683-0.362c16.005,0,29.602,12.679,30.309,28.263
	C218.584,272.865,215.671,280.816,209.995,286.756z M157.814,227.376c2.922-11.561,17.684-15.663,29.438-15.663
	c12.829,0,27.737,4.686,30.153,14.974c0.168,0.714,0.014,1.467-0.423,2.057c-0.437,0.591-1.109,0.959-1.842,1.009
	c-0.167,0.012-0.335,0.017-0.505,0.017c-0.001,0-0.002,0-0.003,0c-2.498,0-5.051-1.197-7.753-2.466
	c-1.002-0.47-2.038-0.956-3.072-1.38c-4.58-1.874-10.585-2.906-16.909-2.906c-10.193,0-19.807,2.65-25.089,6.917
	c-0.456,0.368-1.013,0.555-1.571,0.555c-0.467,0-0.935-0.131-1.348-0.395C157.983,229.514,157.55,228.419,157.814,227.376z
	 M346.083,173.213c-6.183,7.029-15.425,10.9-26.023,10.9c-2.554,0-5.171-0.229-7.809-0.683
	c-14.019,41.571-40.047,70.109-77.391,84.833c-0.734,0.289-1.562,0.216-2.232-0.2c-0.671-0.415-1.106-1.123-1.175-1.909
	c-0.706-8.107-1.923-16.294-6.007-21.25c-0.618-0.749-0.746-1.789-0.328-2.665c0.979-2.054,1.97-3.737,2.845-5.223
	c2.144-3.642,3.56-6.047,3.48-11.18c-0.287-18.445-23.151-26.848-44.273-26.848c-18.428,0-39.659,6.946-42.728,22.195
	c-1.747,8.677,1.537,14.315,5.346,19.117c0.551,0.694,0.693,1.629,0.373,2.456c-0.488,1.26-1.002,2.492-1.517,3.725
	c-2.386,5.715-4.641,11.112-4.157,19.308c0.05,0.855-0.34,1.676-1.035,2.177c-0.432,0.311-0.944,0.471-1.46,0.471
	c-0.315,0-0.631-0.06-0.932-0.18c-39.538-15.878-65.355-44.41-76.767-84.825c-2.792,0.459-5.551,0.691-8.229,0.691
	c-19.641,0-33.649-12.548-34.065-30.514c-0.199-8.59,2.796-16.499,8.435-22.27c6.184-6.328,15.149-9.813,25.245-9.813
	c2.589,0,5.25,0.229,7.936,0.683c11.412-37.365,35.192-65.134,70.708-82.558c0.852-0.417,1.865-0.317,2.617,0.257
	c0.753,0.575,1.117,1.526,0.939,2.457c-3.065,16.065,3.069,31.37,15.626,38.991c8.286,5.028,20.691,8.031,33.183,8.031
	c16.927,0,37.279-5.814,38.929-22.199c1.436-14.259-13.914-25.021-25.551-26.459c-2.168-0.268-4.364-0.403-6.529-0.403
	c-9.796,0-17.398,2.723-18.487,6.622c-0.931,3.339,0.672,8.455,2.958,9.437c1.658,0.712,3.99,0.025,6.564-0.813
	c2.042-0.664,4.357-1.416,6.889-1.575c0.843-0.053,1.668-0.08,2.45-0.08c7.881,0,13.375,2.691,17.29,8.47
	c0.514,0.758,0.572,1.737,0.151,2.55c-3.823,7.395-13.184,11.637-25.681,11.637c-16.639,0-35.118-7.894-35.957-20.647
	c-0.307-4.661,1.326-8.934,4.854-12.701c9.934-10.61,33.426-14.918,48.867-14.042c30.033,1.702,54.707,18.344,70.116,32.005
	c18.295,16.219,31.099,36.743,38.082,61.034c2.72-0.437,5.407-0.657,8.018-0.657c18.013,0,31.488,10.673,33.534,26.559
	C354.418,157.694,351.896,166.604,346.083,173.213z"/>
<path fill="#C6B191" d="M222.27,145.524c-8.647,1.657-12.271,10.284-8.028,18.244c8.043,15.09,31.964-3.254,18.974-16.055
	C230.798,145.332,226.965,144.625,222.27,145.524z"/>
<path fill="#C6B191" d="M147.832,146.983c-18.187,4.248-4.086,33.641,10.947,21.164
	C167.894,160.582,161.007,143.906,147.832,146.983z"/>
</svg>
