<?xml version="1.0" encoding="utf-8"?>
<!-- Generator: Adobe Illustrator 14.0.0, SVG Export Plug-In . SVG Version: 6.00 Build 43363)  -->
<!DOCTYPE svg PUBLIC "-//W3C//DTD SVG 1.1//EN" "http://www.w3.org/Graphics/SVG/1.1/DTD/svg11.dtd">
<svg version="1.1" id="图层_1" xmlns="http://www.w3.org/2000/svg" xmlns:xlink="http://www.w3.org/1999/xlink" x="0px" y="0px"
	 width="286px" height="243px" viewBox="0 0 286 243" enable-background="new 0 0 286 243" xml:space="preserve">
<g>
	<path fill-rule="evenodd" clip-rule="evenodd" fill="#C6B191" d="M237.047,177.413c28.839,4.157,38.814,27.179,42.995,55.993
		c-24.732,7.107-44.813-6.063-49.994-24.996c-7.479,19.818-28.618,33.343-56.993,25.996c7.628-26.035,14.352-52.974,46.994-53.993
		c-7.717-48.608-44.173-68.479-86.989-81.989c-2.285,6.045,0.91,17.574-5.998,18.997c-13.768-5.563-19.688-18.974-30.997-26.997
		c-7.729-0.109-19.407-2.428-31.995-2.999c-19.092-0.867-53.513,4.468-54.994-4.999c-1.795-11.475,17.469-5.602,27.997-7
		C22.908,16.872,89.646,13.478,132.06,26.433c12.546-9.367,28.577-18.312,51.994-15.998c7.577,0.749,22.388,3.705,22.997,9.999
		c0.801,8.273-23.825,15.12-22.997,27.996c0.277,4.31,15.965,18.438,20.997,24.997C225.607,100.219,235.384,133.422,237.047,177.413
		z M62.069,60.428c5.209,0.318,9.266-5.619,4.999-11.998C54.739,43.004,52.423,59.841,62.069,60.428z"/>
</g>
</svg>
