<?xml version="1.0" encoding="utf-8"?>
<!-- Generator: Adobe Illustrator 14.0.0, SVG Export Plug-In . SVG Version: 6.00 Build 43363)  -->
<!DOCTYPE svg PUBLIC "-//W3C//DTD SVG 1.1//EN" "http://www.w3.org/Graphics/SVG/1.1/DTD/svg11.dtd">
<svg version="1.1" id="图层_2" xmlns="http://www.w3.org/2000/svg" xmlns:xlink="http://www.w3.org/1999/xlink" x="0px" y="0px"
	 width="139.493px" height="169.492px" viewBox="0 0 139.493 169.492" enable-background="new 0 0 139.493 169.492"
	 xml:space="preserve">
<g id="XMLID_1_">
	<g>
		<polygon fill="#AF7512" points="98.336,131.246 96.586,148.916 37.586,148.916 35.967,131.246 		"/>
		<polygon fill="#AF7512" points="105.567,58.266 103.487,79.276 31.366,79.276 31.206,79.286 29.276,58.266 		"/>
	</g>
	<g>
		<polyline fill="none" stroke="#333333" stroke-width="2" stroke-linecap="round" stroke-linejoin="round" points="29.276,58.266 
			19.576,58.266 21.656,42.896 27.886,42.896 		"/>
		<polyline fill="none" stroke="#333333" stroke-width="2" stroke-linecap="round" stroke-linejoin="round" points="107.727,42.896 
			113.116,42.896 115.197,58.266 105.567,58.266 		"/>
		<polygon fill="none" stroke="#333333" stroke-width="2" stroke-linecap="round" stroke-linejoin="round" points="107.727,42.896 
			27.886,42.896 32.456,25.566 101.456,25.566 		"/>
		<polygon fill="none" stroke="#333333" stroke-width="2" stroke-linecap="round" stroke-linejoin="round" points="98.336,131.246 
			96.586,148.916 37.586,148.916 35.967,131.246 31.206,79.286 29.276,58.266 105.567,58.266 103.487,79.276 		"/>
		<line fill="none" stroke="#333333" stroke-width="2" x1="98.336" y1="131.246" x2="35.967" y2="131.246"/>
		<line fill="none" stroke="#333333" stroke-width="2" x1="31.366" y1="79.276" x2="103.487" y2="79.276"/>
	</g>
</g>
</svg>
