<?xml version="1.0" encoding="utf-8"?>
<!-- Generator: Adobe Illustrator 14.0.0, SVG Export Plug-In . SVG Version: 6.00 Build 43363)  -->
<!DOCTYPE svg PUBLIC "-//W3C//DTD SVG 1.1//EN" "http://www.w3.org/Graphics/SVG/1.1/DTD/svg11.dtd">
<svg version="1.1" id="图层_1" xmlns="http://www.w3.org/2000/svg" xmlns:xlink="http://www.w3.org/1999/xlink" x="0px" y="0px"
	 width="168px" height="183px" viewBox="0 0 168 183" enable-background="new 0 0 168 183" xml:space="preserve">
<path fill="#2A9B68" d="M108.875,71.506c2.631-0.465,4.656,1.26,4.539,3.891c-0.092,1.903-2.41,4.154-3.73,5.666
	c-7.299,8.375-14.439,16.427-21.543,24.625c-2.887,3.334-5.371,6.943-8.907,9.557c-4.619,0.617-6.595-2.986-8.908-5.506
	c-3.854-4.197-6.84-7.324-10.854-11.344c-1.309-1.309-4.625-4.203-4.857-6.154c-0.3-2.465,1.401-4.436,4.05-4.209
	c2.209,0.184,3.72,2.754,5.182,4.209c4.668,4.668,9.367,10.027,13.766,14.256c8.223-9.221,17.791-20.49,26.563-30.616
	C105.424,74.443,107.236,71.8,108.875,71.506z"/>
<circle fill="none" stroke="#2A9B68" cx="84.48" cy="90.06" r="67"/>
</svg>
