<?xml version="1.0" encoding="utf-8"?>
<!-- Generator: Adobe Illustrator 14.0.0, SVG Export Plug-In . SVG Version: 6.00 Build 43363)  -->
<!DOCTYPE svg PUBLIC "-//W3C//DTD SVG 1.1//EN" "http://www.w3.org/Graphics/SVG/1.1/DTD/svg11.dtd">
<svg version="1.1" id="图层_1" xmlns="http://www.w3.org/2000/svg" xmlns:xlink="http://www.w3.org/1999/xlink" x="0px" y="0px"
	 width="384px" height="323px" viewBox="0 0 384 323" enable-background="new 0 0 384 323" xml:space="preserve">
<path fill-rule="evenodd" clip-rule="evenodd" fill="#C6B191" d="M322.247,105.387c60.796,1.039,61.763,92.53,0.73,94.87
	c-15.126,36.2-39.487,64.593-76.626,81.005c-4.822,2.131-11.424,2.294-16.056,5.108c-6.4,3.891-8.635,12.224-14.596,16.785
	c-21.184,16.21-60.065,7.835-69.328-16.055c-45.393-14.692-76.717-43.452-93.411-86.844c-59.89-0.952-62.056-91.946-0.729-94.87
	c22.106-47.882,59.215-87.749,122.602-92.681c11.034-0.858,22.429-0.574,32.11,0.729C264.666,21.206,303.717,57.95,322.247,105.387z
	 M271.894,63.06c-17.498-15.512-41.506-29.844-68.599-31.38c-19.372-1.099-52.255,6.293-51.084,24.083
	c1.21,18.395,47.573,26.109,56.922,8.027c-4.02-5.933-9.705-7.787-17.515-7.298c-5.546,0.348-10.239,4.061-14.596,2.189
	c-3.665-1.574-5.573-8.126-4.379-12.406c1.892-6.773,15.043-9.595,27.731-8.027c13.441,1.661,29.28,13.808,27.731,29.191
	c-2.764,27.457-52.542,30.228-75.896,16.055c-13.44-8.156-20.056-24.453-16.785-41.597c-34.272,16.813-58.584,43.584-70.059,83.194
	c-23.376-5.024-41.335,8.286-40.867,28.461c0.46,19.84,18.347,31.835,41.597,27.002c11.31,42.45,37.539,69.98,75.896,85.383
	c-0.625-10.598,3.055-16.892,5.838-24.082c-4.096-5.163-7.764-11.595-5.838-21.164c6.814-33.854,91.371-32.226,91.952,5.108
	c0.126,8.146-3.285,10.627-6.568,17.515c4.396,5.334,5.789,13.672,6.568,22.623c38.732-15.27,63.409-44.597,76.626-85.383
	c24.176,5.294,43.003-9.851,40.138-32.11c-2.275-17.671-19.334-27.744-40.867-23.353C303.37,101.17,290.859,79.873,271.894,63.06z
	 M160.238,227.988c10.041-8.11,31.528-9.694,44.516-4.378c3.877,1.587,7.414,3.837,10.217,3.648
	C211.107,210.811,165.116,208.69,160.238,227.988z M185.05,293.668c15.441,1.549,31.5-10.493,30.65-29.19
	c-0.731-16.117-16.019-28.048-32.109-25.542C152.687,243.747,152.661,290.42,185.05,293.668z"/>
<path fill-rule="evenodd" clip-rule="evenodd" fill="#C6B191" d="M222.269,145.524c4.696-0.899,8.529-0.192,10.946,2.189
	c12.99,12.8-10.931,31.144-18.974,16.055C209.998,155.808,213.622,147.181,222.269,145.524z"/>
<path fill-rule="evenodd" clip-rule="evenodd" fill="#C6B191" d="M147.832,146.983c13.175-3.077,20.062,13.599,10.947,21.164
	C143.746,180.624,129.645,151.231,147.832,146.983z"/>
</svg>
