<?xml version="1.0" encoding="utf-8"?>
<!-- Generator: Adobe Illustrator 14.0.0, SVG Export Plug-In . SVG Version: 6.00 Build 43363)  -->
<!DOCTYPE svg PUBLIC "-//W3C//DTD SVG 1.1//EN" "http://www.w3.org/Graphics/SVG/1.1/DTD/svg11.dtd">
<svg version="1.1" id="图层_1" xmlns="http://www.w3.org/2000/svg" xmlns:xlink="http://www.w3.org/1999/xlink" x="0px" y="0px"
	 width="315.23px" height="301.485px" viewBox="0 0 315.23 301.485" enable-background="new 0 0 315.23 301.485"
	 xml:space="preserve">
<path fill="#C6B191" d="M297.604,140.266c-3.684-0.337-8.674,0.106-12.119,0c0-18.402,0.001-31.334,0-49.774
	c0-3.182,0.196-6.331-0.289-8.801c-1.418-7.227-7.776-11.316-15.438-12.12c-5.583-0.585-11.852-0.145-18.18-0.145
	c-12.291,0-24.471-0.575-36.648,0c-2.958,0.14-7.22,0.966-9.668,2.598c-2.28,1.521-4.195,4.236-6.203,6.637
	c-11.711,13.996-23.457,27.892-35.062,41.986c-1.919,2.332-4.594,4.936-5.627,7.215c-3.816,8.423,5.176,17.266,13.274,13.563
	c2.129-0.975,4.386-3.646,6.06-5.627c5.49-6.499,11.296-13.641,16.017-19.19c6.797-7.994,13.607-15.95,20.199-23.807
	c0.391-0.467,0.892-1.527,1.298-1.154c0.241,17.735,0.222,31.047-0.144,48.619c-63.389,0-126.778,0-190.166,0
	c0,8.175,0,7.021,0,15.195c63.416,0.093,127.227-0.672,190.31,0c0.226,28.229,0.146,72.699,0.146,101.101
	c0,4.146-0.407,8.485,0,12.409c0.721,6.961,6.31,12.701,15.149,11.253c4.611-0.754,8.077-4.128,9.232-8.657
	c0.911-3.563,0.579-7.918,0.579-12.118c0-29.883,0-60.647,0-89.602c1.287-0.225,3.328-0.225,4.616,0c0,29.226,0,58.913,0,88.303
	c0,4.202-0.467,8.713,0.289,12.408c0.932,4.563,4.703,8.229,8.802,9.234c5.75,1.409,10.727-1.083,13.13-4.328
	c2.557-3.458,2.597-9.022,2.597-15.439c0-30.353,0-74.603,0-104.563c9.076-0.253,18.555,0.038,27.846,0
	C297.649,147.106,297.653,148.618,297.604,140.266z"/>
<path d="M293.91,63.184c0.589-0.571,1.189-1.105,1.807-1.589C295.059,62.064,294.454,62.598,293.91,63.184z"/>
<path fill="#C6B191" d="M156.605,84.633c-1.347-2.562-4.117-4.319-7.318-4.319c-0.068,0-0.136,0.003-0.204,0.004
	c-0.895,0.063-1.929,0.258-2.805,0.543c-0.675,0.256-1.308,0.593-1.882,1.003c-0.421,0.33-0.83,0.693-1.231,1.082
	c-2.01,1.953-3.81,4.552-5.683,6.752c-2.5,2.935-4.702,5.982-7.106,8.178c-2.721-12.861-8.372-22.756-20.379-26.68
	c-0.312-0.102-0.635-0.193-0.966-0.281L96.576,89.482l-2.561-1.718c-1.866-1.252-1.934-4.42-0.152-7.076l7.244-10.799
	c-4.294-0.19-8.986-0.033-13.231-0.033c-4.128,0-8.755-0.179-13.017,0.011l7.26,10.821c1.781,2.656,1.714,5.824-0.152,7.076
	l-2.561,1.718L66.97,70.942c-0.42,0.119-0.828,0.246-1.214,0.389c-5.792,2.135-9.994,5.898-13.273,10.189
	c-1.777,2.327-3.171,4.709-4.022,7.776c-4.26,15.349-8.302,30.933-12.469,46.389c5.81,0,11.619,0,17.43,0
	c3.686-12.626,6.844-25.78,10.725-38.21c1.253,0.088,2.859-0.178,3.889,0.134c-3.272,12.86-6.972,25.294-10.189,38.209
	c20.558-0.089,41.473,0.179,61.806-0.133c-3.685-12.627-7.628-25.711-10.993-38.21c1.43,0,2.86,0,4.29,0
	c0.971,3.234,2.241,7.044,3.486,10.994c1.207,3.833,1.999,8.058,3.754,10.859c1.826,2.916,5.803,5.597,10.188,3.352
	c3.672-1.879,6.001-6.155,8.581-9.25c4.082-4.898,8.016-9.524,12.2-14.613c1.954-2.378,4.879-5.3,5.765-7.642
	c0.166-0.438,0.283-0.884,0.36-1.331C157.608,87.975,157.227,86.078,156.605,84.633z"/>
<path fill-rule="evenodd" clip-rule="evenodd" fill="#C6B191" d="M81.183,13.521c17.066-3.358,31.014,7.713,33.291,20.541
	c7.172,40.415-50.783,41.709-54.541,9.917c-1.436-12.155,2.67-18.799,7.084-23.374C69.688,17.834,74.272,14.881,81.183,13.521z"/>
<path fill-rule="evenodd" clip-rule="evenodd" fill="#C6B191" d="M239.849,9.521c17.066-3.358,31.014,7.713,33.291,20.541
	c7.172,40.415-50.783,41.709-54.541,9.917c-1.436-12.155,2.67-18.799,7.084-23.374C228.354,13.834,232.938,10.881,239.849,9.521z"/>
<rect x="34.454" y="158.319" fill-rule="evenodd" clip-rule="evenodd" fill="#C6B191" width="114.674" height="125.352"/>
<g>
	<path fill-rule="evenodd" clip-rule="evenodd" fill="#FFFFFF" d="M155.089,46.493c4.291-0.797-0.004-5.226,1.541-7.706
		C152.301,37.432,155.23,44.62,155.089,46.493z M158.685,44.695c-1.175,1.254-1.83,5.479,1.027,5.394
		c1.028-0.773,0.083-1.731,0-2.825c1.148-1.237,1.641-4.852-0.514-5.395C157.482,42.036,158.528,43.622,158.685,44.695z
		 M148.667,52.401c-1.203,0.681-1.129,2.639-1.542,4.109c-0.888-0.203-1.084,0.286-1.541,0.515
		c-0.034,1.335-0.479,2.261-0.514,3.596c0.194,0.919,1.734,0.492,2.055,1.284c0.518,7.618,1.069,15.2,2.056,22.349
		c4.904,0.425,11.535,0.425,16.439,0c0.974-7.247,1.572-14.868,2.056-22.605c0.643-0.47,2.113-0.112,2.055-1.284
		c-0.119-1.165-0.462-2.106-0.514-3.339c-2.256-0.229-1.675-3.292-2.826-4.624C160.482,52.401,154.574,52.401,148.667,52.401z"/>
	<path fill-rule="evenodd" clip-rule="evenodd" fill="#7F7F7F" d="M156.63,38.787c-1.545,2.48,2.75,6.909-1.541,7.706
		C155.23,44.62,152.301,37.432,156.63,38.787z"/>
	<path fill-rule="evenodd" clip-rule="evenodd" fill="#7F7F7F" d="M159.198,41.869c2.154,0.543,1.662,4.157,0.514,5.395
		c0.083,1.094,1.028,2.052,0,2.825c-2.857,0.085-2.202-4.14-1.027-5.394C158.528,43.622,157.482,42.036,159.198,41.869z"/>
	<path fill-rule="evenodd" clip-rule="evenodd" fill="#7F7F7F" d="M166.391,52.401c1.151,1.332,0.57,4.396,2.826,4.624
		c0.052,1.232,0.395,2.174,0.514,3.339c0.059,1.172-1.412,0.814-2.055,1.284c-0.483,7.737-1.082,15.358-2.056,22.605
		c-4.904,0.425-11.535,0.425-16.439,0c-0.986-7.148-1.538-14.73-2.056-22.349c-0.32-0.792-1.86-0.365-2.055-1.284
		c0.034-1.335,0.479-2.261,0.514-3.596c0.457-0.229,0.653-0.718,1.541-0.515c0.413-1.471,0.339-3.429,1.542-4.109
		C154.574,52.401,160.482,52.401,166.391,52.401z M149.694,54.456c-0.456,1.856-0.629,3.995-2.313,4.624
		c6.071,0.264,14.64,0.753,20.037-0.257c-2.008-0.22-1.699-2.754-2.313-4.367C159.969,54.456,154.832,54.456,149.694,54.456z
		 M149.438,65.759c5.309,0,10.617,0,15.926,0c0.265-1.363,0.091-3.163,0.514-4.367c-5.565,0.171-11.815-0.342-16.953,0.257
		C149.379,62.734,149.171,64.483,149.438,65.759z M149.694,67.813c0.021,3.745,0.713,6.822,0.771,10.532c4.624,0,9.247,0,13.871,0
		c0.058-3.71,0.748-6.787,0.771-10.532C159.969,67.813,154.832,67.813,149.694,67.813z M150.979,82.456c1.907,0,4.749,0,7.192,0
		c2.297,0,5.855,0.971,5.908-1.542c-3.445-1.178-9.062-0.186-13.357-0.514C150.609,81.284,150.823,81.841,150.979,82.456z"/>
	<path fill-rule="evenodd" clip-rule="evenodd" fill="#FFFFFF" d="M165.106,54.456c0.613,1.613,0.305,4.147,2.313,4.367
		c-5.397,1.01-13.966,0.521-20.037,0.257c1.684-0.629,1.856-2.768,2.313-4.624C154.832,54.456,159.969,54.456,165.106,54.456z"/>
	<path fill-rule="evenodd" clip-rule="evenodd" fill="#FFFFFF" d="M148.924,61.648c5.138-0.599,11.388-0.086,16.953-0.257
		c-0.423,1.204-0.249,3.004-0.514,4.367c-5.309,0-10.617,0-15.926,0C149.171,64.483,149.379,62.734,148.924,61.648z"/>
	<path fill-rule="evenodd" clip-rule="evenodd" fill="#FFFFFF" d="M165.106,67.813c-0.022,3.745-0.713,6.822-0.771,10.532
		c-4.624,0-9.247,0-13.871,0c-0.058-3.71-0.749-6.787-0.771-10.532C154.832,67.813,159.969,67.813,165.106,67.813z"/>
	<path fill-rule="evenodd" clip-rule="evenodd" fill="#FFFFFF" d="M150.722,80.4c4.296,0.328,9.912-0.664,13.357,0.514
		c-0.053,2.513-3.611,1.542-5.908,1.542c-2.443,0-5.285,0-7.192,0C150.823,81.841,150.609,81.284,150.722,80.4z"/>
</g>
</svg>
