<?xml version="1.0" encoding="utf-8"?>
<!-- Generator: Adobe Illustrator 14.0.0, SVG Export Plug-In . SVG Version: 6.00 Build 43363)  -->
<!DOCTYPE svg PUBLIC "-//W3C//DTD SVG 1.1//EN" "http://www.w3.org/Graphics/SVG/1.1/DTD/svg11.dtd">
<svg version="1.1" xmlns="http://www.w3.org/2000/svg" xmlns:xlink="http://www.w3.org/1999/xlink" x="0px" y="0px" width="371px"
	 height="338px" viewBox="0 0 371 338" enable-background="new 0 0 371 338" xml:space="preserve">
<g id="图层_2" display="none">
	
		<ellipse display="inline" fill-rule="evenodd" clip-rule="evenodd" fill="#B5B5B5" cx="126.25" cy="228.75" rx="155.25" ry="66.75"/>
	<g display="inline">
		<path fill-rule="evenodd" clip-rule="evenodd" fill="#FFFFFF" d="M28.1,308c25.982-8.534,24.37,27.32,27,53
			c3.03,29.579,5.388,56.101,9,89c1.529,13.924,6.714,37.066-3,40c-17.081,5.158-20.401-18.266-22-34
			c-3.463-34.078-6.159-65.617-10-101C27.603,341.216,21.313,313.093,28.1,308z"/>
		<path fill-rule="evenodd" clip-rule="evenodd" fill="#FFFFFF" d="M227.1,309c-1.016,48.915-8.668,100.963-14,152
			c-0.691,6.616-0.291,17.106-5,23c-4.41,5.519-13.84,9.359-20,4c-4.842-4.212-0.305-27.793,1-41c2.934-29.703,5.893-56.801,9-85
			C200.855,337.001,198.471,296.258,227.1,309z"/>
		<path fill-rule="evenodd" clip-rule="evenodd" fill="#FFFFFF" d="M137.1,323c3.611,42.534,2,93.667,2,143
			c0,15.426,2.213,35.353-12,36c-17.958,0.818-14-23.889-14-46c0.001-28.045,0-63.813,0-94c0.001-17.811-3.771-39.212,9-42
			C128.482,318.606,133.854,321.063,137.1,323z"/>
		<path fill-rule="evenodd" clip-rule="evenodd" d="M196.1,170c0.189-1.136,1.004-0.556,1,0c51.145,9.267,99.277,29.47,84,90
			c-2.594,10.274-11.84,14.098-15,24c-4.387,13.741-3.291,34.257-5,52c-3.389,35.161-7.32,67.915-11,103
			c-2.68,25.56-1.238,53.251-14,68c-35.639,41.184-167.5,41.972-211,8c-19.143-14.949-19.609-39.675-23-74
			c-3.594-36.386-7.008-68.639-11-105c-1.928-17.561-0.435-37.674-5-52c-2.853-8.953-12.423-14.376-15-25
			c-15.276-62.988,40.292-79.734,84-90c0.191,6.204-5.471,15.187-4,26c-16.962,6.903-56.718,12.587-57,36
			c-0.229,19.038,31.66,29.513,53,35c47.065,12.103,111.221,12.054,158,0c20.223-5.211,53-15.154,53-35
			c0-23.008-39.162-29.458-57-36C201.49,184.609,200.223,175.878,196.1,170z M29.1,355c3.841,35.383,6.537,66.922,10,101
			c1.599,15.734,4.919,39.158,22,34c9.714-2.934,4.529-26.076,3-40c-3.612-32.899-5.97-59.421-9-89c-2.63-25.68-1.018-61.534-27-53
			C21.313,313.093,27.603,341.216,29.1,355z M198.1,362c-3.107,28.199-6.066,55.297-9,85c-1.305,13.207-5.842,36.788-1,41
			c6.16,5.359,15.59,1.519,20-4c4.709-5.894,4.309-16.384,5-23c5.332-51.037,12.984-103.085,14-152
			C198.471,296.258,200.855,337.001,198.1,362z M122.099,320c-12.771,2.788-8.999,24.189-9,42c0,30.187,0.001,65.955,0,94
			c0,22.111-3.958,46.818,14,46c14.213-0.647,12-20.574,12-36c0-49.333,1.611-100.466-2-143
			C133.854,321.063,128.482,318.606,122.099,320z"/>
	</g>
	
		<ellipse display="inline" fill-rule="evenodd" clip-rule="evenodd" fill="#5B5B5B" cx="-600.896" cy="-141.181" rx="155.25" ry="66.75"/>
</g>
<g id="图层_1" display="none">
	<path display="inline" fill-rule="evenodd" clip-rule="evenodd" fill="#CDC8CC" d="M62.03,80.059
		c6.43,4.114,18.433,6.173,21.311,11.602C76.908,87.544,64.905,85.485,62.03,80.059z"/>
	<path display="inline" fill-rule="evenodd" clip-rule="evenodd" fill="#589B45" d="M110.18,118.254
		c-14.486-1.588-31.227,12.049-43.85,6.439c-11.081-4.922-11.324-10.536-5.641-18.599C69.003,94.293,98.276,105.465,110.18,118.254z
		"/>
	<path display="inline" fill-rule="evenodd" clip-rule="evenodd" fill="#94BF5F" d="M90.433,64.715
		c7.045,1.862,8.727,5.703,5.414,11.385C88.024,80.062,82.042,69.388,90.433,64.715z"/>
	<path display="inline" fill-rule="evenodd" clip-rule="evenodd" fill="#589B45" d="M128.661,109.004
		c-0.438-15.651-7.716-28.781,0.661-47.685c2.629-0.567,5.535-0.375,7.89-1.694C157.53,68.909,141.535,97.717,128.661,109.004z"/>
	<path display="inline" fill-rule="evenodd" clip-rule="evenodd" fill="#827552" d="M103.322,175.521
		c3.683-8.188,16.959-17.361,28.402-15.34c0.738,2.158,1.531,4.301,2.371,6.422c-5.626,10.031-15.589,8.314-21.866,16.58
		c-4.935-1.424-4.766-4.729-7.44-6.986C104.302,175.973,103.813,175.746,103.322,175.521z"/>
	<path display="inline" fill-rule="evenodd" clip-rule="evenodd" fill="#827552" d="M183.609,159.041
		c-11.091,5.112-20.059,15.969-32.685,16.919c-12.689-16.191,19.232-20.522,27.947-29.769
		C182.013,149.898,182.001,154.766,183.609,159.041z"/>
	<path display="inline" fill-rule="evenodd" clip-rule="evenodd" fill="#CD4048" d="M153.645,216.316
		c-1.133-2.018-3.038-3.744-6.652-4.847c0.203-1.293-0.44-2.269-2.256-2.817c4.781-4.619,9.822-8.551,16.343-8.458
		C172.085,205.893,161.015,216.418,153.645,216.316z"/>
	<path display="inline" fill-rule="evenodd" clip-rule="evenodd" fill="#E6CBA9" d="M169.206,228.819
		c5.373,2.479,10.751,4.96,16.123,7.437C182.154,237.739,170.138,232.197,169.206,228.819z"/>
	<path display="inline" fill-rule="evenodd" clip-rule="evenodd" fill="#CDC8CC" d="M58.323,122.781
		c6.192,3.591,11.514,4.826,16.012,3.83C71.64,130.462,60.292,127.89,58.323,122.781z"/>
	<path display="inline" fill-rule="evenodd" clip-rule="evenodd" fill="#E6CBA9" d="M104.903,179.805
		c-5.691-7.633-8.85-16.199-9.478-25.697c2.911,7.031,3.563,14.902,7.896,21.414c0.491,0.225,0.98,0.451,1.467,0.676
		C104.106,177.664,105.169,178.488,104.903,179.805z"/>
	<path display="inline" fill-rule="evenodd" clip-rule="evenodd" fill="#E6CBA9" d="M109.104,178.007
		c5.979,5.496,12.972,10.62,17.141,16.789C119.253,189.669,112.533,184.444,109.104,178.007z"/>
	<path display="inline" fill-rule="evenodd" clip-rule="evenodd" fill="#E6CBA9" d="M186.793,236.932
		c5.015-0.803,8.164-8.623,8.228-13.981c3.493,4.148-2.107,14.103-6.761,14.656C187.769,237.382,187.284,237.156,186.793,236.932z"
		/>
	<path display="inline" fill-rule="evenodd" clip-rule="evenodd" fill="#E6CBA9" d="M194.449,204.917
		c-4.088-12.685-5.035-26.529-8.473-39.45C191.366,177.672,192.555,191.422,194.449,204.917z"/>
	<path display="inline" fill-rule="evenodd" clip-rule="evenodd" fill="#E6CBA9" d="M198.127,181.91
		c-5.166-17.555-11.049-34.852-16.815-52.184C189.712,146.088,194.738,163.697,198.127,181.91z"/>
	<path display="inline" fill-rule="evenodd" clip-rule="evenodd" fill="#E6CBA9" d="M130.128,109.68
		c8.563,0.127,15.341-4.578,25.249-0.803c-9.333-0.017-18.446,0.566-26.602,3.732C129.228,111.631,129.677,110.656,130.128,109.68z"
		/>
	<path display="inline" fill-rule="evenodd" clip-rule="evenodd" fill="#CDC8CC" d="M124.371,87.475
		c-2.436-5.997-4.053-12.293-1.359-20.177C123.261,74.095,123.649,80.849,124.371,87.475z"/>
	<path display="inline" fill-rule="evenodd" clip-rule="evenodd" fill="#CDC8CC" d="M125.169,112.726
		c-1.93-6.184-0.637-13.554-1.359-20.179C126.751,98.356,125.784,105.604,125.169,112.726z"/>
	<path display="inline" fill-rule="evenodd" clip-rule="evenodd" fill="#CDC8CC" d="M119.64,97.735
		c-4.362-13.8-7.591-28.018-15.007-40.69C114.046,68.983,117.216,83.219,119.64,97.735z"/>
	<path display="inline" fill-rule="evenodd" clip-rule="evenodd" fill="#63855C" d="M62.03,80.059
		c-25.54-27.182,22.01-55.286,42.603-23.015c7.416,12.673,10.645,26.89,15.007,40.69c-1.477,6.221,0.437,11.189,1.247,16.57
		c-0.226,0.49-0.449,0.976-0.676,1.466c-13.189-7.707-21.15-17.338-36.87-24.11C80.463,86.232,68.46,84.173,62.03,80.059z
		 M59.091,55.597c16.267-21.108,34.866,20.818,7.783,17.807c-8.364-0.241-6.96-10.3-10.374-8.337
		c5.218,20.78,44.867,28.863,60.664,45.745c-0.575-21.278-4.664-41.262-19.858-57.145c0.533,7.792-5.635,11.88-13.529,6.204
		c-4.264-6.569,10.603-10.261,3.944-12.4C74.834,37.179,58.179,50.298,59.091,55.597z"/>
	<path display="inline" fill-rule="evenodd" clip-rule="evenodd" fill="#589B45" d="M87.721,47.471
		c6.659,2.139-8.208,5.831-3.944,12.4c7.894,5.677,14.062,1.588,13.529-6.204c15.194,15.883,19.283,35.867,19.858,57.145
		C101.368,93.93,61.718,85.847,56.5,65.067c3.414-1.963,2.009,8.096,10.374,8.337c27.083,3.011,8.484-38.915-7.783-17.807
		C58.179,50.298,74.834,37.179,87.721,47.471z M95.847,76.1c3.313-5.683,1.631-9.523-5.414-11.385
		C82.042,69.388,88.024,80.062,95.847,76.1z"/>
	<path display="inline" fill-rule="evenodd" clip-rule="evenodd" fill="#94BF5F" d="M58.323,122.781
		c-14.192-31.804,43.107-27.347,54.787-3.176c-0.226,0.487-0.45,0.976-0.677,1.467c-13.314,0.182-25.155,4.35-38.098,5.539
		C69.837,127.607,64.516,126.372,58.323,122.781z M60.689,106.095c-5.683,8.063-5.44,13.677,5.641,18.599
		c12.624,5.609,29.364-8.027,43.85-6.439C98.276,105.465,69.003,94.293,60.689,106.095z"/>
	<path display="inline" fill-rule="evenodd" clip-rule="evenodd" fill="#94BF5F" d="M123.011,67.298
		c27.848-29.679,35.272,31.511,7.117,42.382c-0.451,0.976-0.9,1.951-1.353,2.93c-0.496,0.857-1.021,1.635-2.142,0.791
		c-0.489-0.228-0.976-0.45-1.465-0.675c0.614-7.122,1.582-14.37-1.359-20.179c1.504-2.18-0.225-3.161,0.561-5.072
		C123.649,80.849,123.261,74.095,123.011,67.298z M137.211,59.625c-2.354,1.319-5.261,1.127-7.89,1.694
		c-8.377,18.904-1.099,32.033-0.661,47.685C141.535,97.717,157.53,68.909,137.211,59.625z"/>
	<path display="inline" fill-rule="evenodd" clip-rule="evenodd" fill="#E6CBA9" d="M108.943,124.792
		c0.676-2.555,2.546-1.885,3.49-3.721c0.227-0.491,0.451-0.979,0.677-1.467c2.642-0.525,4.729-2.558,7.102-3.834
		c0.227-0.49,0.45-0.976,0.676-1.466c1.602-0.047,3.214-0.081,4.282-1.579c0.489,0.225,0.976,0.447,1.465,0.675
		C120.93,117.723,114.953,121.302,108.943,124.792z"/>
	<path display="inline" fill-rule="evenodd" clip-rule="evenodd" fill="#AF987B" d="M95.425,154.107
		c1.302-11.53,5.964-20.323,13.518-29.315c6.01-3.49,11.987-7.069,17.691-11.392c1.121,0.844,1.646,0.066,2.142-0.791
		c8.155-3.166,17.269-3.749,26.602-3.732c14.694,4.723,18.497,13.455,25.935,20.849c5.766,17.332,11.649,34.629,16.815,52.184
		c-0.225,0.488-0.453,0.979-0.678,1.469c3.438,12.922,4.385,26.766,8.473,39.451c-2.09,6.854,0.982,11.801,0.572,18.033
		c-0.064,5.357-3.213,13.178-8.229,13.98c-0.486-0.225-0.975-0.451-1.463-0.676c-5.373-2.477-10.75-4.957-16.124-7.436
		c-3.318-4.855-13.131-7.318-15.562-12.504c7.37,0.102,18.44-10.424,7.435-16.121c-6.521-0.094-11.562,3.838-16.343,8.457
		c1.815,0.549,2.459,1.525,2.256,2.818c-8.394-5.012-11.843-11.85-20.747-16.674c-4.169-6.17-11.162-11.293-17.141-16.789
		c-5.737-5.186-8.877-11.326-15.675-16.115c0.267-1.316-0.797-2.141-0.114-3.607c2.675,2.258,2.506,5.563,7.44,6.986
		c6.277-8.266,16.24-6.549,21.866-16.58c-0.84-2.121-1.633-4.264-2.371-6.422c-11.443-2.021-24.72,7.152-28.402,15.34
		C98.988,169.01,98.336,161.139,95.425,154.107z M190.345,164.104c-8.715,9.246-40.637,13.578-27.947,29.77
		c12.626-0.951,21.594-11.807,32.684-16.92C193.475,172.678,193.486,167.811,190.345,164.104z"/>
	<path display="inline" fill-rule="evenodd" clip-rule="evenodd" fill="#969696" d="M220.805,134.197
		c3.634-2.817,12.087-0.822,14.526-4.841c5.372,3.771,2.95,15.341,8.071,19.367c2.304-0.387,2.722-2.661,4.838-3.23
		c5.629-1.899,4.1-10.961,11.302-11.296c2.543,3.906,5.771,7.137,9.685,9.686c0,0.54,0,1.077,0,1.61c0,7.532,0,15.064,0,22.597
		c-4.745,29.686-17.918,50.949-30.669,72.629c-7.667,6.324-14.658,13.32-20.98,20.98c-0.54,0-1.074,0-1.613,0
		c-4.795,4.348-12.159,6.135-16.139,11.305c-34.521,17.9-83.875,10.514-90.386-24.215c-8.801-46.955,39.124-47.463,67.786-64.557
		c17.24-12.354,31.374-27.813,41.968-46.805C219.497,136.12,220.811,135.82,220.805,134.197z"/>
	<path display="inline" fill-rule="evenodd" clip-rule="evenodd" fill="#969696" d="M269.227,145.493c0.537,0,1.074,0,1.611,0
		c0,5.384,0,10.763,0,16.14c-0.133,2.555,0.779,6.154-1.611,6.457C269.227,160.557,269.227,153.025,269.227,145.493z"/>
	<path display="inline" fill-rule="evenodd" clip-rule="evenodd" fill="#969696" d="M270.838,145.493
		c1.813,0.341,2.515,1.793,3.23,3.23c-4.662,0.716,1.432,12.195-3.23,12.91C270.838,156.256,270.838,150.876,270.838,145.493z"/>
	<path display="inline" fill-rule="evenodd" clip-rule="evenodd" fill="#CDC8CC" d="M249.856,89.005
		c4.529,6.215,1.805,18.969-9.682,14.528c0.202-3.567,6.848-0.689,9.682-1.616C249.856,97.616,249.856,93.309,249.856,89.005z"/>
	<path display="inline" fill-rule="evenodd" clip-rule="evenodd" fill="#969696" d="M193.744,266.264
		c5.779-7.131,12.234-13.585,19.364-19.364C207.329,254.029,200.872,260.484,193.744,266.264z"/>
	<path display="inline" fill-rule="evenodd" clip-rule="evenodd" fill="#63855C" d="M249.856,89.005
		c0.266-5.11-4.289-5.398-3.227-11.296c5.052,0.329,11.847-1.089,14.525,1.61c1.189,9.639,0.872,15.269-1.613,24.214
		c12.514,9.004,21.007,22.032,19.367,45.189c-1.61,0-3.228,0-4.841,0c-0.716-1.438-1.418-2.89-3.23-3.23c-0.537,0-1.074,0-1.611,0
		c0-0.533,0-1.07,0-1.61c-3.654-3.88-6.007-9.062-11.301-11.302c-5.763,1.772-6.308,8.762-9.686,12.912
		c-2.116,0.569-2.534,2.844-4.838,3.23c-5.121-4.026-2.699-15.597-8.071-19.367c-2.439,4.019-10.893,2.023-14.526,4.841
		c-2.488-3.429-11.151-0.684-12.913-4.841c9.861-9.509,18.101-20.635,32.283-25.822C251.661,107.974,254.386,95.22,249.856,89.005z"
		/>
	<path display="inline" fill-rule="evenodd" clip-rule="evenodd" fill="#366B34" d="M248.24,145.493
		c3.378-4.15,3.923-11.14,9.686-12.912c5.294,2.24,7.646,7.422,11.301,11.302c-3.914-2.549-7.142-5.779-9.685-9.686
		C252.34,134.532,253.869,143.593,248.24,145.493z"/>
	<path display="inline" fill-rule="evenodd" clip-rule="evenodd" fill="#969696" d="M192.128,266.264
		c6.322-7.661,13.313-14.656,20.98-20.981c0,0.537,0,1.077,0,1.617c-7.13,5.779-13.585,12.233-19.364,19.364
		C193.205,266.264,192.665,266.264,192.128,266.264z"/>
	<path display="inline" fill-rule="evenodd" clip-rule="evenodd" fill="#969696" d="M174.376,277.568
		c3.979-5.171,11.344-6.957,16.139-11.305C187.116,272.011,180.258,274.303,174.376,277.568z"/>
	<path display="inline" fill-rule="evenodd" clip-rule="evenodd" fill="#B597B1" d="M177.226,184.232
		c16.021-13.576,29.693-29.486,41.968-46.805C208.6,156.42,194.466,171.879,177.226,184.232z"/>
	<path display="inline" fill-rule="evenodd" clip-rule="evenodd" fill="#8D2D38" d="M17.26,184.332
		c3.532-1.305,7.063-2.606,10.598-3.911c13.7-2.212,32.317-5.973,42.391-15.664c0.507-0.188,1.01-0.372,1.517-0.56
		c67.631-25.84,85.532,88.354,27.432,106.864c-6.559,2.426-13.119,4.851-19.682,7.272C26.5,299.471-29.973,222.209,17.26,184.332z"
		/>
	<path display="inline" fill-rule="evenodd" clip-rule="evenodd" fill="#B597B1" d="M119.657,266.751
		c-2.175,3.664-15.649,8.644-19.682,7.272C106.538,271.602,113.099,269.177,119.657,266.751z"/>
	<path display="inline" fill-rule="evenodd" clip-rule="evenodd" fill="#E6CBA9" d="M25.676,170.709
		c5.738,5.728,14.691,4.478,22.643,5.401c-3.535,1.305-7.065,2.606-10.598,3.911C39.818,175.859,29.388,177.406,25.676,170.709z"/>
	<path display="inline" fill-rule="evenodd" clip-rule="evenodd" fill="#CDC8CC" d="M113.241,157.064
		c-1.813-9.707-7.706-10.543-16.022-6.121c2.573-6.296,11.598-3.52,14.741-2.007C111.944,151.446,116.622,156.107,113.241,157.064z"
		/>
	<path display="inline" fill-rule="evenodd" clip-rule="evenodd" fill="#CDC8CC" d="M71.554,136.55
		c5.478,8.732,6.28,8.106,10.206-0.326c0.274,3.897-3.535,5.912-3.258,9.813C75.271,152.73,73.713,140.387,71.554,136.55z"/>
	<path display="inline" fill-rule="evenodd" clip-rule="evenodd" fill="#CDC8CC" d="M44.713,132.896
		c-4.102-1.616-12.641-3.302-16.258,2.563c0.147-7.649,12.136-5.831,15.698-4.076C44.34,131.889,44.526,132.394,44.713,132.896z"/>
	<path display="inline" fill-rule="evenodd" clip-rule="evenodd" fill="#589B45" d="M28.456,135.459
		c3.617-5.865,12.156-4.18,16.258-2.563c0.374,1.011,0.747,2.024,1.117,3.028c-5.034-6.013-17.312-2.604-18.725,5.199
		C27.953,139.417,26.472,136.637,28.456,135.459z"/>
	<path display="inline" fill-rule="evenodd" clip-rule="evenodd" fill="#366B34" d="M58.042,150.347
		c-0.277-3.9,3.532-5.915,3.258-9.813c2.603-0.479,2.077-2.39,3.985-3.192c8.316-4.423,14.21-3.586,16.022,6.12
		c0.758,1.191-0.062,1.647-0.952,2.075c-3.285,6.44-7.645,12.393-10.106,19.22c-10.073,9.691-28.69,13.452-42.391,15.664
		c-7.952-0.924-16.905,0.326-22.643-5.401c-0.746-2.023-1.491-4.036-2.237-6.06c5.477-11.821,23.742-9.777,32.515-5.13
		c-4.177-5.961-12.072-15.271-8.387-22.707c1.413-7.803,13.69-11.212,18.725-5.199c1.488-0.502,1.861,1.418,2.633,2.472
		c2.239,6.056,4.475,12.109,6.71,18.166C56.827,159.59,59.847,153.028,58.042,150.347z"/>
	<path display="inline" fill-rule="evenodd" clip-rule="evenodd" fill="#589B45" d="M102.182,178.359
		c2.462-6.828,6.821-12.779,10.106-19.221c0.716,7.869-5.644,12.482-8.59,18.66C103.192,177.986,102.689,178.172,102.182,178.359z"
		/>
	<path display="inline" fill-rule="evenodd" clip-rule="evenodd" fill="#589B45" d="M71.554,136.55
		c2.159,3.837,3.717,16.181,6.948,9.486c1.806,2.682-1.215,9.243-2.868,6.215c-2.235-6.057-4.471-12.11-6.71-18.166
		C70.414,133.582,70.784,135.502,71.554,136.55z"/>
	<path display="inline" fill-rule="evenodd" clip-rule="evenodd" fill="#CDC8CC" d="M-665.115-289.872
		c6.43,4.114,18.433,6.173,21.311,11.602C-650.237-282.387-662.24-284.446-665.115-289.872z"/>
	<path display="inline" fill-rule="evenodd" clip-rule="evenodd" fill="#589B45" d="M-616.965-251.677
		c-14.486-1.588-31.227,12.049-43.85,6.439c-11.081-4.922-11.324-10.536-5.641-18.599
		C-658.143-275.638-628.87-264.466-616.965-251.677z"/>
	<path display="inline" fill-rule="evenodd" clip-rule="evenodd" fill="#94BF5F" d="M-636.712-305.216
		c7.045,1.862,8.727,5.703,5.414,11.385C-639.122-289.869-645.103-300.543-636.712-305.216z"/>
	<path display="inline" fill-rule="evenodd" clip-rule="evenodd" fill="#589B45" d="M-598.485-260.927
		c-0.438-15.651-7.716-28.781,0.661-47.685c2.629-0.567,5.535-0.375,7.89-1.694C-569.616-301.022-585.611-272.214-598.485-260.927z"
		/>
	<path display="inline" fill-rule="evenodd" clip-rule="evenodd" fill="#827552" d="M-623.824-194.41
		c3.683-8.188,16.959-17.361,28.402-15.34c0.738,2.158,1.531,4.301,2.371,6.422c-5.626,10.031-15.589,8.314-21.866,16.58
		c-4.935-1.424-4.766-4.729-7.44-6.986C-622.843-193.958-623.333-194.185-623.824-194.41z"/>
	<path display="inline" fill-rule="evenodd" clip-rule="evenodd" fill="#827552" d="M-543.536-210.89
		c-11.091,5.112-20.059,15.969-32.685,16.919c-12.689-16.191,19.232-20.522,27.947-29.769
		C-545.133-220.033-545.145-215.166-543.536-210.89z"/>
	<path display="inline" fill-rule="evenodd" clip-rule="evenodd" fill="#CD4048" d="M-573.501-153.615
		c-1.133-2.018-3.038-3.744-6.652-4.847c0.203-1.293-0.44-2.269-2.256-2.817c4.781-4.619,9.822-8.551,16.343-8.458
		C-555.061-164.039-566.131-153.513-573.501-153.615z"/>
	<path display="inline" fill-rule="evenodd" clip-rule="evenodd" fill="#E6CBA9" d="M-557.939-141.112
		c5.373,2.479,10.751,4.96,16.123,7.437C-544.991-132.192-557.008-137.734-557.939-141.112z"/>
	<path display="inline" fill-rule="evenodd" clip-rule="evenodd" fill="#CDC8CC" d="M-668.822-247.15
		c6.192,3.591,11.514,4.826,16.012,3.83C-655.505-239.469-666.853-242.041-668.822-247.15z"/>
	<path display="inline" fill-rule="evenodd" clip-rule="evenodd" fill="#E6CBA9" d="M-622.243-190.126
		c-5.691-7.633-8.85-16.199-9.478-25.697c2.911,7.031,3.563,14.902,7.896,21.414c0.491,0.225,0.98,0.451,1.467,0.676
		C-623.04-192.267-621.976-191.443-622.243-190.126z"/>
	<path display="inline" fill-rule="evenodd" clip-rule="evenodd" fill="#E6CBA9" d="M-618.041-191.924
		c5.979,5.496,12.972,10.62,17.141,16.789C-607.893-180.262-614.612-185.487-618.041-191.924z"/>
	<path display="inline" fill-rule="evenodd" clip-rule="evenodd" fill="#E6CBA9" d="M-540.353-133
		c5.015-0.803,8.164-8.623,8.228-13.981c3.493,4.148-2.107,14.103-6.761,14.656C-539.377-132.549-539.861-132.775-540.353-133z"/>
	<path display="inline" fill-rule="evenodd" clip-rule="evenodd" fill="#E6CBA9" d="M-532.696-165.014
		c-4.088-12.685-5.035-26.529-8.473-39.45C-535.779-192.259-534.591-178.509-532.696-165.014z"/>
	<path display="inline" fill-rule="evenodd" clip-rule="evenodd" fill="#E6CBA9" d="M-529.019-188.021
		c-5.166-17.555-11.049-34.852-16.815-52.184C-537.433-223.843-532.407-206.234-529.019-188.021z"/>
	<path display="inline" fill-rule="evenodd" clip-rule="evenodd" fill="#E6CBA9" d="M-597.017-260.251
		c8.563,0.127,15.341-4.578,25.249-0.803c-9.333-0.017-18.446,0.566-26.602,3.732C-597.917-258.3-597.468-259.275-597.017-260.251z"
		/>
	<path display="inline" fill-rule="evenodd" clip-rule="evenodd" fill="#CDC8CC" d="M-602.775-282.456
		c-2.436-5.997-4.053-12.293-1.359-20.177C-603.884-295.836-603.497-289.083-602.775-282.456z"/>
	<path display="inline" fill-rule="evenodd" clip-rule="evenodd" fill="#CDC8CC" d="M-601.976-257.205
		c-1.93-6.184-0.637-13.554-1.359-20.179C-600.394-271.575-601.362-264.327-601.976-257.205z"/>
	<path display="inline" fill-rule="evenodd" clip-rule="evenodd" fill="#CDC8CC" d="M-607.505-272.196
		c-4.362-13.8-7.591-28.018-15.007-40.69C-613.099-300.948-609.929-286.712-607.505-272.196z"/>
	<path display="inline" fill-rule="evenodd" clip-rule="evenodd" fill="#63855C" d="M-665.115-289.872
		c-25.54-27.182,22.01-55.286,42.603-23.015c7.416,12.673,10.645,26.89,15.007,40.69c-1.477,6.221,0.437,11.189,1.247,16.57
		c-0.226,0.49-0.449,0.976-0.676,1.466c-13.189-7.707-21.15-17.338-36.87-24.11C-646.682-283.699-658.685-285.758-665.115-289.872z
		 M-668.054-314.334c16.267-21.108,34.866,20.818,7.783,17.807c-8.364-0.241-6.96-10.3-10.374-8.337
		c5.218,20.78,44.867,28.863,60.664,45.745c-0.575-21.278-4.664-41.262-19.858-57.145c0.533,7.792-5.635,11.88-13.529,6.204
		c-4.264-6.569,10.603-10.261,3.944-12.4C-652.311-332.752-668.966-319.633-668.054-314.334z"/>
	<path display="inline" fill-rule="evenodd" clip-rule="evenodd" fill="#589B45" d="M-639.424-322.46
		c6.659,2.139-8.208,5.831-3.944,12.4c7.894,5.677,14.062,1.588,13.529-6.204c15.194,15.883,19.283,35.867,19.858,57.145
		c-15.797-16.882-55.446-24.965-60.664-45.745c3.414-1.963,2.009,8.096,10.374,8.337c27.083,3.011,8.484-38.915-7.783-17.807
		C-668.966-319.633-652.311-332.752-639.424-322.46z M-631.298-293.831c3.313-5.683,1.631-9.523-5.414-11.385
		C-645.103-300.543-639.122-289.869-631.298-293.831z"/>
	<path display="inline" fill-rule="evenodd" clip-rule="evenodd" fill="#94BF5F" d="M-668.822-247.15
		c-14.192-31.804,43.107-27.347,54.787-3.176c-0.226,0.487-0.45,0.976-0.677,1.467c-13.314,0.182-25.155,4.35-38.098,5.539
		C-657.308-242.324-662.63-243.56-668.822-247.15z M-666.457-263.836c-5.683,8.063-5.44,13.677,5.641,18.599
		c12.624,5.609,29.364-8.027,43.85-6.439C-628.87-264.466-658.143-275.638-666.457-263.836z"/>
	<path display="inline" fill-rule="evenodd" clip-rule="evenodd" fill="#94BF5F" d="M-604.134-302.633
		c27.848-29.679,35.272,31.511,7.117,42.382c-0.451,0.976-0.9,1.951-1.353,2.93c-0.496,0.857-1.021,1.635-2.142,0.791
		c-0.489-0.228-0.976-0.45-1.465-0.675c0.614-7.122,1.582-14.37-1.359-20.179c1.504-2.18-0.225-3.161,0.561-5.072
		C-603.497-289.083-603.884-295.836-604.134-302.633z M-589.934-310.306c-2.354,1.319-5.261,1.127-7.89,1.694
		c-8.377,18.904-1.099,32.033-0.661,47.685C-585.611-272.214-569.616-301.022-589.934-310.306z"/>
	<path display="inline" fill-rule="evenodd" clip-rule="evenodd" fill="#E6CBA9" d="M-618.203-245.139
		c0.676-2.555,2.546-1.885,3.49-3.721c0.227-0.491,0.451-0.979,0.677-1.467c2.642-0.525,4.729-2.558,7.102-3.834
		c0.227-0.49,0.45-0.976,0.676-1.466c1.602-0.047,3.214-0.081,4.282-1.579c0.489,0.225,0.976,0.447,1.465,0.675
		C-606.215-252.208-612.193-248.629-618.203-245.139z"/>
	<path display="inline" fill-rule="evenodd" clip-rule="evenodd" fill="#AF987B" d="M-631.72-215.824
		c1.302-11.53,5.964-20.323,13.518-29.315c6.01-3.49,11.987-7.069,17.691-11.392c1.121,0.844,1.646,0.066,2.142-0.791
		c8.155-3.166,17.269-3.749,26.602-3.732c14.694,4.723,18.497,13.455,25.935,20.849c5.766,17.332,11.649,34.629,16.815,52.184
		c-0.225,0.488-0.453,0.979-0.678,1.469c3.438,12.922,4.385,26.766,8.473,39.451c-2.09,6.854,0.982,11.801,0.572,18.033
		c-0.064,5.357-3.213,13.178-8.229,13.98c-0.486-0.225-0.975-0.451-1.463-0.676c-5.373-2.477-10.75-4.957-16.124-7.436
		c-3.318-4.855-13.131-7.318-15.562-12.504c7.37,0.102,18.44-10.424,7.435-16.121c-6.521-0.094-11.562,3.838-16.343,8.457
		c1.815,0.549,2.459,1.525,2.256,2.818c-8.394-5.012-11.843-11.85-20.747-16.674c-4.169-6.17-11.162-11.293-17.141-16.789
		c-5.737-5.186-8.877-11.326-15.675-16.115c0.267-1.316-0.797-2.141-0.114-3.607c2.675,2.258,2.506,5.563,7.44,6.986
		c6.277-8.266,16.24-6.549,21.866-16.58c-0.84-2.121-1.633-4.264-2.371-6.422c-11.443-2.021-24.72,7.152-28.402,15.34
		C-628.158-200.921-628.809-208.792-631.72-215.824z M-536.8-205.828c-8.715,9.246-40.637,13.578-27.947,29.77
		c12.626-0.951,21.594-11.807,32.684-16.92C-533.671-197.253-533.659-202.121-536.8-205.828z"/>
	<path display="inline" fill-rule="evenodd" clip-rule="evenodd" fill="#969696" d="M-457.919-224.438c0.537,0,1.074,0,1.611,0
		c0,5.384,0,10.763,0,16.14c-0.133,2.555,0.779,6.154-1.611,6.457C-457.919-209.375-457.919-216.906-457.919-224.438z"/>
	<path display="inline" fill-rule="evenodd" clip-rule="evenodd" fill="#969696" d="M-456.308-224.438
		c1.813,0.341,2.515,1.793,3.23,3.23c-4.662,0.716,1.432,12.195-3.23,12.91C-456.308-213.675-456.308-219.055-456.308-224.438z"/>
	<path display="inline" fill-rule="evenodd" clip-rule="evenodd" fill="#CDC8CC" d="M-477.289-280.926
		c4.529,6.215,1.805,18.969-9.682,14.528c0.202-3.567,6.848-0.689,9.682-1.616C-477.289-272.315-477.289-276.622-477.289-280.926z"
		/>
	<path display="inline" fill-rule="evenodd" clip-rule="evenodd" fill="#969696" d="M-533.401-103.667
		c5.779-7.131,12.234-13.585,19.364-19.364C-519.816-115.902-526.273-109.447-533.401-103.667z"/>
	<path display="inline" fill-rule="evenodd" clip-rule="evenodd" fill="#63855C" d="M-477.289-280.926
		c0.266-5.11-4.289-5.398-3.227-11.296c5.052,0.329,11.847-1.089,14.525,1.61c1.189,9.639,0.872,15.269-1.613,24.214
		c12.514,9.004,21.007,22.032,19.367,45.189c-1.61,0-3.228,0-4.841,0c-0.716-1.438-1.418-2.89-3.23-3.23c-0.537,0-1.074,0-1.611,0
		c0-0.533,0-1.07,0-1.61c-3.654-3.88-6.007-9.062-11.301-11.302c-5.763,1.772-6.308,8.762-9.686,12.912
		c-2.116,0.569-2.534,2.844-4.838,3.23c-5.121-4.026-2.699-15.597-8.071-19.367c-2.439,4.019-10.893,2.023-14.526,4.841
		c-2.488-3.429-11.151-0.684-12.913-4.841c9.861-9.509,18.101-20.635,32.283-25.822
		C-475.484-261.957-472.76-274.711-477.289-280.926z"/>
	<path display="inline" fill-rule="evenodd" clip-rule="evenodd" fill="#366B34" d="M-478.905-224.438
		c3.378-4.15,3.923-11.14,9.686-12.912c5.294,2.24,7.646,7.422,11.301,11.302c-3.914-2.549-7.142-5.779-9.685-9.686
		C-474.806-235.399-473.276-226.338-478.905-224.438z"/>
	<path display="inline" fill-rule="evenodd" clip-rule="evenodd" fill="#969696" d="M-535.018-103.667
		c6.322-7.661,13.313-14.656,20.98-20.981c0,0.537,0,1.077,0,1.617c-7.13,5.779-13.585,12.233-19.364,19.364
		C-533.94-103.667-534.48-103.667-535.018-103.667z"/>
	<path display="inline" fill-rule="evenodd" clip-rule="evenodd" fill="#969696" d="M-552.77-92.363
		c3.979-5.171,11.344-6.957,16.139-11.305C-540.029-97.92-546.888-95.628-552.77-92.363z"/>
	<path display="inline" fill-rule="evenodd" clip-rule="evenodd" fill="#B597B1" d="M-549.92-185.699
		c16.021-13.576,29.693-29.486,41.968-46.805C-518.546-213.511-532.68-198.052-549.92-185.699z"/>
	<path display="inline" fill="none" d="M-612.203-107.551c-4.442,3.756-9.673,6.747-15.746,8.682
		c-2.241,0.829-4.482,1.656-6.724,2.484c11.992,1.091,24.315,1.588,36.609,1.492C-603.818-98.071-608.675-102.288-612.203-107.551z"
		/>
	<path display="inline" fill="none" d="M-727.516-152.309c-3.38,3.699-5.466,8.084-5.53,13.378
		c-0.105,8.711,6.523,15.625,15.78,21.093C-724.185-128.339-728.107-140.476-727.516-152.309z"/>
	<path display="inline" fill="none" d="M-509.568-108.232c-0.54,0-1.074,0-1.613,0c-0.856,0.776-1.796,1.469-2.782,2.115
		c19.821-5.666,44.917-15.449,44.917-32.814c0-5.554-2.287-10.141-6-14c-4.294,8.127-8.942,15.898-13.542,23.719
		C-496.255-122.888-503.246-115.892-509.568-108.232z"/>
	<path display="inline" d="M-464.829-175.518c-2.938,7.996-6.437,15.433-10.217,22.587c3.713,3.859,6,8.446,6,14
		c0,17.365-25.096,27.148-44.917,32.814c-4.537,2.976-10.088,4.942-13.357,9.189c-22.622,11.73-51.613,12.601-70.743,2.034
		c-12.293,0.096-24.617-0.401-36.609-1.492c-4.319,1.597-8.637,3.193-12.958,4.788c-27.067,10.791-55.028-4.071-69.636-26.241
		c-9.256-5.468-15.885-12.382-15.78-21.093c0.064-5.294,2.15-9.679,5.53-13.378c0.605-12.117,5.935-23.911,17.631-33.29
		c3.532-1.305,7.063-2.606,10.598-3.911c8.057-1.301,17.806-3.149,26.526-6.412c0.459-1.824,0.762-3.5,0.716-5.009
		c-43.708,10.266-99.276,27.012-84,90c2.577,10.624,12.147,16.047,15,25c4.565,14.326,3.072,34.439,5,52
		c3.992,36.361,7.406,68.614,11,105c3.391,34.325,3.857,59.051,23,74c43.5,33.972,175.361,33.183,211-8
		c12.762-14.749,11.32-42.44,14-68c3.68-35.085,7.611-67.839,11-103c1.709-17.743,0.613-38.259,5-52c3.16-9.902,12.406-13.726,15-24
		C-438.151-141.211-447.191-161.721-464.829-175.518z"/>
	<path display="inline" fill="#969696" d="M-612.203-107.551c3.528,5.264,8.385,9.48,14.14,12.658
		c26.803-0.207,53.436-3.22,76.018-9.038c2.527-0.651,5.251-1.377,8.083-2.186c0.986-0.646,1.926-1.339,2.782-2.115
		c0.539,0,1.073,0,1.613,0c6.322-7.66,13.313-14.656,20.98-20.98c4.6-7.82,9.248-15.592,13.542-23.719
		c-11.669-12.125-37.468-17.037-51-22c0.391-10.391-0.877-19.122-5-25c0.189-1.136,1.004-0.556,1,0
		c24.714,4.478,48.724,11.511,65.217,24.413c2.977-8.102,5.384-16.772,6.91-26.323c0-7.533,0-15.065,0-22.597c0-0.533,0-1.07,0-1.61
		c-3.914-2.549-7.142-5.779-9.685-9.686c-7.202,0.335-5.673,9.396-11.302,11.296c-2.116,0.569-2.534,2.844-4.838,3.23
		c-5.121-4.026-2.699-15.597-8.071-19.367c-2.439,4.019-10.893,2.023-14.526,4.841c0.006,1.623-1.308,1.923-1.611,3.23
		c-10.594,18.993-24.728,34.452-41.968,46.805c-13.115,7.822-30.262,12.173-44.163,19.088
		C-590.429-145.306-595.987-121.263-612.203-107.551z"/>
	<path display="inline" d="M-598.063-94.893c19.13,10.566,48.121,9.696,70.743-2.034c3.269-4.247,8.82-6.214,13.357-9.189
		c-2.832,0.809-5.555,1.534-8.083,2.186C-544.628-98.113-571.26-95.1-598.063-94.893z"/>
	<path display="inline" fill="#969696" d="M-531.046-199.931c4.123,5.878,5.391,14.609,5,25c13.532,4.963,39.331,9.875,51,22
		c3.78-7.154,7.279-14.591,10.217-22.587c-16.493-12.902-40.502-19.936-65.217-24.413
		C-530.042-200.487-530.856-201.067-531.046-199.931z"/>
	<path display="inline" fill="#8D2D38" d="M-676.046-174.931c-13.127,5.343-39.901,9.957-51.47,22.622
		c-0.591,11.833,3.331,23.97,10.25,34.471c10.974,6.482,25.645,10.931,37.22,13.907c13.924,3.581,29.35,6.089,45.374,7.546
		c2.241-0.828,4.483-1.655,6.724-2.484c6.073-1.935,11.303-4.926,15.746-8.682c-2.642-3.94-4.542-8.466-5.503-13.591
		c-4.773-25.469,7.145-37.271,23.623-45.469c-4.922-28.695-26.54-52.403-61.297-39.123c-0.507,0.188-1.01,0.372-1.517,0.56
		c-4.149,3.992-9.757,6.966-15.865,9.252C-674.19-190.248-677.159-183.115-676.046-174.931z"/>
	<path display="inline" d="M-717.266-117.838c14.608,22.17,42.568,37.032,69.636,26.241c4.321-1.595,8.639-3.191,12.958-4.788
		c-16.024-1.457-31.449-3.965-45.374-7.546C-691.622-106.908-706.292-111.356-717.266-117.838z"/>
	<path display="inline" fill="#8D2D38" d="M-709.885-185.599c-11.696,9.379-17.025,21.173-17.631,33.29
		c11.569-12.665,38.343-17.279,51.47-22.622c-1.113-8.184,1.855-15.316,3.284-20.991c-8.72,3.263-18.469,5.111-26.526,6.412
		C-702.823-188.206-706.353-186.904-709.885-185.599z"/>
	<path display="inline" fill="#8D2D38" d="M-617.706-121.142c0.961,5.125,2.861,9.65,5.503,13.591
		c16.216-13.712,21.774-37.755,18.12-59.06C-610.562-158.414-622.479-146.611-617.706-121.142z"/>
	<path display="inline" fill-rule="evenodd" clip-rule="evenodd" fill="#E6CBA9" d="M-701.47-199.222
		c5.738,5.728,14.691,4.478,22.643,5.401c-3.535,1.305-7.065,2.606-10.598,3.911C-687.327-194.072-697.757-192.525-701.47-199.222z"
		/>
	<path display="inline" fill-rule="evenodd" clip-rule="evenodd" fill="#CDC8CC" d="M-613.905-212.867
		c-1.813-9.707-7.706-10.543-16.022-6.121c2.573-6.296,11.598-3.52,14.741-2.007C-615.202-218.485-610.524-213.824-613.905-212.867z
		"/>
	<path display="inline" fill-rule="evenodd" clip-rule="evenodd" fill="#CDC8CC" d="M-655.592-233.381
		c5.478,8.732,6.28,8.106,10.206-0.326c0.274,3.897-3.535,5.912-3.258,9.813C-651.875-217.201-653.433-229.544-655.592-233.381z"/>
	<path display="inline" fill-rule="evenodd" clip-rule="evenodd" fill="#CDC8CC" d="M-682.432-237.036
		c-4.102-1.616-12.641-3.302-16.258,2.563c0.147-7.649,12.136-5.831,15.698-4.076C-682.806-238.042-682.62-237.538-682.432-237.036z
		"/>
	<path display="inline" fill-rule="evenodd" clip-rule="evenodd" fill="#589B45" d="M-698.69-234.472
		c3.617-5.865,12.156-4.18,16.258-2.563c0.374,1.011,0.747,2.024,1.117,3.028c-5.034-6.013-17.312-2.604-18.725,5.199
		C-699.192-230.514-700.673-233.294-698.69-234.472z"/>
	<path display="inline" fill-rule="evenodd" clip-rule="evenodd" fill="#366B34" d="M-669.104-219.584
		c-0.277-3.9,3.532-5.915,3.258-9.813c2.603-0.479,2.077-2.39,3.985-3.192c8.316-4.423,14.21-3.586,16.022,6.12
		c0.758,1.191-0.062,1.647-0.952,2.075c-3.285,6.44-7.645,12.393-10.106,19.22c-10.073,9.691-28.69,13.452-42.391,15.664
		c-7.952-0.924-16.905,0.326-22.643-5.401c-0.746-2.023-1.491-4.036-2.237-6.06c5.477-11.821,23.742-9.777,32.515-5.13
		c-4.177-5.961-12.072-15.271-8.387-22.707c1.413-7.803,13.69-11.212,18.725-5.199c1.488-0.502,1.861,1.418,2.633,2.472
		c2.239,6.056,4.475,12.109,6.71,18.166C-670.319-210.341-667.298-216.903-669.104-219.584z"/>
	<path display="inline" fill-rule="evenodd" clip-rule="evenodd" fill="#589B45" d="M-624.963-191.572
		c2.462-6.828,6.821-12.779,10.106-19.221c0.716,7.869-5.644,12.482-8.59,18.66C-623.954-191.945-624.457-191.759-624.963-191.572z"
		/>
	<path display="inline" fill-rule="evenodd" clip-rule="evenodd" fill="#589B45" d="M-655.592-233.381
		c2.159,3.837,3.717,16.181,6.948,9.486c1.806,2.682-1.215,9.243-2.868,6.215c-2.235-6.057-4.471-12.11-6.71-18.166
		C-656.732-236.349-656.361-234.429-655.592-233.381z"/>
	<g display="inline">
		<path fill-rule="evenodd" clip-rule="evenodd" fill="#FFFFFF" d="M-551.112,10.312c-3.854-10.189-12.458-15.63-23.914-18.22
			c-3.082-1.891-13.999-1.891-17.082,0c-1.518,0-3.036,0-4.555,0c-0.918-12.447-14.56-24.048-25.052-19.359
			c8.241,5.045,19.393,7.179,20.498,19.359c-1.139,0-2.277,0-3.416,0c-3.082-1.891-13.999-1.891-17.082,0
			c-11.454,2.59-20.058,8.031-23.914,18.22c31.62-1.313,29.044,45.977,2.277,47.828c6.958,8.605,13.279,17.847,26.191,20.498
			c9.88,1.896,27.699,1.896,37.578,0c12.904-3.038,20.196-11.689,26.191-21.637C-581.63,56.664-581.604,8.223-551.112,10.312z
			 M-618.297-4.492c3.796,0,7.591,0,11.388,0c4.791,2.849,12.29,2.849,17.08,0c3.797,0,7.593,0,11.388,0
			c5.146,0.928,8.855,3.293,13.666,4.556c4.355,4.689-7.37,0.203-7.972,3.415c-6.438-0.746-6.27,5.117-11.387,5.694
			c-5.26-10.412-24.515-6.962-30.746,0c-1.964-2.969-4.097-5.772-9.11-5.694c-0.848-2.567-6.387-0.445-9.11-1.138
			c0.216-0.922,1.143-1.136,1.139-2.277C-627.151-1.199-623.442-3.563-618.297-4.492z M-581.858,75.221c-11.007,0-22.015,0-33.023,0
			c-4.223-0.71-6.668-3.202-10.249-4.555c-0.451-1.578-6.465-3.227-3.416-4.555c2.359-0.677,7.48,1.408,7.971-1.139
			c2.417,2.147,5.724-5.543,7.972-5.694c3.982-0.268,7.598,8.805,18.219,6.833c8.193-1.521,9.913-10.018,18.22-1.139
			c5.717,1.697,12.413,1.212,4.555,5.693C-575.19,72.019-577.634,74.511-581.858,75.221z M-563.638,60.417
			c-4.02,1.993-9.372,0.897-13.665,0c-3.464-8.75-10.695-6.755-14.804,0c-2.332,1.763-10.194,1.763-12.525,0
			c-4.087-1.227-3.338-7.291-9.11-6.833c-1.754,2.421-4.11,4.24-5.693,6.833c-4.293,0.897-9.646,1.993-13.665,0
			c19.69-8.861,20.098-44.818,0-53.521c10.658-1.548,14.413,3.808,18.22,9.11c5.897-0.936,6.67-6.996,11.388-9.11
			c12.196-2.328,14.624,5.115,20.497,9.11c5.598-3.892,7.766-11.214,19.359-9.11C-583.735,15.599-583.328,51.556-563.638,60.417z"/>
		<path fill-rule="evenodd" clip-rule="evenodd" fill="#FFFFFF" d="M-610.326,41.058c5.574,5.494,5.838-10.024,3.417-12.526
			C-613.005,22.517-612.48,38.824-610.326,41.058z"/>
		<path fill-rule="evenodd" clip-rule="evenodd" fill="#FFFFFF" d="M-589.83,28.532c-2.421,2.502-2.157,18.02,3.417,12.526
			C-584.259,38.824-583.733,22.517-589.83,28.532z"/>
	</g>
</g>
<g id="图层_3">
	<g>
		<path fill-rule="evenodd" clip-rule="evenodd" fill="#CDC8CC" d="M134.604,29.095c0.116,8.294-4.856,20.559-1.493,26.327
			C132.997,47.122,137.969,34.857,134.604,29.095z"/>
		<path fill-rule="evenodd" clip-rule="evenodd" fill="#589B45" d="M142.294,95.437c6.832-14.28,29.016-21.93,31.072-36.802
			c1.801-13.052-3.245-16.494-13.946-15.865C143.757,43.69,137.306,77.129,142.294,95.437z"/>
		<path fill-rule="evenodd" clip-rule="evenodd" fill="#94BF5F" d="M104.164,46.535c-2.316,7.573,0.266,11.327,7.412,11.521
			C119.717,53.1,113.286,41.461,104.164,46.535z"/>
		<path fill-rule="evenodd" clip-rule="evenodd" fill="#589B45" d="M123.165,107.209c-14.203-9.368-22.159-23.611-44.415-26.705
			c-2.029,2.102-3.52,4.897-6.086,6.315C69.599,110.901,105.369,112.636,123.165,107.209z"/>
		<path fill-rule="evenodd" clip-rule="evenodd" fill="#CB963E" d="M199.111,121.916c-9.673-1.29-25.748,5.716-30.44,17.443
			c1.572,1.919,3.097,3.877,4.577,5.869c12.487,0.549,16.607-9.635,27.833-10.698c1.516-5.37-1.633-7.109-2.187-10.87
			C198.966,123.08,199.038,122.499,199.111,121.916z"/>
		<path fill-rule="evenodd" clip-rule="evenodd" fill="#CB963E" d="M147.864,207.481c11.074-7.319,26.243-9.378,34.35-20.496
			c-7.687-20.994-29.97,6.008-43.501,8.757C140.334,200.768,144.838,203.544,147.864,207.481z"/>
		<path fill-rule="evenodd" clip-rule="evenodd" fill="#CB963E" d="M217.927,212.62c-1.213-2.202-1.718-4.954-0.667-8.922
			c-1.307-0.553-1.84-1.707-1.307-3.696c-7.009,1.77-13.526,4.169-17.176,10.246C197.736,223.675,213.799,219.482,217.927,212.62z"
			/>
		<path fill-rule="evenodd" clip-rule="evenodd" fill="#F7B049" d="M220.561,234.15c-0.79,6.385-1.583,12.771-2.372,19.156
			C221.377,251.221,223.145,236.952,220.561,234.15z"/>
		<path fill-rule="evenodd" clip-rule="evenodd" fill="#CDC8CC" d="M176.184,50.148c-0.232,7.774-2.142,13.396-5.635,16.979
			C175.647,66.844,179.776,54.892,176.184,50.148z"/>
		<path fill-rule="evenodd" clip-rule="evenodd" fill="#F7B049" d="M202.158,125.828c-3.787-9.625-9.887-17.45-18.299-23.469
			c4.827,6.716,11.72,11.823,15.252,19.557c-0.073,0.583-0.146,1.164-0.217,1.744C200.64,123.867,200.791,125.323,202.158,125.828z"
			/>
		<path fill-rule="evenodd" clip-rule="evenodd" fill="#F7B049" d="M208.062,149.54c1.653,8.67,2.378,18.061,5.687,25.445
			C213.019,165.593,212.043,156.394,208.062,149.54z"/>
		<path fill-rule="evenodd" clip-rule="evenodd" fill="#F7B049" d="M217.975,255.045c-3.616,4.166-12.643,2.598-17.625-0.415
			c1.826,5.601,14.229,6.135,17.408,2.156C217.829,256.199,217.902,255.622,217.975,255.045z"/>
		<path fill-rule="evenodd" clip-rule="evenodd" fill="#F7B049" d="M184.021,243.771c-9.375-11.044-21.615-19.847-31.58-30.425
			C160.625,225.313,172.643,234.296,184.021,243.771z"/>
		<path fill-rule="evenodd" clip-rule="evenodd" fill="#F7B049" d="M150.698,213.128c-13.25-14.83-25.855-30.168-38.562-45.421
			C122.438,184.841,135.818,199.572,150.698,213.128z"/>
		<path fill-rule="evenodd" clip-rule="evenodd" fill="#F7B049" d="M122.948,108.952c-4.791,7.979-13.017,11.543-15.205,22.862
			c5.331-8.633,11.088-16.715,18.686-22.432C125.269,109.239,124.109,109.094,122.948,108.952z"/>
		<path fill-rule="evenodd" clip-rule="evenodd" fill="#CDC8CC" d="M105.738,90.914c-4.142-5.685-9.029-10.786-17.852-12.813
			C94.019,82.224,100.034,86.449,105.738,90.914z"/>
		<path fill-rule="evenodd" clip-rule="evenodd" fill="#CDC8CC" d="M128.604,106.117c-4.606-5.324-12.153-8.352-17.858-12.813
			C114.424,99.346,121.671,102.606,128.604,106.117z"/>
		<path fill-rule="evenodd" clip-rule="evenodd" fill="#CDC8CC" d="M117.923,92.42C107.683,80.489,96.4,69.36,88.946,55.254
			C94.578,70.785,105.908,81.866,117.923,92.42z"/>
		<path fill-rule="evenodd" clip-rule="evenodd" fill="#94BF5F" d="M133.111,55.422c-2.753,18.397,1.582,31.27,1.144,47.859
			c-0.582-0.072-1.16-0.142-1.739-0.213c-4.507-3.83-7.999-8.446-14.592-10.647C107.683,80.489,96.4,69.36,88.946,55.254
			c-18.007-37.506,35.19-65.318,45.658-26.16C134.72,37.389,129.748,49.654,133.111,55.422z M89.792,34.149
			c-1.841,7.377,10.085-4.238,13.71,3.464c0.719,10.543-6.588,13.895-13.48,8.938c5.963,23.129,22.076,38.361,41.398,51.076
			c-6.54-24.258,8.71-65.504-7.492-82.229c-3.767,2.028,6.324,6.494,1.756,14.356c-12.734,26.737-40.798-14.458-11.986-17.39
			C109.329,8.487,87.671,16.354,89.792,34.149z"/>
		<path fill-rule="evenodd" clip-rule="evenodd" fill="#589B45" d="M113.698,12.365c-28.812,2.932-0.748,44.127,11.986,17.39
			c4.568-7.863-5.523-12.329-1.756-14.356c16.202,16.725,0.953,57.971,7.492,82.229c-19.322-12.715-35.435-27.947-41.398-51.076
			c6.893,4.957,14.199,1.605,13.48-8.938c-3.625-7.702-15.552,3.914-13.71-3.464C87.671,16.354,109.329,8.487,113.698,12.365z
			 M104.164,46.535c-2.316,7.573,0.266,11.327,7.412,11.521C119.717,53.1,113.286,41.461,104.164,46.535z"/>
		<path fill-rule="evenodd" clip-rule="evenodd" fill="#94BF5F" d="M170.549,67.127c-8.516,11.269-19.147,19.818-26.942,32.009
			c-0.584-0.072-1.163-0.144-1.745-0.216c-15.629-24.634,13.081-80.103,34.322-48.772C175.952,57.922,174.042,63.544,170.549,67.127
			z M142.294,95.437c6.832-14.28,29.016-21.93,31.072-36.802c1.801-13.052-3.245-16.494-13.946-15.865
			C143.757,43.69,137.306,77.129,142.294,95.437z"/>
		<path fill-rule="evenodd" clip-rule="evenodd" fill="#94BF5F" d="M105.738,90.914c2.217,0.373,2.135,2.532,5.007,2.391
			c3.679,6.042,10.925,9.302,17.858,12.813c-0.074,0.58-0.145,1.157-0.217,1.741c0.136,1.519-0.882,1.556-1.958,1.524
			c-1.16-0.144-2.319-0.289-3.481-0.43c-26.171,19.772-78.425-22.136-35.062-30.852C94.019,82.224,100.034,86.449,105.738,90.914z
			 M123.165,107.209c-14.203-9.368-22.159-23.611-44.415-26.705c-2.029,2.102-3.52,4.897-6.086,6.315
			C69.599,110.901,105.369,112.636,123.165,107.209z"/>
		<path fill-rule="evenodd" clip-rule="evenodd" fill="#E6CBA9" d="M149.04,98.044c-2.746-0.837-3.2,1.273-5.433,1.092
			c-0.584-0.072-1.163-0.144-1.745-0.216c-1.998,2.142-5.071,2.908-7.607,4.36c-0.582-0.072-1.16-0.142-1.739-0.213
			c-0.963,1.453-1.916,2.924-3.912,3.05c-0.074,0.58-0.145,1.157-0.217,1.741C135.647,105.066,142.374,101.596,149.04,98.044z"/>
		<path fill-rule="evenodd" clip-rule="evenodd" fill="#F7B049" d="M199.111,121.916c-9.673-1.29-25.748,5.716-30.44,17.443
			c1.572,1.919,3.097,3.877,4.577,5.869c12.487,0.549,16.607-9.635,27.833-10.698c1.516-5.37-1.633-7.109-2.187-10.87
			c1.745,0.207,1.896,1.663,3.264,2.168c0.53,9.022,4.403,15.438,5.903,23.711c1.653,8.67,2.378,18.061,5.687,25.445
			c-0.646,10.991,3.69,18.091,3.512,28.714c-1.307-0.553-1.84-1.707-1.307-3.696c-7.009,1.77-13.526,4.169-17.176,10.246
			c-1.041,13.427,15.021,9.234,19.149,2.372c3.394,5.211,0.05,15.687,2.634,21.53c-0.79,6.385-1.583,12.771-2.372,19.156
			c-0.071,0.578-0.143,1.157-0.214,1.738c-3.616,4.166-12.643,2.598-17.625-0.415c-5.992-3.193-8.803-8.864-16.329-10.859
			c-9.375-11.044-21.615-19.847-31.58-30.425c-0.58-0.073-1.163-0.146-1.743-0.218c-13.25-14.83-25.855-30.168-38.562-45.421
			c-2.565-11.105-8.451-19.62-4.393-35.893c5.331-8.633,11.088-16.715,18.686-22.432c1.076,0.032,2.094-0.005,1.958-1.524
			c7.261-2.792,13.987-6.262,20.653-9.814c12.632-1.822,23.425-1.089,34.819,4.314C188.686,109.075,195.579,114.182,199.111,121.916
			z M147.864,207.481c11.074-7.319,26.243-9.378,34.35-20.496c-7.687-20.994-29.97,6.008-43.501,8.757
			C140.334,200.768,144.838,203.544,147.864,207.481z"/>
	</g>
	<path fill-rule="evenodd" clip-rule="evenodd" fill="#42358B" d="M274.016,150.528c0.585,0,1.171,0,1.753,0
		c0,5.85,0,11.696,0,17.54c-0.143,2.777,0.845,6.688-1.753,7.019C274.016,166.897,274.016,158.713,274.016,150.528z"/>
	<path fill-rule="evenodd" clip-rule="evenodd" fill="#42358B" d="M221.394,138.251c3.949-3.062,13.136-0.894,15.786-5.261
		c5.839,4.098,3.205,16.671,8.772,21.048c2.501-0.42,2.958-2.893,5.26-3.51c6.117-2.064,4.455-11.912,12.279-12.276
		c2.766,4.245,6.274,7.755,10.524,10.525c0,0.587,0,1.17,0,1.751c0,8.185,0,16.37,0,24.558c-5.157,32.26-19.47,55.369-33.327,78.93
		c-8.333,6.875-15.935,14.476-22.804,22.802c-0.585,0-1.168,0-1.753,0c-5.212,4.726-13.214,6.667-17.537,12.286
		c-37.519,19.454-91.155,11.426-98.23-26.316c-9.563-51.03,42.52-51.581,73.67-70.158c18.735-13.428,34.095-30.227,45.606-50.867
		C219.973,140.341,221.399,140.015,221.394,138.251z"/>
	<path fill-rule="evenodd" clip-rule="evenodd" fill="#CDC8CC" d="M275.769,150.528c1.968,0.371,2.731,1.948,3.511,3.51
		c-5.067,0.778,1.556,13.251-3.511,14.029C275.769,162.224,275.769,156.378,275.769,150.528z"/>
	<path fill-rule="evenodd" clip-rule="evenodd" fill="#CDC8CC" d="M252.968,89.138c4.922,6.754,1.96,20.614-10.523,15.79
		c0.217-3.877,7.439-0.75,10.523-1.757C252.968,98.496,252.968,93.815,252.968,89.138z"/>
	<path fill-rule="evenodd" clip-rule="evenodd" fill="#CDC8CC" d="M219.641,276.817c6.282-7.749,13.296-14.764,21.048-21.045
		C234.407,263.522,227.389,270.537,219.641,276.817z"/>
	<path fill-rule="evenodd" clip-rule="evenodd" fill="#589B45" d="M252.968,89.138c0.286-5.553-4.665-5.867-3.509-12.276
		c5.488,0.358,12.878-1.183,15.784,1.751c1.297,10.475,0.949,16.593-1.752,26.315c13.601,9.785,22.828,23.943,21.049,49.11
		c-1.753,0-3.509,0-5.261,0c-0.779-1.563-1.543-3.14-3.511-3.51c-0.582,0-1.168,0-1.753,0c0-0.581,0-1.164,0-1.751
		c-3.968-4.217-6.526-9.848-12.28-12.282c-6.262,1.927-6.855,9.521-10.523,14.033c-2.302,0.618-2.759,3.09-5.26,3.51
		c-5.567-4.376-2.934-16.95-8.772-21.048c-2.65,4.367-11.837,2.199-15.786,5.261c-2.706-3.727-12.119-0.744-14.033-5.261
		c10.717-10.334,19.671-22.425,35.084-28.063C254.928,109.752,257.89,95.892,252.968,89.138z"/>
	<path fill-rule="evenodd" clip-rule="evenodd" fill="#366B34" d="M251.212,150.528c3.668-4.512,4.262-12.106,10.523-14.033
		c5.754,2.435,8.313,8.065,12.28,12.282c-4.25-2.77-7.759-6.28-10.524-10.525C255.667,138.616,257.329,148.463,251.212,150.528z"/>
	<path fill-rule="evenodd" clip-rule="evenodd" fill="#B597B1" d="M217.885,276.817c6.869-8.326,14.471-15.927,22.804-22.802
		c0,0.584,0,1.171,0,1.757c-7.752,6.281-14.766,13.296-21.048,21.045C219.056,276.817,218.471,276.817,217.885,276.817z"/>
	<path fill-rule="evenodd" clip-rule="evenodd" fill="#42358B" d="M198.595,289.104c4.323-5.619,12.325-7.561,17.537-12.286
		C212.439,283.063,204.983,285.555,198.595,289.104z"/>
	<path fill-rule="evenodd" clip-rule="evenodd" fill="#42358B" d="M174.034,192.629c17.412-14.754,32.271-32.047,45.606-50.867
		C208.129,162.402,192.77,179.201,174.034,192.629z"/>
	<path fill-rule="evenodd" clip-rule="evenodd" fill="#CD4048" d="M50.08,183.093c3.839-1.419,7.675-2.833,11.518-4.252
		c14.89-2.402,35.122-6.491,46.069-17.021c0.55-0.205,1.097-0.406,1.647-0.609c73.5-28.082,92.955,96.021,29.813,116.139
		c-7.128,2.635-14.258,5.271-21.391,7.902C60.122,308.222-1.251,224.256,50.08,183.093z"/>
	<path fill-rule="evenodd" clip-rule="evenodd" fill="#42358B" d="M139.127,277.349c-2.365,3.98-17.007,9.393-21.391,7.902
		C124.87,282.619,131.999,279.983,139.127,277.349z"/>
	<path fill-rule="evenodd" clip-rule="evenodd" fill="#E6CBA9" d="M36.991,172.971c6.235,6.226,15.965,4.867,24.607,5.87
		c-3.842,1.419-7.678,2.833-11.518,4.252C52.36,178.568,41.025,180.25,36.991,172.971z"/>
	<path fill-rule="evenodd" clip-rule="evenodd" fill="#CDC8CC" d="M119.686,138.675c-1.972-10.548-8.375-11.458-17.414-6.651
		c2.797-6.843,12.604-3.825,16.021-2.181C118.275,132.57,123.359,137.636,119.686,138.675z"/>
	<path fill-rule="evenodd" clip-rule="evenodd" fill="#CDC8CC" d="M86.849,135.848c5.954,9.491,6.825,8.81,11.091-0.354
		c0.299,4.234-3.841,6.425-3.54,10.663C90.889,153.433,89.196,140.018,86.849,135.848z"/>
	<path fill-rule="evenodd" clip-rule="evenodd" fill="#CDC8CC" d="M79.916,127.193c-4.458-1.756-13.738-3.589-17.668,2.786
		c0.16-8.314,13.188-6.337,17.061-4.43C79.51,126.098,79.712,126.647,79.916,127.193z"/>
	<path fill-rule="evenodd" clip-rule="evenodd" fill="#589B45" d="M62.247,129.979c3.931-6.375,13.211-4.542,17.668-2.786
		c0.406,1.098,0.811,2.2,1.215,3.292c-5.473-6.535-18.815-2.831-20.351,5.65C61.701,134.28,60.092,131.258,62.247,129.979z"/>
	<path fill-rule="evenodd" clip-rule="evenodd" fill="#366B34" d="M94.401,146.157c-0.302-4.238,3.838-6.429,3.54-10.663
		c2.829-0.521,2.258-2.598,4.332-3.47c9.039-4.807,15.442-3.897,17.414,6.651c0.823,1.295-0.067,1.792-1.036,2.255
		c-3.571,6.999-8.308,13.469-10.983,20.889c-10.947,10.53-31.18,14.619-46.069,17.021c-8.642-1.003-18.372,0.355-24.607-5.87
		c-0.811-2.198-1.62-4.385-2.432-6.585c5.952-12.846,25.802-10.625,35.337-5.574c-4.54-6.479-13.121-16.597-9.116-24.677
		c1.536-8.48,14.878-12.185,20.351-5.65c1.616-0.547,2.021,1.54,2.86,2.685c2.434,6.582,4.864,13.16,7.293,19.744
		C93.08,156.202,96.362,149.072,94.401,146.157z"/>
	<path fill-rule="evenodd" clip-rule="evenodd" fill="#589B45" d="M107.667,161.819c2.675-7.42,7.412-13.89,10.983-20.889
		c0.777,8.553-6.133,13.565-9.336,20.279C108.764,161.413,108.217,161.614,107.667,161.819z"/>
	<path fill-rule="evenodd" clip-rule="evenodd" fill="#589B45" d="M86.849,135.848c2.347,4.17,4.04,17.585,7.552,10.31
		c1.961,2.915-1.321,10.045-3.117,6.755c-2.43-6.583-4.859-13.162-7.293-19.744C85.609,132.623,86.014,134.71,86.849,135.848z"/>
	<path fill="#FFFFFF" d="M208.871,252.369c0,40.998,33.98,74.233,75.896,74.233c41.919,0,75.899-33.235,75.899-74.233
		c0-41.004-33.98-74.239-75.899-74.239C242.852,178.13,208.871,211.365,208.871,252.369z"/>
	<g>
		<path fill="#FFFFFF" d="M234.036,203.516c-10.724,11.136-18.996,27.612-20.036,44.791c-2.578,42.527,29.768,71.831,66.009,74.259
			c26.637,1.787,47.141-11.304,58.935-24.752c7.205-8.215,15.239-23.872,16.502-38.897c0.834-9.925-0.68-12.099-5.303-12.377
			c-8.959-0.54-6.061,8.205-7.663,17.092c-2.414,13.395-10.684,25.762-18.271,32.414c-7.366,6.462-20.458,13.646-34.772,14.735
			c-35.046,2.658-67.313-24.816-63.061-66.011c2.919-28.276,26.584-46.464,48.328-50.094c5.407-0.904,16.78,0.692,16.5-7.071
			c-0.233-6.478-7.284-5.797-12.965-5.306C259.102,183.957,244.726,192.42,234.036,203.516z M309.476,198.802
			c7.25-0.032,8.232-15.309-2.358-11.197C300.202,190.286,304.948,198.819,309.476,198.802z M335.996,208.23
			c1.079-5.414-2.516-7.816-6.482-7.072C315.712,203.752,333.542,220.546,335.996,208.23z M282.955,209.998
			c-3.934,11.392-0.73,29.92-1.77,44.203c3.72,3.432,8.906,5.43,15.325,9.43c5.033,3.139,19.857,15.108,20.036,4.126
			c0.072-4.313-8.952-7.912-12.377-10.021c-5.654-3.479-9.813-5.689-14.144-8.84c-0.708-12.45,1.468-27.793-1.179-38.31
			C286.953,209.463,285.353,209.355,282.955,209.998z M344.837,233.573c6.877-0.328,7.898-14.606-2.357-11.197
			C335.049,224.844,339.624,233.821,344.837,233.573z"/>
		<path fill="#010101" d="M278.239,182.299c5.681-0.491,12.731-1.172,12.965,5.306c0.281,7.764-11.093,6.167-16.5,7.071
			c-21.744,3.63-45.409,21.817-48.328,50.094c-4.254,41.194,28.015,68.669,63.061,66.011c14.314-1.089,27.406-8.273,34.772-14.735
			c7.587-6.652,15.856-19.02,18.271-32.414c1.603-8.887-1.296-17.632,7.663-17.092c4.623,0.278,6.137,2.452,5.303,12.377
			c-1.263,15.025-9.297,30.683-16.502,38.897c-11.794,13.448-32.298,26.539-58.935,24.752
			c-36.241-2.428-68.587-31.731-66.009-74.259c1.04-17.179,9.313-33.655,20.036-44.791
			C244.726,192.42,259.102,183.957,278.239,182.299z"/>
		<path fill="#010101" d="M307.117,187.604c10.591-4.111,9.608,11.165,2.358,11.197
			C304.948,198.819,300.202,190.286,307.117,187.604z"/>
		<path fill="#010101" d="M329.514,201.158c3.967-0.744,7.562,1.658,6.482,7.072C333.542,220.546,315.712,203.752,329.514,201.158z"
			/>
		<path fill="#010101" d="M288.848,210.587c2.646,10.517,0.47,25.859,1.179,38.31c4.33,3.15,8.488,5.361,14.144,8.84
			c3.424,2.108,12.448,5.707,12.377,10.021c-0.179,10.982-15.003-0.987-20.036-4.126c-6.42-4-11.605-5.998-15.325-9.43
			c1.039-14.283-2.166-32.812,1.768-44.203C285.353,209.355,286.953,209.463,288.848,210.587z"/>
		<path fill="#010101" d="M342.479,222.376c10.256-3.409,9.234,10.869,2.357,11.197
			C339.624,233.821,335.049,224.844,342.479,222.376z"/>
	</g>
</g>
</svg>
