<?xml version="1.0" encoding="utf-8"?>
<!-- Generator: Adobe Illustrator 14.0.0, SVG Export Plug-In . SVG Version: 6.00 Build 43363)  -->
<!DOCTYPE svg PUBLIC "-//W3C//DTD SVG 1.1//EN" "http://www.w3.org/Graphics/SVG/1.1/DTD/svg11.dtd">
<svg version="1.1" xmlns="http://www.w3.org/2000/svg" xmlns:xlink="http://www.w3.org/1999/xlink" x="0px" y="0px"
	 width="235.709px" height="140.773px" viewBox="0 0 235.709 140.773" enable-background="new 0 0 235.709 140.773"
	 xml:space="preserve">
<g id="图层_2">
	<g opacity="0.75">
		<path fill="#8BABD1" d="M10.463,89.24c1.692,7.591,2.878,15.946,4.889,23.062c4.35-2.875,10.75-3.172,14.677-2.209
			c1.129,0.276,2.292,1.188,3.097,0.615c-1.501-7.465-3.002-14.929-4.504-22.394C24.104,85.785,16.424,86.174,10.463,89.24z
			 M30.525,87.931c1.677,7.513,2.846,15.786,4.841,22.822c2.921-3.87,10.441-6.565,16.673-5.833
			c-1.534-7.625-3.066-15.249-4.602-22.872C41.116,81.159,33.618,84.207,30.525,87.931z M8.083,92.198
			c1.026,7.973,3.291,16.771,4.794,25.062c7.086-3.668,17.4-4.951,22.541-1.312c3.075-5.368,13.1-8.052,20.82-7.411
			c-1.774-6.992-2.695-15.833-4.552-22.632c-0.156-0.563,0.054-2.784-1.435-2.191c-1.259,0.197-0.353,1.797-0.282,2.289
			c0.981,7.021,3.475,14.65,3.979,21.013c-7.306-0.884-15.804,2.223-19.199,6.837c-4.862-3.354-14.291-2.224-20.827,1.216
			c-1.564-7.783-3.131-15.566-4.696-23.351c-0.159,0.034-0.318,0.064-0.478,0.098C8.448,91.89,8.481,92.186,8.083,92.198z"/>
		<path fill="#8BABD1" d="M28.62,88.314c1.502,7.465,3.003,14.929,4.504,22.394c-0.805,0.572-1.968-0.339-3.097-0.615
			c-3.927-0.963-10.327-0.666-14.677,2.209c-2.011-7.115-3.195-15.471-4.889-23.062C16.424,86.174,24.104,85.785,28.62,88.314z"/>
		<path fill="#8BABD1" d="M47.438,82.049c1.534,7.623,3.066,15.247,4.602,22.872c-6.23-0.732-13.752,1.963-16.673,5.833
			c-1.996-7.036-3.164-15.311-4.841-22.822C33.618,84.207,41.116,81.159,47.438,82.049z"/>
		<path fill="#8BABD1" d="M8.75,91.814c0.159-0.033,0.317-0.063,0.478-0.098c1.564,7.783,3.131,15.566,4.696,23.351
			c6.536-3.438,15.965-4.568,20.827-1.216c3.396-4.614,11.894-7.721,19.199-6.837c-0.505-6.361-2.998-13.992-3.979-21.013
			c-0.069-0.492-0.977-2.092,0.282-2.289c1.487-0.593,1.278,1.628,1.435,2.191c1.856,6.799,2.777,15.64,4.552,22.632
			c-7.721-0.641-17.746,2.043-20.82,7.411c-5.141-3.641-15.455-2.356-22.541,1.312c-1.503-8.291-3.768-17.089-4.794-25.062
			C8.481,92.186,8.448,91.89,8.75,91.814z"/>
	</g>
	<path opacity="0.75" fill="#8BABD1" enable-background="new    " d="M31.183,86.558c0.005-0.004,0.011-0.008,0.016-0.012
		l18.558-13.436c2.446-2.031,5.184-3.494,6.108-5.598c0.564-1.285-1.592-2.581-2.799-4.072c-5.605-6.919-9.843-12.982-15.017-19.595
		c-1.449-1.856-4.999-7.288-6.616-7.381c-2.759-0.159-4.778,4.675-7.125,4.835c-2.059-2.034-5.319-7.739-8.145-8.652
		c-0.403-0.129-0.922,0.296-1.018,0.509c-2.89,5.049-6.354,12.848-9.417,19.086c-0.785,1.601-3.212,5.162-3.056,6.617
		c0.103,0.93,2.111,2.714,3.056,3.817C11.655,69.617,16.003,74.308,21.762,81c1.662,1.932,4.851,6.969,6.617,7.125
		C29.676,88.242,30.304,87.207,31.183,86.558L31.183,86.558L31.183,86.558z M15.402,48.425c-2.7,2.104-5.058,3.899-6.616,5.345
		c1.577-5.464,5.296-10.991,7.634-16.542c0.246,0.364,5.623,4.652,5.6,5.854C21.997,44.166,16.362,47.677,15.402,48.425z"/>
</g>
<g id="图层_1">
	<path opacity="0.35" fill="#7F7F7F" enable-background="new    " d="M130.099,6.978c2.876-0.56,5.664-0.249,8.542,0
		c17.081,1.305,24.455,29.234,11.57,42.157c-10.208-2.198-21.81-2.417-32.715,0C104.482,36.341,112.946,8.041,130.099,6.978z"/>
	<path opacity="0.5" fill="#0F0F0F" enable-background="new    " d="M182.167,109.014c13.083,10.235-11.586,14.688-8.333,14.688
		c2.388,0,44.198,0,44.487,0c-0.002,0,0.03,0,0.126,0c0.025,0,0.033,0,0.026,0c2.604,0,6.816,0,13.441,0h1.793v-14.688
		c-2.386,0-3.124,0-3.039,0c-0.443,0-0.948,0-1.535,0c-3.858,0-9.649,0-18.133,0c1.227-5.415-2.559-15.84,2.101-17.827
		c9.846-3.554,0.639,11.946,10.483,8.389c2.974-3.195,4.585-22.596-1.045-24.123c-8.401-2.108,0.08,12.673-10.489,8.392
		c-3.508-24.962,5.916-60.468-17.827-65.022c-11.938-2.291-23.4,2.682-27.273,13.634c-0.265,0.75-0.535,2.044-0.774,3.673v18.015
		h6.74v-12.11c-0.08-1.224-0.102-2.404,0-3.496l0,0l0,0c0.063-0.665,0.166-1.298,0.329-1.888c1.719-6.232,7.625-9.79,11.539-10.486
		c31.913-5.679,14.361,56.988,18.878,82.853c-3.113,0-6.226,0-9.338,0C191.844,109.014,184.647,109.014,182.167,109.014"/>
	<path fill="none" d="M174.916,42.032v-3.496C174.814,39.628,174.836,40.808,174.916,42.032z"/>
	<path opacity="0.61" fill="#7F7F7F" enable-background="new    " d="M174.916,38.536L174.916,38.536L174.916,38.536z"/>
	<path opacity="0.35" fill="#7F7F7F" enable-background="new    " d="M180.877,111.754c-3.591-2.228-7.521-4.853-12.047-9.394
		c-9.434-11.431-6.034-42.012-10.883-46.38c-5.622-5.065-34.649-10.021-51.355,1.813C84.252,73.617,79.81,93.934,87.374,111.33
		c0,0,3.017,2.003,5.761,1.719c2.72-0.28,3.544-0.555,4.715-1.719h0.03c0-0.009-0.001-0.019-0.001-0.028c0,0,0,0,0.001-0.002h-0.003
		c-0.801-13.743-4.57-27.223,4.255-32.428c0,18.862-1.811,61.902,6.616,61.902h45.941c6.085,0,4.925-18.003,4.925-26.113
		C166.151,122.496,190.219,120.308,180.877,111.754z"/>
	<path opacity="0.5" fill="#0F0F0F" enable-background="new    " d="M100.788,112.237c-4.751,3.103-11.29,3.371-16.878-3.23
		c-5.537,0-16.163,0-26.104,0c0.418,0.647,0.674,0.823,0.266,0.993c-0.599,0.183-0.297,0.142-1.359,0.234
		c-6.328,0.358-7.203,0.672-11.016,1.781c-3.896,1.081-8.081,4.798-9.544,6.483c-2.419-1.154-7.295-2.748-11.441-2.227
		c-4.146,0.521-12.516,3.84-12.516,3.84l-2.176-11.106H5.667v14.688h54.186h1.667h40.315L100.788,112.237z"/>
	<path fill="none" d="M-118.72,86.638c-0.005,0.004-0.011,0.008-0.016,0.012L-118.72,86.638z"/>
	<polygon fill="#FFFFFF" points="-118.736,86.65 -118.736,86.65 -118.736,86.65 	"/>
	<path opacity="0.6" fill="#7F7F7F" enable-background="new    " d="M39.229,85.273c0.018-0.015,0.036-0.03,0.054-0.045l-0.055,0.04
		L39.229,85.273z"/>
	<path d="M39.422,85.128c-0.047,0.033-0.093,0.066-0.139,0.101L39.422,85.128z"/>
</g>
<g id="图层_3">
	<path opacity="0.5" fill="#7F7F7F" enable-background="new    " d="M99.715,46.377c6.026-5.71,9.083-14.47,5.474-24.651
		c-2.91-8.206-9.684-13.853-19.76-15.862c-1.854,0-3.71,0-5.564,0c-14.581,1.62-26.222,17.667-18.923,33.95
		c1.987,4.438,5.699,8.203,9.184,10.296c3.241,1.947,6.78,2.978,10.339,3.218c5.814-4.403,9.403-5.203,15.09-6.689
		C97.066,46.469,98.44,46.39,99.715,46.377z"/>
	<path opacity="0.5" fill="#7F7F7F" enable-background="new    " d="M131.323,101.433c-3.012-9.83-6.709-19.268-10.182-29.013
		c-1.77-4.965-3.152-10.694-5.346-14.506c-3.174-5.525-6.855-10.279-19.991-8.8c-6.652,1.738-10.424,2.521-18.259,9.254
		c-1.704,1.789-3.393,3.644-5.266,5.4c-5.354,5.021-11.574,12.579-20.105,10.434c0.002-0.007,0.006-0.012,0.009-0.019L33.672,87.603
		c0.279-0.195,0.581-0.354,0.941-0.421c6.404,3.345,13.918,7.443,23.413,6.616c8.269-0.722,14.316-5.434,19.595-8.907
		c1.774,6.03,4.979,11.987,6.362,17.56c5.382,13.231,5.691,19.097,6.144,24.51c0.61,7.316,3.867,14.785,6.859,14.785l32.465,0.027
		C132.579,141.772,143.821,142.232,131.323,101.433z"/>
</g>
</svg>
