<?xml version="1.0" encoding="utf-8"?>
<!-- Generator: Adobe Illustrator 14.0.0, SVG Export Plug-In . SVG Version: 6.00 Build 43363)  -->
<!DOCTYPE svg PUBLIC "-//W3C//DTD SVG 1.1//EN" "http://www.w3.org/Graphics/SVG/1.1/DTD/svg11.dtd">
<svg version="1.1" id="Capa_1" xmlns="http://www.w3.org/2000/svg" xmlns:xlink="http://www.w3.org/1999/xlink" x="0px" y="0px"
	 width="200px" height="200px" viewBox="412 284 200 200" enable-background="new 412 284 200 200" xml:space="preserve">
<g>
	<path fill="none" stroke="#5986BD" stroke-width="5" stroke-linecap="round" stroke-linejoin="round" d="M497.145,419.307
		c0-20.846-17.927-25.68-17.927-44.525c0-18.845,16.09-32.884,32.885-32.884c16.794,0,32.885,14.04,32.885,32.884
		c0,18.845-17.926,23.679-17.926,44.525"/>
	
		<line fill="none" stroke="#5986BD" stroke-width="5" stroke-linecap="round" stroke-linejoin="round" x1="512.317" y1="330.266" x2="512.317" y2="301.799"/>
	
		<line fill="none" stroke="#5986BD" stroke-width="5" stroke-linecap="round" stroke-linejoin="round" x1="460.73" y1="321.695" x2="480.933" y2="341.897"/>
	
		<line fill="none" stroke="#5986BD" stroke-width="5" stroke-linecap="round" stroke-linejoin="round" x1="460.73" y1="425.461" x2="480.933" y2="405.26"/>
	
		<line fill="none" stroke="#5986BD" stroke-width="5" stroke-linecap="round" stroke-linejoin="round" x1="440.018" y1="376.486" x2="469.199" y2="376.486"/>
	
		<line fill="none" stroke="#5986BD" stroke-width="5" stroke-linecap="round" stroke-linejoin="round" x1="563.271" y1="321.695" x2="543.067" y2="341.897"/>
	
		<line fill="none" stroke="#5986BD" stroke-width="5" stroke-linecap="round" stroke-linejoin="round" x1="563.271" y1="425.461" x2="543.067" y2="405.26"/>
	
		<line fill="none" stroke="#5986BD" stroke-width="5" stroke-linecap="round" stroke-linejoin="round" x1="583.982" y1="376.486" x2="554.801" y2="376.486"/>
	
		<line fill="none" stroke="#5986BD" stroke-width="5" stroke-linecap="round" stroke-linejoin="round" x1="497.728" y1="427.809" x2="526.909" y2="427.809"/>
	
		<line fill="none" stroke="#5986BD" stroke-width="5" stroke-linecap="round" stroke-linejoin="round" x1="497.728" y1="436.787" x2="526.909" y2="436.787"/>
	
		<line fill="none" stroke="#5986BD" stroke-width="5" stroke-linecap="round" stroke-linejoin="round" x1="497.728" y1="445.766" x2="526.909" y2="445.766"/>
	
		<line fill="none" stroke="#5986BD" stroke-width="5" stroke-linecap="round" stroke-linejoin="round" x1="506.645" y1="454.133" x2="517.563" y2="454.133"/>
</g>
</svg>
