<?xml version="1.0" encoding="utf-8"?>
<!-- Generator: Adobe Illustrator 14.0.0, SVG Export Plug-In . SVG Version: 6.00 Build 43363)  -->
<!DOCTYPE svg PUBLIC "-//W3C//DTD SVG 1.1//EN" "http://www.w3.org/Graphics/SVG/1.1/DTD/svg11.dtd">
<svg version="1.1" xmlns="http://www.w3.org/2000/svg" xmlns:xlink="http://www.w3.org/1999/xlink" x="0px" y="0px" width="153px"
	 height="204.127px" viewBox="0 0 153 204.127" enable-background="new 0 0 153 204.127" xml:space="preserve">
<g id="图层_1" display="none">
	<g display="inline">
		<path fill-rule="evenodd" clip-rule="evenodd" fill="#7F7F7F" d="M99.089,11.565c2.246,0,4.496,0,6.739,0
			c2.433,1.608,4.058,4.028,4.043,8.086C89.235,28.096,65.354,34.01,41.136,41.217c-8.333,2.479-16.811,4.938-18.869,10.78
			c-2.39,6.79-0.673,19.562-0.673,28.305c0,27.894,0.554,57.995-0.674,84.909c-3.834,2.23-7.577-0.772-9.434-2.696
			c0-39.533,0-79.068,0-118.604c6.664-11.525,30.506-14.583,47.171-19.54C73.324,20.005,87.572,15.223,99.089,11.565z"/>
		<path fill-rule="evenodd" clip-rule="evenodd" fill="#7F7F7F" d="M134.133,31.783c0,39.533,0,79.068,0,118.604
			c-1.339,6.571-12.229,9.729-20.218,12.128c-21.649,6.501-48.041,13.432-67.389,20.218c-2.47,0-4.941,0-7.412,0
			c-2.582-2.521-2.908-4.422-3.369-7.413c-2.337-15.135,0-36.356,0-57.28c0-9.806,0-19.462,0-28.978
			c0-9.707-1.594-21.839,0.672-28.302c3.001-8.552,18.072-10.785,26.956-13.479c14.285-4.329,28.642-8.617,42.455-12.803
			C116.258,31.316,128.318,25.086,134.133,31.783z M109.872,70.868c-1.909-5.056,0.522-14.449-1.347-19.544
			c-7.028,1.738,1.741,19.262-5.392,20.892c-1.964-5.224,0.827-15.205-2.023-19.544c-4.298,4.462,2.82,20.34-4.717,21.565
			c-0.875-6.535,2.023-16.846-2.022-20.214c-2.425,11.643-3.351,32.833,8.086,35.04c-0.202,19.761-6.668,45.072,0.676,61.999
			c5.327-1.002,5.079-8.781,5.392-13.479c1.155-17.233-1.833-35.865-2.696-49.194c9.867-5.089,11.458-25.202,8.086-39.084
			C110.078,54.354,116.188,70.771,109.872,70.868z M80.221,134.212c-0.019-12.243-5.201-28.104-2.696-37.738
			c1.545-5.933,7.846-8.153,8.76-16.846c0.935-8.865-2.549-21.243-10.107-20.892c-7.904,0.369-15.517,22.87-9.435,33.021
			c1.954,3.258,4.511,3.016,6.74,6.063c0.072,11.521-2.472,24.772-2.696,37.064c-0.147,8.164-0.354,17.938,4.044,23.588
			C80.595,153.578,80.235,143.008,80.221,134.212z"/>
	</g>
</g>
<g id="图层_2">
	<g>
		<path fill="#7F7F7F" d="M57.907,110.076c0,1.904-1.544,3.449-3.449,3.449H37.616c-1.903,0-3.448-1.545-3.448-3.449l0,0
			c0-1.904,1.545-3.447,3.448-3.447h16.842C56.363,106.629,57.907,108.172,57.907,110.076L57.907,110.076z"/>
		<g>
			<path fill="#7F7F7F" d="M73.946,3.404H25.83c-3.013,0-5.456,2.505-5.456,5.594v185.539c0,3.087,2.442,5.59,5.456,5.59h48.116
				V3.404z M57.263,118.018H34.812c-3.012,0-5.456-2.444-5.456-5.458V68.295c0-3.012,2.443-5.456,5.456-5.456h22.451
				c3.015,0,5.457,2.443,5.457,5.456v44.264C62.72,115.573,60.277,118.018,57.263,118.018z"/>
			<path fill="#7F7F7F" d="M127.17,3.404H82.288v196.723h44.882c3.014,0,5.455-2.503,5.455-5.59V8.999
				C132.625,5.909,130.184,3.404,127.17,3.404z M98.646,135.819c0,2.393-1.937,4.331-4.33,4.331c-2.391,0-4.329-1.938-4.329-4.331
				V40.225c0-2.393,1.938-4.33,4.329-4.33c2.394,0,4.33,1.937,4.33,4.33V135.819z"/>
		</g>
	</g>
</g>
</svg>
