<?xml version="1.0" encoding="utf-8"?>
<!-- Generator: Adobe Illustrator 14.0.0, SVG Export Plug-In . SVG Version: 6.00 Build 43363)  -->
<!DOCTYPE svg PUBLIC "-//W3C//DTD SVG 1.1//EN" "http://www.w3.org/Graphics/SVG/1.1/DTD/svg11.dtd">
<svg version="1.1" id="图层_1" xmlns="http://www.w3.org/2000/svg" xmlns:xlink="http://www.w3.org/1999/xlink" x="0px" y="0px"
	 width="282px" height="221px" viewBox="0 0 282 221" enable-background="new 0 0 282 221" xml:space="preserve">
<g>
	<path fill-rule="evenodd" clip-rule="evenodd" fill="#FFFFFF" d="M40.86,54.445c-6.542,5.116-19.173,14.193-18,25
		c2.338,21.538,23.502,9.291,31,3c17.007-14.268,39.217-26.543,65-31c45.082-7.793,83.204,7.897,108,27
		c6.385,4.919,14.828,16.195,27,13c4.407-1.156,8.888-6.744,9-14c0.163-10.46-11.297-17.696-21-25
		c-28.909-21.763-64.705-33.136-106-32C97.468,21.502,64.878,35.663,40.86,54.445z"/>
	<path fill-rule="evenodd" clip-rule="evenodd" fill="#FFFFFF" d="M77.86,88.445c-9.162,6.126-23.49,15.815-23,27
		c0.345,7.871,7.817,13.929,15,14c9.515,0.094,20.909-13.994,32-20c25.618-13.871,61.092-12.603,85,1
		c9.778,5.563,17.685,19.583,30,19c8.42-0.398,13.744-6.896,14-14c0.466-12.885-20.142-25.017-31-31
		c-20.607-11.356-43.443-16.698-70-14C109.377,72.526,93.869,77.74,77.86,88.445z"/>
	<path fill-rule="evenodd" clip-rule="evenodd" fill="#FFFFFF" d="M103.86,129.445c-6.747,4.412-18.272,11.847-16,25
		c1.123,6.498,9.616,12.7,16,12c9.324-1.022,18.709-16.02,32-18c4.003-0.597,9.881-0.901,15,0c12.818,2.257,22.687,19.373,36,17
		c21.795-3.885,6.73-28.329-5-36c-12.686-8.296-30.886-11.809-47-10C122.382,120.846,113.684,123.021,103.86,129.445z"/>
	<path fill-rule="evenodd" clip-rule="evenodd" fill="#FFFFFF" d="M127.86,176.445c-18.649,27.237,35.596,42.697,33,9
		c-0.787-10.227-10.057-16.726-21-15C131.763,171.723,129.16,174.547,127.86,176.445z"/>
	<path fill-rule="evenodd" clip-rule="evenodd" d="M135.86,20.445c41.294-1.136,77.09,10.237,106,32c9.703,7.304,21.163,14.54,21,25
		c-0.112,7.256-4.593,12.844-9,14c-12.172,3.195-20.615-8.081-27-13c-24.796-19.103-62.918-34.793-108-27
		c-25.783,4.457-47.993,16.732-65,31c-7.498,6.291-28.662,18.538-31-3c-1.173-10.807,11.458-19.884,18-25
		C64.878,35.663,97.468,21.502,135.86,20.445z"/>
	<path fill-rule="evenodd" clip-rule="evenodd" d="M129.86,70.445c26.556-2.698,49.392,2.644,70,14
		c10.858,5.983,31.466,18.115,31,31c-0.256,7.104-5.58,13.602-14,14c-12.315,0.583-20.222-13.437-30-19
		c-23.907-13.603-59.382-14.871-85-1c-11.091,6.006-22.485,20.094-32,20c-7.183-0.071-14.655-6.129-15-14
		c-0.49-11.185,13.838-20.874,23-27C93.869,77.74,109.377,72.526,129.86,70.445z"/>
	<path fill-rule="evenodd" clip-rule="evenodd" d="M134.86,119.445c16.114-1.809,34.314,1.704,47,10c11.73,7.671,26.795,32.115,5,36
		c-13.313,2.373-23.182-14.743-36-17c-5.118-0.901-10.996-0.597-15,0c-13.291,1.98-22.676,16.978-32,18
		c-6.384,0.7-14.877-5.502-16-12c-2.272-13.153,9.253-20.588,16-25C113.684,123.021,122.382,120.846,134.86,119.445z"/>
	<path fill-rule="evenodd" clip-rule="evenodd" d="M139.86,170.445c10.943-1.726,20.212,4.773,21,15
		c2.597,33.697-51.648,18.237-33-9C129.16,174.547,131.763,171.723,139.86,170.445z"/>
</g>
</svg>
