<?xml version="1.0" encoding="UTF-8"?>
<svg width="58px" height="60px" viewBox="0 0 58 60" version="1.1" xmlns="http://www.w3.org/2000/svg" xmlns:xlink="http://www.w3.org/1999/xlink">
    <!-- Generator: Sketch 47.1 (45422) - http://www.bohemiancoding.com/sketch -->
    <title>Group 8</title>
    <desc>Created with Sketch.</desc>
    <defs></defs>
    <g id="Page-1" stroke="none" stroke-width="1" fill="none" fill-rule="evenodd">
        <g id="Group-8" fill="#289B68">
            <path d="M11.5471698,0 C12.1886792,1.88021641e-16 17.3207547,1.88021641e-16 26.9433962,0 C36.5660377,0 44.5849057,0 51,0 C47.1509434,9.03225806 44.9056604,15.8064516 44.2641509,20.3225806 C43.6226415,24.8387097 43.3018868,38.0645161 43.3018868,60 L0,60 C0,34.8387097 0.962264151,19.6774194 2.88679245,14.516129 C4.81132075,9.35483871 7.69811321,4.51612903 11.5471698,0 Z" id="Path-6"></path>
            <path d="M51.6153846,3 C48.025641,13 46.5299145,18 47.1282051,18 C47.7264957,18 51.017094,17.6875 57,17.0625 L51.6153846,3 Z" id="Path-7"></path>
            <path d="M46.1161143,19.9761905 L58,19 L58,60 L45.1257905,60 C44.9580698,53.1117414 44.9580698,46.278408 45.1257905,39.5 C45.2935111,32.721592 45.6236191,26.2136554 46.1161143,19.9761905 Z" id="Path-8"></path>
        </g>
    </g>
</svg>