<?xml version="1.0" encoding="UTF-8"?>
<svg width="53px" height="58px" viewBox="0 0 53 58" version="1.1" xmlns="http://www.w3.org/2000/svg" xmlns:xlink="http://www.w3.org/1999/xlink">
    <!-- Generator: Sketch 47.1 (45422) - http://www.bohemiancoding.com/sketch -->
    <title>Group 7</title>
    <desc>Created with Sketch.</desc>
    <defs></defs>
    <g id="Page-1" stroke="none" stroke-width="1" fill="none" fill-rule="evenodd">
        <g id="Group-7">
            <path d="M1,0 L41,0 C41.6679149,9.79913822 41.6679149,19.5410904 41,29.2258566 C40.3320851,38.9106228 38.9987518,48.5020039 37,58 L6,58 C3.49366721,48.410444 1.82700054,38.8190629 1,29.2258566 C0.172999461,19.6326504 0.172999461,9.89069815 1,0 Z" id="Rectangle-10" fill="#289B68"></path>
            <path d="M42.778187,11.2411228 C46.778187,11.2411228 49.4448537,11.2411228 50.778187,11.2411228 C52.778187,11.2411228 52.778187,25.5889489 52.778187,33.4150358 C52.778187,41.2411228 51.778187,41.2411228 49.778187,41.2411228 C48.4448537,41.2411228 46.1115204,41.2411228 42.778187,41.2411228" id="Path-5" fill="#289B68" transform="translate(47.778187, 26.241123) rotate(3.000000) translate(-47.778187, -26.241123) "></path>
            <path d="M42,16 C44,16 45.3333333,16 46,16 C47,16 47,25.0869565 47,30.0434783 C47,35 46.5,35 45.5,35 C44.8333333,35 43.6666667,35 42,35" id="Path-5-Copy" fill="#F0F7F4" transform="translate(44.500000, 25.500000) rotate(5.000000) translate(-44.500000, -25.500000) "></path>
        </g>
    </g>
</svg>