<?xml version="1.0" encoding="UTF-8"?>
<svg width="237px" height="157px" viewBox="0 0 237 157" version="1.1" xmlns="http://www.w3.org/2000/svg" xmlns:xlink="http://www.w3.org/1999/xlink">
    <!-- Generator: Sketch 47.1 (45422) - http://www.bohemiancoding.com/sketch -->
    <title>Group</title>
    <desc>Created with Sketch.</desc>
    <defs></defs>
    <g id="Page-1" stroke="none" stroke-width="1" fill="none" fill-rule="evenodd">
        <g id="Group">
            <rect id="Rectangle-2" stroke="#ADDDC9" stroke-width="2" x="1" y="1" width="235" height="155" rx="6"></rect>
            <g id="Group-Copy" transform="translate(95.000000, 21.000000)" fill="#ADDDC9">
                <circle id="Oval" cx="12.5" cy="12.5" r="12.5"></circle>
                <rect id="Rectangle-3" x="31" y="5" width="22" height="3" rx="1.5"></rect>
                <rect id="Rectangle-3-Copy" x="31" y="11" width="22" height="2" rx="1"></rect>
                <rect id="Rectangle-3-Copy-2" x="31" y="15" width="16" height="2" rx="1"></rect>
            </g>
            <g id="Group-Copy-6" transform="translate(24.000000, 21.000000)" fill="#ADDDC9">
                <circle id="Oval" cx="12.5" cy="12.5" r="12.5"></circle>
                <rect id="Rectangle-3" x="31" y="5" width="22" height="3" rx="1.5"></rect>
                <rect id="Rectangle-3-Copy" x="31" y="11" width="22" height="2" rx="1"></rect>
                <rect id="Rectangle-3-Copy-2" x="31" y="15" width="16" height="2" rx="1"></rect>
            </g>
            <g id="Group-Copy-2" transform="translate(24.000000, 68.000000)" fill="#ADDDC9">
                <circle id="Oval" cx="12.5" cy="12.5" r="12.5"></circle>
                <rect id="Rectangle-3" x="31" y="5" width="22" height="3" rx="1.5"></rect>
                <rect id="Rectangle-3-Copy" x="31" y="11" width="22" height="2" rx="1"></rect>
                <rect id="Rectangle-3-Copy-2" x="31" y="15" width="16" height="2" rx="1"></rect>
            </g>
            <g id="Group-Copy-4" transform="translate(24.000000, 114.000000)" fill="#ADDDC9">
                <circle id="Oval" cx="12.5" cy="12.5" r="12.5"></circle>
                <rect id="Rectangle-3" x="31" y="5" width="22" height="3" rx="1.5"></rect>
                <rect id="Rectangle-3-Copy" x="31" y="11" width="22" height="2" rx="1"></rect>
                <rect id="Rectangle-3-Copy-2" x="31" y="15" width="16" height="2" rx="1"></rect>
            </g>
            <g id="Group-Copy-3" transform="translate(95.000000, 68.000000)" fill="#ADDDC9">
                <circle id="Oval" cx="12.5" cy="12.5" r="12.5"></circle>
                <rect id="Rectangle-3" x="31" y="5" width="22" height="3" rx="1.5"></rect>
                <rect id="Rectangle-3-Copy" x="31" y="11" width="22" height="2" rx="1"></rect>
                <rect id="Rectangle-3-Copy-2" x="31" y="15" width="16" height="2" rx="1"></rect>
            </g>
            <g id="Group-Copy-5" transform="translate(95.000000, 114.000000)" fill="#ADDDC9">
                <circle id="Oval" cx="12.5" cy="12.5" r="12.5"></circle>
                <rect id="Rectangle-3" x="31" y="5" width="22" height="3" rx="1.5"></rect>
                <rect id="Rectangle-3-Copy" x="31" y="11" width="22" height="2" rx="1"></rect>
                <rect id="Rectangle-3-Copy-2" x="31" y="15" width="16" height="2" rx="1"></rect>
            </g>
            <g id="Group-2" transform="translate(172.000000, 43.000000)">
                <polygon id="Rectangle-4" fill="#A2CFBC" points="0 0 53 0 44 71 9 71"></polygon>
                <polygon id="Rectangle-5" fill="#72EAB6" points="6 30 47 30 42 69 11 69"></polygon>
                <polygon id="Rectangle-5-Copy" fill="#D7EEE4" points="2 4 51 4 47 31 6 31"></polygon>
            </g>
        </g>
    </g>
</svg>