<?xml version="1.0" encoding="UTF-8"?>
<svg width="50px" height="35px" viewBox="0 0 50 35" version="1.1" xmlns="http://www.w3.org/2000/svg" xmlns:xlink="http://www.w3.org/1999/xlink">
    <!-- Generator: Sketch 47.1 (45422) - http://www.bohemiancoding.com/sketch -->
    <title>Group 5</title>
    <desc>Created with Sketch.</desc>
    <defs></defs>
    <g id="Page-1" stroke="none" stroke-width="1" fill="none" fill-rule="evenodd">
        <g id="Group-5" transform="translate(-1.000000, 0.000000)" fill="#FFFFFF">
            <path d="M25.5,23 C13.0735931,23 3,17.8512746 3,11.5 C3,5.14872538 13.0735931,0 25.5,0 C37.9264069,0 48,5.14872538 48,11.5 C48,17.8512746 37.9264069,23 25.5,23 Z M25.5,14 C30.7467051,14 35,11.7614237 35,9 C35,6.23857625 30.7467051,4 25.5,4 C20.2532949,4 16,6.23857625 16,9 C16,11.7614237 20.2532949,14 25.5,14 Z" id="Combined-Shape"></path>
            <path d="M2.53966397,11.76121 C0.789868144,16.5958997 0.946607094,20.6799112 3.00988082,24.0132446 C6.10479141,29.0132446 11.2629757,33.0132446 24.674255,34.0132446 C38.0855342,35.0132446 43.7743796,30.1535889 47.9009271,25.1535889 C50.6519587,21.8202555 51.2290697,17.1774297 49.63226,11.2251113 C50.0077239,16.7990482 46.8024915,20.6365584 40.0165627,22.7376422 C29.8376695,25.8892677 20.2119843,24.3768553 12.0549357,21.2722354 C6.61690333,19.2024888 3.44514608,16.032147 2.53966397,11.76121 Z" id="Path-2" transform="translate(25.923573, 22.685073) rotate(-3.000000) translate(-25.923573, -22.685073) "></path>
        </g>
    </g>
</svg>