<?xml version="1.0" encoding="UTF-8"?>
<svg width="257px" height="139px" viewBox="0 0 257 139" version="1.1" xmlns="http://www.w3.org/2000/svg" xmlns:xlink="http://www.w3.org/1999/xlink">
    <!-- Generator: Sketch 47.1 (45422) - http://www.bohemiancoding.com/sketch -->
    <title>Group 10</title>
    <desc>Created with Sketch.</desc>
    <defs></defs>
    <g id="Page-1" stroke="none" stroke-width="1" fill="none" fill-rule="evenodd">
        <g id="Group-10" transform="translate(5.000000, 5.000000)">
            <g id="Group-9" transform="translate(30.000000, 18.000000)">
                <rect id="Rectangle-11" fill="#96BCAC" x="0" y="0" width="5" height="93"></rect>
                <rect id="Rectangle-11-Copy" fill="#96BCAC" x="12" y="0" width="5" height="81"></rect>
                <rect id="Rectangle-11-Copy-2" fill="#96BCAC" x="19" y="0" width="11" height="81"></rect>
                <rect id="Rectangle-11-Copy-3" fill="#96BCAC" x="32" y="0" width="8" height="81"></rect>
                <rect id="Rectangle-11-Copy-4" fill="#96BCAC" x="42" y="0" width="5" height="81"></rect>
                <rect id="Rectangle-11-Copy-5" fill="#96BCAC" x="49" y="0" width="5" height="81"></rect>
                <rect id="Rectangle-11-Copy-6" fill="#96BCAC" x="57" y="0" width="5" height="81"></rect>
                <rect id="Rectangle-11-Copy-7" fill="#96BCAC" x="64" y="0" width="12" height="81"></rect>
                <rect id="Rectangle-11-Copy-8" fill="#96BCAC" x="78" y="0" width="8" height="81"></rect>
                <rect id="Rectangle-11-Copy-18" fill="#96BCAC" x="95" y="0" width="44" height="44"></rect>
                <rect id="Rectangle-11-Copy-21" fill="#F0F7F4" x="103" y="8" width="29" height="29"></rect>
                <rect id="Rectangle-11-Copy-18" fill="#96BCAC" x="111" y="15" width="14" height="14"></rect>
                <rect id="Rectangle-11-Copy-20" fill="#96BCAC" x="144" y="0" width="44" height="44"></rect>
                <rect id="Rectangle-11-Copy-19" fill="#96BCAC" x="95" y="48" width="44" height="44"></rect>
                <rect id="Rectangle-11-Copy-22" fill="#F0F7F4" x="103" y="56" width="29" height="29"></rect>
                <rect id="Rectangle-11-Copy-23" fill="#96BCAC" x="111" y="64" width="14" height="14"></rect>
                <rect id="Rectangle-11-Copy-22" fill="#F0F7F4" x="152" y="8" width="29" height="29"></rect>
                <rect id="Rectangle-11-Copy-23" fill="#96BCAC" x="159" y="15" width="14" height="14"></rect>
                <rect id="Rectangle-11-Copy-24" fill="#96BCAC" x="144" y="48" width="12" height="12"></rect>
                <rect id="Rectangle-11-Copy-29" fill="#96BCAC" x="176" y="48" width="12" height="12"></rect>
                <rect id="Rectangle-11-Copy-26" fill="#96BCAC" x="154" y="59" width="11" height="17"></rect>
                <rect id="Rectangle-11-Copy-27" fill="#96BCAC" x="177" y="72" width="11" height="20"></rect>
                <rect id="Rectangle-11-Copy-28" fill="#96BCAC" x="162" y="79" width="11" height="12"></rect>
                <rect id="Rectangle-11-Copy-25" fill="#96BCAC" x="144" y="79" width="12" height="12"></rect>
                <rect id="Rectangle-11-Copy-9" fill="#96BCAC" x="89" y="0" width="4" height="81"></rect>
            </g>
            <polyline id="Path-9" stroke="#96BCAC" stroke-width="10" points="0 29.2682063 0 1 29 1"></polyline>
            <polyline id="Path-9-Copy" stroke="#96BCAC" stroke-width="10" transform="translate(14.134103, 114.500000) rotate(-90.000000) translate(-14.134103, -114.500000) " points="-0.365896859 128.634103 -0.365896859 100.365897 28.6341031 100.365897"></polyline>
            <polyline id="Path-9-Copy-2" stroke="#96BCAC" stroke-width="10" transform="translate(232.134103, 14.500000) rotate(-270.000000) translate(-232.134103, -14.500000) " points="217.634103 28.6341031 217.634103 0.365896859 246.634103 0.365896859"></polyline>
            <polyline id="Path-9-Copy-3" stroke="#96BCAC" stroke-width="10" transform="translate(231.500000, 114.134103) rotate(-180.000000) translate(-231.500000, -114.134103) " points="217 128.268206 217 100 246 100"></polyline>
        </g>
    </g>
</svg>